<?xml version="1.0" standalone="no"?>
<!DOCTYPE svg PUBLIC "-//W3C//DTD SVG 1.1//EN" "http://www.w3.org/Graphics/SVG/1.1/DTD/svg11.dtd" >
<svg>
<metadata>
Created by FontForge 20120731 at Mon Apr 25 20:20:19 2016 By www Copyright (c) 2015 by Mattox Shuler. All rights reserved.
</metadata>
<defs>
<font id="ColtSoftW00-Medium" horiz-adv-x="1389">
<font-face font-family="ColtSoftW00-Medium" font-weight="500" font-stretch="normal" units-per-em="1000" panose-1="1 0 0 0 0 0 0 0 0 0" ascent="800" descent="-200" x-height="700" cap-height="700" bbox="-4.80645 -470.2 2278 1016" underline-thickness="50" underline-position="-125" unicode-range="U+0020-2260"/>
<missing-glyph horiz-adv-x="640"/>
<glyph glyph-name=".notdef" horiz-adv-x="640"/>
<glyph glyph-name=".null" horiz-adv-x="0"/>
<glyph glyph-name="nonmarkingreturn" horiz-adv-x="333"/>
<glyph glyph-name="space" unicode=" " horiz-adv-x="380"/>
<glyph glyph-name="exclam" unicode="!" horiz-adv-x="420" d="M210 724q79 0 122.5 -34.5t43.5 -91.5q0 -30 -11 -65t-25 -70l-63 -155q-7 -20 -30 -20h-74q-23 0 -30 20l-63 155q-14 34 -25 69.5t-11 65.5q0 57 44 91.5t122 34.5zM210 -17q-29 0 -53.5 9.5t-41.5 25.5t-26.5 38t-9.5 48q0 25 9.5 47t26.5 38t41.5 25.5t53.5 9.5 t53 -9.5t41 -25.5t26.5 -38t9.5 -47q0 -26 -9.5 -48t-26.5 -38t-41 -25.5t-53 -9.5z"/>
<glyph glyph-name="quotedbl" unicode=""" horiz-adv-x="614" d="M55 675q0 25 26 25h167q26 0 26 -25v-9q0 -9 -0.5 -16t-2.5 -15l-54 -278q-5 -23 -28 -23h-49q-23 0 -28 23l-54 278q-2 8 -2.5 15t-0.5 16v9zM340 675q0 25 26 25h167q26 0 26 -25v-9q0 -9 -0.5 -16t-2.5 -15l-54 -278q-5 -23 -28 -23h-49q-23 0 -28 23l-54 278 q-2 8 -2.5 15t-0.5 16v9z"/>
<glyph glyph-name="numbersign" unicode="#" horiz-adv-x="1169" d="M906 417q-22 0 -28 -22l-19 -71q-6 -29 23 -29h149q14 0 20 -7.5t2 -21.5l-18 -65q-6 -22 -29 -22h-161q-23 0 -29 -22l-35 -135q-6 -22 -29 -22h-107q-30 0 -22 29l31 121q4 14 -2 21.5t-20 7.5h-193q-23 0 -29 -22l-35 -135q-6 -22 -29 -22h-107q-30 0 -22 29l31 121 q4 14 -2 21.5t-20 7.5h-150q-14 0 -20 7.5t-2 21.5l18 65q6 22 29 22h162q23 0 29 22l18 71q4 14 -2 21.5t-20 7.5h-150q-14 0 -20 7.5t-2 21.5l18 65q6 22 29 22h162q22 0 28 22l32 123q6 22 29 22h107q30 0 22 -29l-28 -109q-4 -14 2 -21.5t20 -7.5h194q22 0 28 22l32 123 q6 22 29 22h107q30 0 22 -29l-28 -109q-4 -14 2 -21.5t20 -7.5h150q14 0 20 -7.5t2 -21.5l-18 -65q-6 -22 -29 -22h-162zM716 388q8 29 -23 29h-193q-22 0 -28 -22l-19 -71q-6 -29 23 -29h193q23 0 29 22z"/>
<glyph glyph-name="dollar" unicode="$" horiz-adv-x="1179" d="M1117 233q0 -63 -31.5 -110.5t-88 -79.5t-133.5 -49t-168 -21q-26 -2 -26 -26v-63q0 -26 -26 -26h-62q-26 0 -26 26v66q0 24 -25 26q-73 6 -147 21.5t-132 46.5q-22 13 -35 -10l-8 -15q-9 -19 -30 -19h-85q-26 0 -26 26v181q0 26 26 26h105q20 0 30 -19q19 -32 50 -55 t70.5 -39t85.5 -25t94 -13q27 -2 27 26v123q0 25 -25 27l-134 11q-62 5 -122.5 16t-109.5 34.5t-79 61.5t-30 96q0 49 21 87t57 65.5t83.5 46t100 30t106.5 16t104 4.5q28 0 28 26v64q0 26 26 26h62q26 0 26 -26v-74q0 -24 25 -27q63 -9 114.5 -24t83.5 -34q24 -13 34 10 l7 14q10 19 31 19h85q26 0 26 -26v-166q0 -26 -26 -26h-105q-20 0 -30 19q-26 45 -85 71t-132 37q-28 5 -28 -24v-120q0 -25 25 -27l89 -7q60 -5 120 -13.5t107 -29t76.5 -57.5t29.5 -98zM529 451q27 -2 27 25v117q0 26 -27 26q-53 -1 -98.5 -6.5t-79.5 -16t-53.5 -27.5 t-19.5 -41q0 -31 34.5 -47t101.5 -21zM670 107q0 -28 28 -25q41 3 76.5 10t61 17.5t40 25.5t14.5 35q0 58 -124 69l-69 6q-27 2 -27 -25v-113z"/>
<glyph glyph-name="percent" unicode="%" horiz-adv-x="1201" d="M303 334q-119 0 -187 46t-68 137t68 142t187 51q120 0 188 -51t68 -142t-68 -137t-188 -46zM834 686q13 14 32 14h74q17 0 21.5 -9.5t-7.5 -22.5l-583 -654q-13 -14 -32 -14h-74q-17 0 -21.5 9.5t6.5 22.5zM198 517q0 -57 27.5 -83t77.5 -26t78 26t28 83t-28 88t-78 31 t-77.5 -31t-27.5 -88zM897 -10q-119 0 -187 46t-68 137t68 142t187 51q120 0 188 -51t68 -142t-68 -137t-188 -46zM792 173q0 -57 27.5 -83t77.5 -26t78 26t28 83t-28 88t-78 31t-77.5 -31t-27.5 -88z"/>
<glyph glyph-name="ampersand" unicode="&" horiz-adv-x="1227" d="M1145 178q15 -6 21 -13.5t5 -19.5q-5 -47 -23 -78.5t-47.5 -50.5t-67.5 -27.5t-82 -8.5q-54 0 -120 14.5t-129 53.5q-18 12 -37 -1q-45 -32 -115.5 -51.5t-164.5 -19.5q-31 0 -69 3t-76.5 11t-74.5 22t-64.5 37t-45.5 55.5t-17 77.5q0 76 54 123t168 64q32 5 15 31 t-24.5 52t-7.5 54q0 43 15.5 76t41.5 57t60 40.5t72 26.5t76.5 14t73.5 4q58 0 111.5 -12t94 -35.5t65 -59.5t24.5 -84q0 -62 -46 -109t-146 -66q-17 -3 -20.5 -12.5t10.5 -20.5l41 -31q20 -17 36 3q21 25 45.5 50t54.5 45t67 33t83 13q44 0 75.5 -11.5t52 -30.5t30.5 -42 t10 -47q0 -21 -7 -40t-21 -33.5t-34.5 -23.5t-46.5 -9q-31 0 -55 12t-37.5 32t-14.5 46t15 54q12 22 -10 15q-51 -17 -83 -47.5t-59 -64.5q-16 -21 4 -36l47 -37q36 -28 69 -42t71 -14t61.5 13t36.5 34q6 11 14.5 14t24.5 -2zM585 622q-60 0 -90 -24t-30 -58q0 -11 4 -23.5 t14.5 -27.5t28 -32.5t45.5 -39.5q11 -9 31 -3q73 20 103 47t30 65q0 28 -13 46.5t-33 29.5t-44 15.5t-46 4.5zM289 211q0 -33 13.5 -57t37 -40t54 -23.5t64.5 -7.5q32 0 61 6t55 17q14 6 15 16.5t-11 19.5l-202 159q-12 9 -21.5 8.5t-21.5 -8.5q-25 -17 -34.5 -41.5 t-9.5 -48.5z"/>
<glyph glyph-name="quotesingle" unicode="'" horiz-adv-x="329" d="M55 675q0 25 26 25h167q26 0 26 -25v-9q0 -9 -0.5 -16t-2.5 -15l-54 -278q-5 -23 -28 -23h-49q-23 0 -28 23l-54 278q-2 8 -2.5 15t-0.5 16v9z"/>
<glyph glyph-name="parenleft" unicode="(" horiz-adv-x="522" d="M478 663q0 -24 -25 -26q-100 -9 -148.5 -84t-48.5 -203t48.5 -203t148.5 -84q25 -2 25 -26v-37q0 -26 -26 -26q-92 3 -166.5 24.5t-127.5 66t-81.5 115t-28.5 170.5t28.5 170.5t81.5 115t127.5 66t166.5 24.5q26 0 26 -26v-37z"/>
<glyph glyph-name="parenright" unicode=")" horiz-adv-x="522" d="M44 700q0 26 26 26q92 -3 166.5 -24.5t127.5 -66t81.5 -115t28.5 -170.5t-28.5 -170.5t-81.5 -115t-127.5 -66t-166.5 -24.5q-26 0 -26 26v37q0 24 25 26q100 9 148.5 84t48.5 203t-48.5 203t-148.5 84q-25 2 -25 26v37z"/>
<glyph glyph-name="asterisk" unicode="*" horiz-adv-x="617" d="M424 438q-18 -1 -21 -11.5t11 -21.5l91 -69q11 -9 10.5 -19t-11.5 -18l-104 -76q-25 -18 -35 11l-39 107q-6 17 -17 17t-17 -17l-38 -108q-5 -14 -14.5 -16.5t-20.5 5.5l-104 76q-25 17 -1 37l89 69q14 11 11 21.5t-21 10.5l-114 3q-30 2 -22 30l41 124q4 14 13.5 17 t20.5 -5l94 -64q16 -11 24.5 -4t3.5 24l-32 110q-5 14 1.5 21.5t20.5 7.5h129q14 0 20.5 -7.5t1.5 -21.5l-32 -110q-5 -17 3.5 -23.5t24.5 3.5l94 65q11 8 20.5 5t13.5 -17l40 -123q9 -28 -21 -30z"/>
<glyph glyph-name="plus" unicode="+" horiz-adv-x="673" d="M623 320q0 -26 -26 -26h-159q-26 0 -26 -26v-150q0 -26 -26 -26h-99q-26 0 -26 26v150q0 26 -26 26h-159q-26 0 -26 26v80q0 26 26 26h159q26 0 26 26v150q0 26 26 26h99q26 0 26 -26v-150q0 -26 26 -26h159q26 0 26 -26v-80z"/>
<glyph glyph-name="comma" unicode="," horiz-adv-x="359" d="M145 -11q-47 0 -74 32t-27 79q0 27 9.5 50t27 39.5t41 26t52.5 9.5q61 0 101 -43.5t40 -129.5q0 -53 -16 -92.5t-42 -68t-60 -46t-70 -25.5q-24 -6 -32 18l-8 23q-8 26 19 32q49 13 79.5 39.5t36.5 78.5q1 6 -2.5 7.5t-8.5 -4.5q-13 -13 -30 -19t-36 -6z"/>
<glyph glyph-name="hyphen" unicode="-" horiz-adv-x="833" d="M80 397q0 26 26 26h621q26 0 26 -26v-74q0 -26 -26 -26h-621q-26 0 -26 26v74z"/>
<glyph glyph-name="period" unicode="." horiz-adv-x="349" d="M175 -16q-29 0 -53.5 9.5t-41.5 25.5t-26.5 38t-9.5 48q0 25 9.5 47t26.5 38t41.5 25.5t53.5 9.5t53 -9.5t41 -25.5t26.5 -38t9.5 -47q0 -26 -9.5 -48t-26.5 -38t-41 -25.5t-53 -9.5z"/>
<glyph glyph-name="slash" unicode="/" horiz-adv-x="892" d="M243 -54q-12 -16 -32 -16h-142q-16 0 -21 9t5 23l596 812q12 16 32 16h142q16 0 21 -9t-5 -23z"/>
<glyph glyph-name="zero" unicode="0" horiz-adv-x="1206" d="M603 -27q-131 0 -234.5 22.5t-174.5 68.5t-108.5 117t-37.5 169q0 97 37.5 168.5t108.5 118t174.5 69t234.5 22.5t234 -22.5t174.5 -69t109 -118t37.5 -168.5q0 -98 -37.5 -169t-109 -117t-174.5 -68.5t-234 -22.5zM314 350q0 -64 15.5 -114.5t50 -86t89.5 -54t134 -18.5 t134 18.5t89.5 54t50 86t15.5 114.5t-15.5 114.5t-50 86t-89.5 54.5t-134 19t-134 -19t-89.5 -54.5t-50 -86t-15.5 -114.5z"/>
<glyph glyph-name="one" unicode="1" horiz-adv-x="809" d="M547 164q0 -38 15 -49t45 -11h162q26 0 26 -26v-52q0 -26 -26 -26h-694q-26 0 -26 26v52q0 26 26 26h172q30 0 45 11t15 49v272q0 38 -15 49t-45 11h-152q-26 0 -26 26v52q0 26 26 26h44q50 0 87 3.5t66 13.5t52.5 28t46.5 47q13 16 32 16h98q26 0 26 -26v-518z"/>
<glyph glyph-name="two" unicode="2" horiz-adv-x="1137" d="M1047 266q26 0 26 -26v-214q0 -26 -26 -26h-964q-26 0 -26 26v56q0 56 32 98t84.5 73.5t119 55t136.5 43t136.5 36.5t119 36.5t84.5 42.5t32 55q0 15 -10.5 32.5t-40.5 32t-84 24t-141 9.5q-114 0 -185.5 -16t-110.5 -40q-10 -5 -7 -10t14 -3q60 8 92 -19t32 -72 q0 -49 -35 -74t-93 -25q-35 0 -64.5 9t-51 26.5t-34 43t-12.5 57.5q0 47 26.5 88.5t84.5 73t149.5 49.5t221.5 18q132 0 228.5 -18.5t158.5 -50.5t92 -74t30 -89t-27.5 -84t-73 -66t-105 -50.5t-123.5 -39t-128.5 -32.5t-119.5 -29t-97 -28.5t-61 -32.5q-11 -11 -3.5 -19.5 t22.5 -8.5h406q48 0 81.5 7t55.5 23t34.5 42t17.5 65q4 25 28 25h79z"/>
<glyph glyph-name="three" unicode="3" horiz-adv-x="1141" d="M874 359q46 -7 86.5 -19t70.5 -31t47.5 -47t17.5 -67q0 -41 -24 -80.5t-85 -70.5t-166 -50t-267 -18q-132 1 -227 17t-156 44t-90 66.5t-29 83.5q0 34 14.5 58.5t38 41t53 24.5t59.5 8q26 0 50.5 -6t43.5 -17.5t30.5 -28.5t11.5 -39q0 -24 -9.5 -40.5t-25.5 -26.5 t-37 -14t-44 -4q-17 -1 -19 -5.5t13 -12.5q44 -21 116.5 -33.5t186.5 -12.5q159 0 230.5 28t71.5 84q0 24 -12.5 44.5t-43.5 35.5t-82 23.5t-128 8.5h-82q-26 0 -26 26v52q0 26 26 26h82q68 0 112 8.5t69.5 22.5t35 33.5t9.5 42.5q0 26 -13 46t-44.5 33.5t-83 20.5t-128.5 7 q-115 0 -190.5 -14.5t-121.5 -40.5q-5 -2 -3.5 -5t7.5 -2q25 4 49.5 1.5t44 -12.5t31.5 -27.5t12 -44.5q0 -26 -10.5 -44t-27.5 -29t-40 -16.5t-48 -5.5q-30 0 -59.5 8t-53 24.5t-38 41.5t-14.5 60q0 47 29.5 85.5t89.5 66t151 42.5t215 15q139 0 235.5 -16t156.5 -43.5 t87 -65t27 -80.5q0 -34 -14.5 -60t-39 -44.5t-58 -30t-72.5 -15.5q-12 -2 -11.5 -5t13.5 -5z"/>
<glyph glyph-name="four" unicode="4" horiz-adv-x="1228" d="M959 210q-26 0 -26 -23v-23q0 -38 15 -49t45 -11h162q26 0 26 -26v-52q0 -26 -26 -26h-694q-26 0 -26 26v52q0 26 26 26h172q30 0 45 11t15 49v20q0 26 -26 26h-618q-26 0 -26 26v66q0 21 19 31l692 359q15 8 32 8h141q26 0 26 -26v-334q0 -26 26 -26h196q26 0 26 -26 v-52q0 -26 -26 -26h-196zM667 314q26 0 26 26v180q0 16 -8.5 21t-22.5 -2l-373 -194q-18 -9 -15.5 -20t22.5 -11h371z"/>
<glyph glyph-name="five" unicode="5" horiz-adv-x="1121" d="M604 486q101 0 187 -14t149 -45t98.5 -79t35.5 -115q0 -68 -35 -116.5t-101.5 -79.5t-163 -46t-220.5 -15q-130 0 -226.5 18t-160 48t-94.5 69.5t-31 82.5q0 51 39 82t108 31q31 0 57.5 -6.5t46 -19t31 -30t11.5 -39.5t-10 -38.5t-27 -27t-39 -15t-45 -2.5q-4 1 -4 -1 t5 -4q85 -27 163 -35.5t133 -8.5q68 0 123.5 9.5t95 29t61 47.5t21.5 66q0 37 -21.5 65t-59.5 46t-90.5 27t-115.5 9q-40 0 -74 -3.5t-67 -10t-67 -15t-73 -18.5q-18 -4 -34 1l-86 28q-22 7 -19 30l35 302q3 27 29 22q39 -7 97 -12t124 -8.5t134.5 -5.5t128.5 -2q43 0 89 1 t91 3t86.5 5.5t75.5 8.5q24 3 31 -19l1 -2q5 -23 -12 -34q-30 -21 -77 -37.5t-104 -28.5t-121 -18t-128 -6q-35 0 -72.5 2t-73 5t-68 7.5t-57.5 9.5q-27 6 -30 -21l-13 -111q-2 -16 5 -22t19 0q66 32 143.5 44t165.5 12z"/>
<glyph glyph-name="six" unicode="6" horiz-adv-x="1140" d="M640 438q101 0 184.5 -15t143.5 -44t93 -71.5t33 -96.5q0 -53 -32.5 -96.5t-96 -75.5t-157.5 -49.5t-218 -17.5q-128 0 -228.5 22.5t-170 69t-106.5 117.5t-37 169q0 97 37 168t106.5 117.5t170 68.5t228.5 22q109 0 195.5 -13t147 -38t92.5 -60t32 -78q0 -27 -12 -47 t-32.5 -33.5t-47 -20t-56.5 -6.5q-27 0 -53.5 5.5t-47.5 16t-34 27t-13 37.5t12 36.5t30.5 25t41.5 12t45 -1.5q3 -1 3 0.5t-2 2.5q-56 23 -126 32.5t-155 9.5q-79 0 -133.5 -18t-89 -50t-51.5 -76t-21 -96q-2 -17 4 -25t14 -2q26 17 56 30.5t67 22.5t82 14t102 5zM585 78 q45 0 89 7.5t78.5 23t56 39.5t21.5 58t-21.5 58t-56 39t-78.5 22t-89 7t-89 -7t-78.5 -22t-56 -39t-21.5 -58t21.5 -58t56 -39.5t78.5 -23t89 -7.5z"/>
<glyph glyph-name="seven" unicode="7" horiz-adv-x="1082" d="M68 384q-26 0 -26 26v264q0 26 26 26h986q26 0 26 -26v-37q0 -20 -17 -30q-29 -18 -73.5 -46t-94.5 -66.5t-100.5 -87.5t-92.5 -107.5t-70 -127t-32 -146.5q-2 -26 -27 -26h-241q-28 0 -25 26q5 45 26.5 95.5t54.5 102.5t75.5 102.5t89.5 95.5t97 83t98 64q17 9 15.5 18 t-21.5 9h-378q-52 0 -86.5 -10.5t-56 -33t-32.5 -57.5t-15 -85q-3 -26 -27 -26h-79z"/>
<glyph glyph-name="eight" unicode="8" horiz-adv-x="1140" d="M898 382q-29 -7 0 -13q42 -10 78 -25.5t63 -36.5t42 -48t15 -60q0 -38 -23.5 -77.5t-83.5 -71.5t-164 -53t-265 -21q-105 0 -184 9t-136.5 25t-95 37t-60 44t-31.5 47t-9 47q0 55 44 96.5t125 65.5q29 9 0 16q-28 7 -53 20t-44 31.5t-30.5 42t-11.5 52.5q0 42 27 81 t86 68.5t153.5 47.5t229.5 18t226 -17.5t146.5 -45.5t79.5 -63t24 -69q0 -27 -12.5 -50.5t-33 -42.5t-47.5 -33t-55 -21zM560 620q-107 0 -166.5 -21.5t-59.5 -59.5q0 -16 14.5 -29.5t56.5 -27.5t117.5 -29.5t196.5 -36.5q20 -3 36 4q48 23 67.5 50.5t19.5 51.5 q0 21 -14.5 39t-47.5 31t-87 20.5t-133 7.5zM570 80q72 0 122.5 7t82.5 19t46.5 29t14.5 38q0 16 -14 30t-62 29.5t-140.5 34t-248.5 45.5q-11 2 -19 1.5t-16 -4.5q-14 -7 -28.5 -17.5t-26.5 -25t-19.5 -31.5t-7.5 -37q0 -24 14 -45.5t49.5 -37.5t96.5 -25.5t156 -9.5z"/>
<glyph glyph-name="nine" unicode="9" horiz-adv-x="1140" d="M500 263q-101 0 -184.5 15t-143.5 44t-93 71.5t-33 96.5q0 52 32.5 96t96 76t157.5 49.5t218 17.5q127 0 228 -22.5t170.5 -69t106.5 -118t37 -168.5q0 -98 -37 -168.5t-106.5 -117t-170.5 -68.5t-228 -22q-109 0 -195.5 13t-147 38t-92.5 59.5t-32 78.5q0 27 12 47 t32.5 33.5t47 20t56.5 6.5q27 0 53.5 -5.5t47.5 -16t34 -27t13 -37.5t-12 -36.5t-30.5 -25t-41.5 -12t-45 1.5q-3 1 -3 -0.5t2 -2.5q56 -23 126 -32.5t155 -9.5q79 0 133.5 18t89 50t51.5 76t21 96q2 17 -4 25t-14 2q-26 -17 -56 -30.5t-67 -22.5t-82 -14t-102 -5zM555 623 q-45 0 -89 -7.5t-78.5 -23t-56 -39.5t-21.5 -58t21.5 -58t56 -39t78.5 -22t89 -7t89 7t78.5 22t56 39t21.5 58t-21.5 58t-56 39.5t-78.5 23t-89 7.5z"/>
<glyph glyph-name="colon" unicode=":" horiz-adv-x="409" d="M205 369q-29 0 -53.5 9.5t-41.5 25.5t-26.5 38t-9.5 48q0 25 9.5 47t26.5 38t41.5 25.5t53.5 9.5t53 -9.5t41 -25.5t26.5 -38t9.5 -47q0 -26 -9.5 -48t-26.5 -38t-41 -25.5t-53 -9.5zM205 -16q-29 0 -53.5 9.5t-41.5 25.5t-26.5 38t-9.5 48q0 25 9.5 47t26.5 38 t41.5 25.5t53.5 9.5t53 -9.5t41 -25.5t26.5 -38t9.5 -47q0 -26 -9.5 -48t-26.5 -38t-41 -25.5t-53 -9.5z"/>
<glyph glyph-name="semicolon" unicode=";" horiz-adv-x="419" d="M209 369q-29 0 -53.5 9.5t-41.5 25.5t-26.5 38t-9.5 48q0 25 9.5 47t26.5 38t41.5 25.5t53.5 9.5t53 -9.5t41 -25.5t26.5 -38t9.5 -47q0 -26 -9.5 -48t-26.5 -38t-41 -25.5t-53 -9.5zM175 -11q-47 0 -74 32t-27 79q0 27 9.5 50t27 39.5t41 26t52.5 9.5q61 0 101 -43.5 t40 -129.5q0 -53 -16 -92.5t-42 -68t-60 -46t-70 -25.5q-24 -6 -32 18l-8 23q-8 26 19 32q49 13 79.5 39.5t36.5 78.5q1 6 -2.5 7.5t-8.5 -4.5q-13 -13 -30 -19t-36 -6z"/>
<glyph glyph-name="less" unicode="<" horiz-adv-x="665" d="M596 608q14 -21 -7 -36l-294 -205q-26 -18 0 -36l294 -204q21 -15 7 -36l-5 -8q-14 -21 -35 -11l-487 228q-19 9 -19 30v38q0 21 19 30l487 229q21 10 35 -11z"/>
<glyph glyph-name="equal" unicode="=" horiz-adv-x="836" d="M80 491q0 26 26 26h624q26 0 26 -26v-68q0 -26 -26 -26h-624q-26 0 -26 26v68zM80 285q0 26 26 26h624q26 0 26 -26v-68q0 -26 -26 -26h-624q-26 0 -26 26v68z"/>
<glyph glyph-name="greater" unicode=">" horiz-adv-x="665" d="M74 616q14 21 35 11l487 -229q19 -9 19 -30v-38q0 -21 -19 -30l-487 -228q-21 -10 -35 11l-5 8q-14 21 7 36l294 204q26 18 0 36l-294 205q-21 15 -7 36z"/>
<glyph glyph-name="question" unicode="?" horiz-adv-x="915" d="M425 272q-13 0 -20 7t-5 21q5 37 23.5 61t43 40t51.5 27.5t49.5 24.5t37.5 30t15 45q0 20 -9.5 37t-31.5 30t-59 20t-91 7q-46 0 -82 -5t-65 -13.5t-51 -19.5t-39 -23q-6 -4 -4.5 -8.5t9.5 -3.5q25 1 48 -3.5t40.5 -15.5t28 -28.5t10.5 -42.5t-10.5 -43t-28 -30t-40 -18 t-46.5 -6q-28 0 -55 8t-48 24.5t-34 42t-13 60.5q0 49 26.5 90.5t77 72.5t124 48.5t167.5 17.5t172 -15.5t134.5 -42.5t88 -65t31.5 -83q0 -39 -22.5 -64.5t-57 -43t-76 -30t-80 -24.5t-68.5 -27t-42 -38q-5 -10 -11 -15.5t-18 -5.5h-70zM455 -16q-29 0 -53.5 9.5 t-41.5 25.5t-26.5 38t-9.5 48q0 25 9.5 47t26.5 38t41.5 25.5t53.5 9.5t53 -9.5t41 -25.5t26.5 -38t9.5 -47q0 -26 -9.5 -48t-26.5 -38t-41 -25.5t-53 -9.5z"/>
<glyph glyph-name="at" unicode="@" horiz-adv-x="1312" d="M656 728q126 0 236 -18t192.5 -58.5t130 -106t47.5 -161.5q0 -70 -23 -119.5t-62 -80.5t-90.5 -45t-107.5 -14q-22 0 -46 1.5t-46 6.5t-40 14t-28 24q-8 11 -13.5 12.5t-15.5 -5.5q-43 -32 -97 -44.5t-110 -12.5q-67 0 -121.5 16.5t-93.5 45.5t-60.5 70t-21.5 91t22 92.5 t64 73t102 48t137 17.5t131 -19t83 -52q20 -22 36 0l23 33q11 17 31 17h71q29 0 23 -29l-54 -252q-9 -41 6.5 -55.5t43.5 -14.5t56 11.5t50 35t35.5 58t13.5 80.5q0 75 -41 125.5t-110 81.5t-160.5 44t-192.5 13q-105 0 -197 -16.5t-160 -52.5t-107.5 -93.5t-39.5 -139.5 q0 -78 36 -135t102 -94t159 -55t207 -18q81 0 162 9t146 23q14 4 21.5 -2.5t5.5 -21.5l-2 -17q-2 -21 -22 -27q-57 -17 -134.5 -28.5t-180.5 -11.5q-130 0 -240 21t-190.5 67t-126 117.5t-45.5 172.5t47 173t128.5 117.5t192 66.5t238.5 21zM792 352q0 27 -8.5 50.5t-27 41 t-47.5 27.5t-69 10q-41 0 -72 -11t-52 -30t-32 -44.5t-11 -55.5q0 -63 42.5 -93.5t109.5 -30.5q33 0 63 7.5t53 24t37 42.5t14 62z"/>
<glyph glyph-name="A" unicode="A" d="M1370 104q17 0 17 -26v-52q0 -26 -26 -26h-520q-26 0 -26 26v52q0 26 26 26h79q32 0 40 18t-10 43l-26 36q-13 16 -32 16h-488q-19 0 -31 -16l-27 -36q-19 -25 -10.5 -43t40.5 -18h83q26 0 26 -26v-52q0 -26 -26 -26h-419q-26 0 -26 26v52q0 26 17 26h17q25 0 43.5 3 t33.5 10.5t28.5 20t28.5 32.5l277 365q20 26 12 43.5t-42 17.5h-50q-26 0 -26 26v52q0 26 26 26h430q20 0 32 -16l378 -514q14 -20 27.5 -32.5t29 -20t34 -10.5t43.5 -3h17zM796 321q17 0 21.5 9t-5.5 23l-144 196q-8 11 -18 11t-18 -11l-146 -196q-10 -14 -5.5 -23t20.5 -9 h295z"/>
<glyph glyph-name="B" unicode="B" horiz-adv-x="1331" d="M1058 358q64 -8 108.5 -23t72.5 -36t40.5 -47.5t12.5 -56.5q0 -88 -99 -141.5t-297 -53.5h-821q-26 0 -26 26v52q0 26 26 26h102q30 0 45 11t15 49v372q0 38 -15 49t-45 11h-102q-26 0 -26 26v52q0 26 26 26h795q94 0 165.5 -13t119.5 -37t72.5 -57t24.5 -73 q0 -26 -11 -51.5t-35 -46.5t-60.5 -36t-87.5 -21q-10 -1 -10 -3t10 -4zM477 432q0 -26 26 -26h308q97 0 137.5 23t40.5 72t-40.5 72t-137.5 23h-308q-26 0 -26 -26v-138zM837 104q98 0 143 23.5t45 76.5t-45 76.5t-143 23.5h-334q-26 0 -26 -26v-148q0 -26 26 -26h334z"/>
<glyph glyph-name="C" unicode="C" horiz-adv-x="1205" d="M1014 446q-21 0 -30 20q-38 82 -115 120t-206 38q-97 0 -164.5 -19.5t-110 -55t-61.5 -86t-19 -113.5t19 -113.5t61.5 -86t110 -55t164.5 -19.5q129 0 216 38t118 127q5 11 11.5 16.5t18.5 5.5h104q14 0 20.5 -7.5t1.5 -21.5q-45 -137 -175 -199.5t-351 -62.5 q-134 0 -242.5 22.5t-184.5 69t-117 118t-41 168.5t42 168.5t118 118t181.5 69t232.5 22.5q115 0 198 -18.5t140 -54.5q23 -14 36 8l11 19q11 18 32 18h93q26 0 26 -26v-202q0 -26 -26 -26h-112z"/>
<glyph glyph-name="D" unicode="D" horiz-adv-x="1376" d="M704 700q315 0 472.5 -81t157.5 -264q0 -95 -39.5 -162.5t-118 -110.5t-197 -62.5t-275.5 -19.5h-629q-26 0 -26 26v52q0 26 26 26h102q30 0 45 11t15 49v372q0 38 -14 49t-46 11h-102q-26 0 -26 26v52q0 26 26 26h629zM1068 355q0 62 -20 107.5t-64.5 75t-116 44 t-173.5 14.5h-191q-26 0 -26 -26v-440q0 -26 26 -26h191q102 0 173.5 14.5t116 45t64.5 78t20 113.5z"/>
<glyph glyph-name="E" unicode="E" horiz-adv-x="1304" d="M503 596q-26 0 -26 -26v-137q0 -26 26 -26h184q34 0 55.5 5t33.5 15.5t16.5 28t4.5 41.5q0 23 26 23h68q26 0 26 -26v-278q0 -26 -26 -26h-68q-26 0 -26 23q0 24 -4.5 41.5t-16.5 28t-33.5 15.5t-55.5 5h-184q-26 0 -26 -26v-147q0 -26 26 -26h439q45 0 74.5 10t47 31 t26 52.5t12.5 73.5q2 25 27 25h79q26 0 26 -26v-244q0 -26 -26 -26h-1133q-26 0 -26 26v52q0 26 26 26h102q30 0 45 11t15 49v372q0 38 -15 49t-45 11h-102q-26 0 -26 26v52q0 26 26 26h1123q26 0 26 -26v-214q0 -26 -26 -26h-79q-25 0 -27 25q-5 38 -13.5 64t-26 42.5 t-46.5 23.5t-74 7h-429z"/>
<glyph glyph-name="F" unicode="F" horiz-adv-x="1252" d="M1198 700q26 0 26 -26v-214q0 -26 -26 -26h-89q-25 0 -27 25q-5 38 -13 64t-24.5 42.5t-43.5 23.5t-69 7h-429q-26 0 -26 -26v-143q0 -26 26 -26h184q34 0 55.5 5t33.5 15.5t16.5 28t4.5 41.5q0 23 26 23h68q26 0 26 -26v-278q0 -26 -26 -26h-68q-26 0 -26 25 q0 24 -4.5 40.5t-16.5 27t-33.5 15.5t-55.5 5h-184q-26 0 -26 -26v-107q0 -38 15 -49t45 -11h102q26 0 26 -26v-52q0 -26 -26 -26h-564q-26 0 -26 26v52q0 26 26 26h102q30 0 45 11t15 49v372q0 38 -15 49t-45 11h-102q-26 0 -26 26v52q0 26 26 26h1123z"/>
<glyph glyph-name="G" unicode="G" horiz-adv-x="1337" d="M1285 386q26 0 26 -26v-58q0 -26 -25 -26h-25q-19 0 -30.5 -2.5t-18 -9t-9 -18t-2.5 -30.5v-190q0 -26 -26 -26h-89q-23 0 -29 22l-14 48q-10 31 -34 10q-27 -24 -62 -43.5t-80 -34t-101.5 -22.5t-125.5 -8q-139 0 -249.5 22.5t-188 69t-119 117.5t-41.5 169 q0 97 41.5 168.5t119 118t188 69t249.5 22.5q120 0 205 -19t141 -54q23 -14 36 8l11 19q11 18 32 18h93q26 0 26 -26v-201q0 -26 -26 -26h-112q-21 0 -30 20q-37 76 -119.5 116.5t-228.5 40.5q-102 0 -171 -19t-111 -54.5t-60 -86t-18 -114.5t18.5 -114.5t61 -86t111 -54.5 t169.5 -19q80 0 140.5 16.5t101 41.5t61 54t20.5 54q0 34 -47 34h-149q-26 0 -26 26v58q0 26 26 26h490z"/>
<glyph glyph-name="H" unicode="H" horiz-adv-x="1502" d="M1265 164q0 -38 15 -49t45 -11h102q26 0 26 -26v-52q0 -26 -26 -26h-564q-26 0 -26 26v52q0 26 26 26h102q30 0 45 11t15 49v114q0 26 -26 26h-496q-26 0 -26 -26v-114q0 -38 15 -49t45 -11h102q26 0 26 -26v-52q0 -26 -26 -26h-564q-26 0 -26 26v52q0 26 26 26h102 q30 0 45 11t15 49v372q0 38 -15 49t-45 11h-102q-26 0 -26 26v52q0 26 26 26h564q26 0 26 -26v-52q0 -26 -26 -26h-102q-30 0 -45 -11t-15 -49v-102q0 -26 26 -26h496q26 0 26 26v102q0 38 -15 49t-45 11h-102q-26 0 -26 26v52q0 26 26 26h564q26 0 26 -26v-52 q0 -26 -26 -26h-102q-30 0 -45 -11t-15 -49v-372z"/>
<glyph glyph-name="I" unicode="I" horiz-adv-x="714" d="M477 164q0 -38 15 -49t45 -11h102q26 0 26 -26v-52q0 -26 -26 -26h-564q-26 0 -26 26v52q0 26 26 26h102q30 0 45 11t15 49v372q0 38 -15 49t-45 11h-102q-26 0 -26 26v52q0 26 26 26h564q26 0 26 -26v-52q0 -26 -26 -26h-102q-30 0 -45 -11t-15 -49v-372z"/>
<glyph glyph-name="J" unicode="J" horiz-adv-x="1119" d="M160 225q-24 16 -12 -8q15 -30 41.5 -54.5t61 -42.5t74.5 -28t81 -10q49 0 96.5 15.5t84.5 48.5t59.5 83.5t22.5 120.5v186q0 38 -15 49t-45 11h-102q-26 0 -26 26v52q0 26 26 26h560q26 0 26 -26v-52q0 -26 -26 -26h-98q-30 0 -45 -11t-15 -49v-224q0 -86 -37.5 -150 t-99.5 -106t-141 -63t-161 -21q-84 0 -164 21t-143 60.5t-101.5 95.5t-38.5 126q0 46 16.5 81.5t43.5 58.5t60.5 35t67.5 12q28 0 54.5 -8.5t47 -25t32.5 -42t12 -58.5q0 -43 -20 -72t-50 -42.5t-64.5 -11t-62.5 22.5z"/>
<glyph glyph-name="K" unicode="K" horiz-adv-x="1430" d="M1428 26q0 -26 -26 -26h-573q-26 0 -26 26v52q0 26 26 26h58q32 0 33 17.5t-20 34.5l-202 168q-15 14 -35 5l-166 -73q-20 -9 -20 -31v-61q0 -38 15 -49t45 -11h88q26 0 26 -26v-52q0 -26 -26 -26h-550q-26 0 -26 26v52q0 26 26 26h102q30 0 45 11t15 49v372q0 38 -15 49 t-45 11h-102q-26 0 -26 26v52q0 26 26 26h550q26 0 26 -26v-52q0 -26 -26 -26h-88q-30 0 -45 -11t-15 -49v-134q0 -14 8 -19.5t22 0.5l383 172q17 7 23 14.5t5 13.5t-8 9.5t-16 3.5h-59q-26 0 -26 26v52q0 26 26 26h531q26 0 26 -26v-52q0 -26 -24 -26h-24q-24 0 -44.5 -2 t-41 -6.5t-42 -12.5t-46.5 -19l-250 -111q-14 -6 -15 -16t10 -20l287 -241q21 -18 42 -30t44 -19.5t49 -11t58 -3.5h7q26 0 26 -26v-52z"/>
<glyph glyph-name="L" unicode="L" horiz-adv-x="1187" d="M1122 316q26 0 26 -26v-264q0 -26 -26 -26h-1047q-26 0 -26 26v52q0 26 26 26h102q30 0 45 11t15 49v372q0 38 -15 49t-45 11h-102q-26 0 -26 26v52q0 26 26 26h564q26 0 26 -26v-52q0 -26 -26 -26h-102q-30 0 -45 -11t-15 -49v-406q0 -26 26 -26h323q53 0 87.5 10.5 t56 33.5t31.5 58t15 85q3 25 27 25h79z"/>
<glyph glyph-name="M" unicode="M" horiz-adv-x="1742" d="M1505 165q0 -38 15 -49t45 -11h102q26 0 26 -26v-52q0 -26 -26 -26h-560q-26 0 -26 26v52q0 26 26 26h98q30 0 45 11t15 49v346q0 19 -10.5 22.5t-21.5 -13.5l-325 -503q-11 -17 -31 -17h-102q-20 0 -31 17l-325 503q-11 17 -21.5 13.5t-10.5 -22.5v-347q0 -38 15 -49 t45 -11h98q26 0 26 -26v-52q0 -26 -26 -26h-470q-26 0 -26 26v52q0 26 26 26h102q30 0 45 11t15 49v372q0 38 -15 49t-45 11h-102q-26 0 -26 26v52q0 26 26 26h479q20 0 31 -17l274 -425q8 -13 18 -13t18 13l278 425q11 17 31 17h463q26 0 26 -26v-52q0 -26 -26 -26h-102 q-30 0 -45 -11t-15 -49v-371z"/>
<glyph glyph-name="N" unicode="N" horiz-adv-x="1455" d="M1403 701q26 0 26 -26v-52q0 -26 -26 -26h-98q-30 0 -45 -11t-15 -49v-511q0 -26 -26 -26h-204q-19 0 -32 12l-564 491q-13 11 -22.5 7t-9.5 -21v-325q0 -38 15 -49t45 -11h102q26 0 26 -26v-52q0 -26 -26 -26h-474q-26 0 -26 26v52q0 26 26 26h102q30 0 45 11t15 49v372 q0 38 -15 49t-45 11h-102q-26 0 -26 26v52q0 26 26 26h444q19 0 32 -12l512 -446q13 -11 22.5 -7t9.5 21v281q0 38 -15 49t-45 11h-102q-26 0 -26 26v52q0 26 26 26h470z"/>
<glyph glyph-name="O" unicode="O" horiz-adv-x="1314" d="M657 -28q-146 0 -260.5 22.5t-193.5 69t-120 117.5t-41 169q0 97 41 168.5t120 118t193.5 69t260.5 22.5t260.5 -22.5t193 -69t120 -118t41.5 -168.5q0 -98 -41.5 -169t-120 -117.5t-193 -69t-260.5 -22.5zM308 350q0 -64 18 -114.5t59 -86t107.5 -54.5t164.5 -19 q97 0 164 19t108 54.5t59 86t18 114.5t-16.5 114.5t-56.5 86t-107.5 54.5t-168.5 19q-98 0 -164.5 -19t-107.5 -54.5t-59 -86t-18 -114.5z"/>
<glyph glyph-name="P" unicode="P" horiz-adv-x="1293" d="M858 700q103 0 179 -16t126.5 -44.5t75.5 -68.5t25 -89t-25 -89t-75.5 -68.5t-126.5 -44.5t-179 -16h-355q-26 0 -26 -26v-74q0 -38 15 -49t45 -11h102q26 0 26 -26v-52q0 -26 -26 -26h-564q-26 0 -26 26v52q0 26 26 26h102q30 0 45 11t15 49v372q0 38 -15 49t-45 11 h-102q-26 0 -26 26v52q0 26 26 26h783zM1002 482q0 63 -50 88.5t-154 25.5h-295q-26 0 -26 -26v-176q0 -26 26 -26h295q104 0 154 25.5t50 88.5z"/>
<glyph glyph-name="Q" unicode="Q" horiz-adv-x="1314" d="M1048 -86q43 0 80 5t62 14q24 7 35 -12l18 -35q13 -23 -9 -35q-20 -11 -47.5 -19t-59 -14t-66 -9t-68.5 -3q-56 0 -107 9.5t-93.5 28t-75.5 46t-51 62.5q-10 20 -31 20q-141 2 -251.5 25.5t-186.5 70t-115.5 116.5t-39.5 166q0 97 41 168.5t120 118t193.5 69t260.5 22.5 t260.5 -22.5t193 -69t120 -118t41.5 -168.5q0 -149 -95 -237t-273 -121q-14 -3 -20.5 -10.5t0.5 -16.5q23 -29 66.5 -40t97.5 -11zM308 350q0 -64 18 -114.5t59 -86t107.5 -54.5t164.5 -19q97 0 164 19t108 54.5t59 86t18 114.5t-16.5 114.5t-56.5 86t-107.5 54.5t-168.5 19 q-98 0 -164.5 -19t-107.5 -54.5t-59 -86t-18 -114.5z"/>
<glyph glyph-name="R" unicode="R" horiz-adv-x="1337" d="M1268 104q26 0 26 -26v-52q0 -26 -26 -26h-320q-20 0 -32 16l-184 244q-12 16 -31 16h-198q-26 0 -26 -26v-86q0 -38 15 -49t45 -11h102q26 0 26 -26v-52q0 -26 -26 -26h-564q-26 0 -26 26v52q0 26 26 26h102q30 0 45 11t15 49v372q0 38 -15 49t-45 11h-102q-26 0 -26 26 v52q0 26 26 26h799q103 0 179 -15t126.5 -42.5t75.5 -66.5t25 -88q0 -79 -65.5 -132t-199.5 -71q-16 -2 -20.5 -11.5t5.5 -21.5l64 -84q25 -32 59 -48t91 -16h54zM477 406q0 -26 26 -26h311q100 0 152 24t52 84t-52 84t-152 24h-311q-26 0 -26 -26v-164z"/>
<glyph glyph-name="S" unicode="S" horiz-adv-x="1162" d="M944 482q-20 0 -30 19q-19 33 -56 55.5t-85 36.5t-104 20t-112 6q-57 0 -108 -4.5t-89.5 -15.5t-60.5 -28.5t-22 -42.5q0 -31 34.5 -47t101.5 -21l370 -29q60 -5 120 -13.5t107 -29t76.5 -57.5t29.5 -98q0 -68 -36.5 -117t-100 -81t-150.5 -47.5t-188 -15.5q-44 0 -95 3 t-103 11.5t-102 22.5t-90 35q-22 13 -35 -10l-8 -15q-9 -19 -30 -19h-85q-26 0 -26 26v181q0 26 26 26h105q20 0 30 -19q23 -39 64.5 -65t94 -41.5t112 -22t119.5 -6.5q55 0 104.5 5t86.5 16.5t58.5 28.5t21.5 41q0 58 -124 69l-369 30q-62 5 -122.5 16t-109.5 34.5 t-79 61.5t-30 96q0 49 21 87t57 65.5t83.5 46t100 30t106.5 16t104 4.5q58 0 112.5 -5t101.5 -14t86 -22t65 -28q24 -13 34 10l7 14q10 19 31 19h85q26 0 26 -26v-166q0 -26 -26 -26h-105z"/>
<glyph glyph-name="T" unicode="T" horiz-adv-x="1254" d="M1194 700q26 0 26 -26v-234q0 -26 -26 -26h-79q-25 0 -27 26q-4 42 -10.5 72t-20.5 48.5t-37.5 27t-61.5 8.5h-185q-26 0 -26 -26v-406q0 -38 15 -49t45 -11h102q26 0 26 -26v-52q0 -26 -26 -26h-564q-26 0 -26 26v52q0 26 26 26h102q30 0 45 11t15 49v406q0 26 -26 26 h-185q-38 0 -61.5 -8.5t-37.5 -27t-20.5 -48.5t-10.5 -72q-2 -26 -27 -26h-79q-26 0 -26 26v234q0 26 26 26h1134z"/>
<glyph glyph-name="U" unicode="U" horiz-adv-x="1404" d="M1254 596q-32 0 -45 -11.5t-13 -50.5v-192q0 -92 -26 -161t-83.5 -115.5t-151 -70t-228.5 -23.5t-230 23.5t-154.5 70t-87 115.5t-27.5 161v192q0 39 -13 50.5t-45 11.5h-98q-26 0 -26 26v52q0 26 26 26h552q26 0 26 -26v-52q0 -26 -26 -26h-98q-32 0 -45 -11.5 t-13 -50.5v-174q0 -68 14.5 -121t49 -89t92 -55t143.5 -19t143.5 20.5t92 57.5t49 89.5t14.5 116.5v174q0 39 -13 50.5t-45 11.5h-98q-26 0 -26 26v52q0 26 26 26h462q26 0 26 -26v-52q0 -26 -26 -26h-98z"/>
<glyph glyph-name="V" unicode="V" horiz-adv-x="1296" d="M25 596q-17 0 -17 26v52q0 26 26 26h520q26 0 26 -26v-52q0 -26 -26 -26h-79q-32 0 -40.5 -16.5t10.5 -44.5l241 -354q18 -26 36 0l237 354q16 23 8.5 42t-39.5 19h-81q-26 0 -26 26v52q0 26 26 26h415q26 0 26 -26v-52q0 -26 -17 -26h-17q-26 0 -45.5 -3t-34.5 -10.5 t-28 -20.5t-26 -32l-348 -513q-11 -17 -31 -17h-178q-19 0 -31 16l-356 514q-14 19 -26.5 32t-27.5 20.5t-34.5 10.5t-45.5 3h-17z"/>
<glyph glyph-name="W" unicode="W" horiz-adv-x="1834" d="M1798 700q26 0 26 -26v-52q0 -26 -17 -26h-17q-26 0 -46.5 -3t-36 -10.5t-28 -20t-23.5 -32.5l-277 -512q-11 -18 -31 -18h-192q-21 0 -31 18l-189 340q-8 14 -18 14t-18 -14l-183 -340q-11 -18 -31 -18h-192q-21 0 -31 18l-285 512q-11 20 -23.5 32.5t-28 20t-36 10.5 t-46.5 3h-8q-26 0 -26 26v52q0 26 26 26h504q26 0 26 -26v-52q0 -26 -26 -26h-69q-30 0 -37 -17.5t7 -43.5l183 -343q8 -14 18 -14t18 14l169 322q5 10 5 18.5t-7 17.5q-37 46 -101 46q-26 0 -26 26v52q0 26 26 26h476q26 0 26 -26v-52q0 -26 -26 -26h-69q-30 0 -37 -17.5 t7 -43.5l183 -343q8 -14 18 -14t18 14l179 343q12 23 5.5 42t-36.5 19h-75q-26 0 -26 26v52q0 26 26 26h403z"/>
<glyph glyph-name="X" unicode="X" horiz-adv-x="1301" d="M1278 104q13 0 13 -26v-52q0 -26 -26 -26h-568q-26 0 -26 26v52q0 26 26 26h59q30 0 37.5 13.5t-15.5 30.5l-168 118q-18 12 -36 0l-165 -118q-23 -17 -15.5 -30.5t37.5 -13.5h53q26 0 26 -26v-52q0 -26 -26 -26h-448q-26 0 -26 26v52q0 26 12 26h11q38 0 72.5 9t66.5 30 l294 187q26 18 0 36l-270 190q-31 22 -63 31t-74 9q-26 0 -26 26v52q0 26 26 26h571q26 0 26 -26v-52q0 -26 -26 -26h-62q-30 0 -37.5 -13.5t15.5 -30.5l152 -107q18 -12 36 0l153 107q23 16 15.5 30t-37.5 14h-61q-26 0 -26 26v52q0 26 26 26h429q26 0 26 -26v-52 q0 -26 -11 -26h-12q-38 0 -68 -9.5t-61 -29.5l-265 -176q-13 -8 -13 -18t12 -18l287 -201q31 -22 63 -31t74 -9h13z"/>
<glyph glyph-name="Y" unicode="Y" horiz-adv-x="1260" d="M780 267q-14 -13 -14 -32v-71q0 -38 15 -49t45 -11h102q26 0 26 -26v-52q0 -26 -26 -26h-564q-26 0 -26 26v52q0 26 26 26h102q30 0 45 11t15 49v59q0 19 -14 32l-321 290q-35 31 -71.5 41t-85.5 10q-24 0 -24 26v52q0 26 26 26h530q26 0 26 -26v-52q0 -26 -26 -26h-66 q-28 0 -34 -16t14 -33l197 -175q18 -15 36 1l193 174q20 17 14 33t-34 16h-66q-26 0 -26 26v52q0 26 26 26h404q26 0 26 -26v-52q0 -15 -5 -20.5t-19 -5.5q-24 0 -43.5 -2t-37 -7.5t-33.5 -15.5t-33 -26z"/>
<glyph glyph-name="Z" unicode="Z" horiz-adv-x="1190" d="M443 136q-16 -11 -13 -21.5t23 -10.5h396q42 0 68 8t40.5 27.5t21 52.5t10.5 82q2 26 27 26h89q26 0 26 -26v-248q0 -26 -26 -26h-1031q-26 0 -26 26v48q0 19 16 31l660 459q16 11 13 21.5t-23 10.5h-355q-42 0 -68 -8t-40.5 -27.5t-21 -52.5t-10.5 -82q-2 -26 -27 -26 h-89q-26 0 -26 26v248q0 26 26 26h990q26 0 26 -26v-48q0 -19 -16 -31z"/>
<glyph glyph-name="bracketleft" unicode="[" horiz-adv-x="463" d="M421 664q0 -26 -26 -26h-109q-26 0 -26 -26v-524q0 -26 26 -26h109q26 0 26 -26v-36q0 -26 -26 -26h-289q-26 0 -26 26v700q0 26 26 26h289q26 0 26 -26v-36z"/>
<glyph glyph-name="backslash" unicode="\" horiz-adv-x="892" d="M211 790q20 0 32 -16l596 -812q10 -14 5 -23t-21 -9h-142q-20 0 -32 16l-596 812q-10 14 -5 23t21 9h142z"/>
<glyph glyph-name="bracketright" unicode="]" horiz-adv-x="463" d="M42 700q0 26 26 26h289q26 0 26 -26v-700q0 -26 -26 -26h-289q-26 0 -26 26v36q0 26 26 26h109q26 0 26 26v524q0 26 -26 26h-109q-26 0 -26 26v36z"/>
<glyph glyph-name="asciicircum" unicode="^" horiz-adv-x="692" d="M85 324q-16 0 -21 8.5t2 22.5l169 326q10 19 31 19h160q21 0 31 -19l169 -326q7 -14 2 -22.5t-21 -8.5h-98q-21 0 -30 19l-115 228q-8 14 -18 14t-18 -14l-115 -228q-9 -19 -30 -19h-98z"/>
<glyph glyph-name="underscore" unicode="_" horiz-adv-x="802" d="M0 -100q0 26 26 26h750q26 0 26 -26v-48q0 -26 -26 -26h-750q-26 0 -26 26v48z"/>
<glyph glyph-name="grave" unicode="`" horiz-adv-x="547" d="M326 960q21 0 31 -18l72 -125q8 -14 3 -22.5t-21 -8.5h-44q-17 0 -33 10l-189 132q-15 11 -12 21.5t22 10.5h171z"/>
<glyph glyph-name="a" unicode="a" d="M1370 104q17 0 17 -26v-52q0 -26 -26 -26h-520q-26 0 -26 26v52q0 26 26 26h79q32 0 40 18t-10 43l-26 36q-13 16 -32 16h-488q-19 0 -31 -16l-27 -36q-19 -25 -10.5 -43t40.5 -18h83q26 0 26 -26v-52q0 -26 -26 -26h-419q-26 0 -26 26v52q0 26 17 26h17q25 0 43.5 3 t33.5 10.5t28.5 20t28.5 32.5l277 365q20 26 12 43.5t-42 17.5h-50q-26 0 -26 26v52q0 26 26 26h430q20 0 32 -16l378 -514q14 -20 27.5 -32.5t29 -20t34 -10.5t43.5 -3h17zM796 321q17 0 21.5 9t-5.5 23l-144 196q-8 11 -18 11t-18 -11l-146 -196q-10 -14 -5.5 -23t20.5 -9 h295z"/>
<glyph glyph-name="b" unicode="b" horiz-adv-x="1331" d="M1058 358q64 -8 108.5 -23t72.5 -36t40.5 -47.5t12.5 -56.5q0 -88 -99 -141.5t-297 -53.5h-821q-26 0 -26 26v52q0 26 26 26h102q30 0 45 11t15 49v372q0 38 -15 49t-45 11h-102q-26 0 -26 26v52q0 26 26 26h795q94 0 165.5 -13t119.5 -37t72.5 -57t24.5 -73 q0 -26 -11 -51.5t-35 -46.5t-60.5 -36t-87.5 -21q-10 -1 -10 -3t10 -4zM477 432q0 -26 26 -26h308q97 0 137.5 23t40.5 72t-40.5 72t-137.5 23h-308q-26 0 -26 -26v-138zM837 104q98 0 143 23.5t45 76.5t-45 76.5t-143 23.5h-334q-26 0 -26 -26v-148q0 -26 26 -26h334z"/>
<glyph glyph-name="c" unicode="c" horiz-adv-x="1205" d="M1014 446q-21 0 -30 20q-38 82 -115 120t-206 38q-97 0 -164.5 -19.5t-110 -55t-61.5 -86t-19 -113.5t19 -113.5t61.5 -86t110 -55t164.5 -19.5q129 0 216 38t118 127q5 11 11.5 16.5t18.5 5.5h104q14 0 20.5 -7.5t1.5 -21.5q-45 -137 -175 -199.5t-351 -62.5 q-134 0 -242.5 22.5t-184.5 69t-117 118t-41 168.5t42 168.5t118 118t181.5 69t232.5 22.5q115 0 198 -18.5t140 -54.5q23 -14 36 8l11 19q11 18 32 18h93q26 0 26 -26v-202q0 -26 -26 -26h-112z"/>
<glyph glyph-name="d" unicode="d" horiz-adv-x="1376" d="M704 700q315 0 472.5 -81t157.5 -264q0 -95 -39.5 -162.5t-118 -110.5t-197 -62.5t-275.5 -19.5h-629q-26 0 -26 26v52q0 26 26 26h102q30 0 45 11t15 49v372q0 38 -14 49t-46 11h-102q-26 0 -26 26v52q0 26 26 26h629zM1068 355q0 62 -20 107.5t-64.5 75t-116 44 t-173.5 14.5h-191q-26 0 -26 -26v-440q0 -26 26 -26h191q102 0 173.5 14.5t116 45t64.5 78t20 113.5z"/>
<glyph glyph-name="e" unicode="e" horiz-adv-x="1304" d="M503 596q-26 0 -26 -26v-137q0 -26 26 -26h184q34 0 55.5 5t33.5 15.5t16.5 28t4.5 41.5q0 23 26 23h68q26 0 26 -26v-278q0 -26 -26 -26h-68q-26 0 -26 23q0 24 -4.5 41.5t-16.5 28t-33.5 15.5t-55.5 5h-184q-26 0 -26 -26v-147q0 -26 26 -26h439q45 0 74.5 10t47 31 t26 52.5t12.5 73.5q2 25 27 25h79q26 0 26 -26v-244q0 -26 -26 -26h-1133q-26 0 -26 26v52q0 26 26 26h102q30 0 45 11t15 49v372q0 38 -15 49t-45 11h-102q-26 0 -26 26v52q0 26 26 26h1123q26 0 26 -26v-214q0 -26 -26 -26h-79q-25 0 -27 25q-5 38 -13.5 64t-26 42.5 t-46.5 23.5t-74 7h-429z"/>
<glyph glyph-name="f" unicode="f" horiz-adv-x="1252" d="M1198 700q26 0 26 -26v-214q0 -26 -26 -26h-89q-25 0 -27 25q-5 38 -13 64t-24.5 42.5t-43.5 23.5t-69 7h-429q-26 0 -26 -26v-143q0 -26 26 -26h184q34 0 55.5 5t33.5 15.5t16.5 28t4.5 41.5q0 23 26 23h68q26 0 26 -26v-278q0 -26 -26 -26h-68q-26 0 -26 25 q0 24 -4.5 40.5t-16.5 27t-33.5 15.5t-55.5 5h-184q-26 0 -26 -26v-107q0 -38 15 -49t45 -11h102q26 0 26 -26v-52q0 -26 -26 -26h-564q-26 0 -26 26v52q0 26 26 26h102q30 0 45 11t15 49v372q0 38 -15 49t-45 11h-102q-26 0 -26 26v52q0 26 26 26h1123z"/>
<glyph glyph-name="g" unicode="g" horiz-adv-x="1337" d="M1285 386q26 0 26 -26v-58q0 -26 -25 -26h-25q-19 0 -30.5 -2.5t-18 -9t-9 -18t-2.5 -30.5v-190q0 -26 -26 -26h-89q-23 0 -29 22l-14 48q-10 31 -34 10q-27 -24 -62 -43.5t-80 -34t-101.5 -22.5t-125.5 -8q-139 0 -249.5 22.5t-188 69t-119 117.5t-41.5 169 q0 97 41.5 168.5t119 118t188 69t249.5 22.5q120 0 205 -19t141 -54q23 -14 36 8l11 19q11 18 32 18h93q26 0 26 -26v-201q0 -26 -26 -26h-112q-21 0 -30 20q-37 76 -119.5 116.5t-228.5 40.5q-102 0 -171 -19t-111 -54.5t-60 -86t-18 -114.5t18.5 -114.5t61 -86t111 -54.5 t169.5 -19q80 0 140.5 16.5t101 41.5t61 54t20.5 54q0 34 -47 34h-149q-26 0 -26 26v58q0 26 26 26h490z"/>
<glyph glyph-name="h" unicode="h" horiz-adv-x="1502" d="M1265 164q0 -38 15 -49t45 -11h102q26 0 26 -26v-52q0 -26 -26 -26h-564q-26 0 -26 26v52q0 26 26 26h102q30 0 45 11t15 49v114q0 26 -26 26h-496q-26 0 -26 -26v-114q0 -38 15 -49t45 -11h102q26 0 26 -26v-52q0 -26 -26 -26h-564q-26 0 -26 26v52q0 26 26 26h102 q30 0 45 11t15 49v372q0 38 -15 49t-45 11h-102q-26 0 -26 26v52q0 26 26 26h564q26 0 26 -26v-52q0 -26 -26 -26h-102q-30 0 -45 -11t-15 -49v-102q0 -26 26 -26h496q26 0 26 26v102q0 38 -15 49t-45 11h-102q-26 0 -26 26v52q0 26 26 26h564q26 0 26 -26v-52 q0 -26 -26 -26h-102q-30 0 -45 -11t-15 -49v-372z"/>
<glyph glyph-name="i" unicode="i" horiz-adv-x="714" d="M477 164q0 -38 15 -49t45 -11h102q26 0 26 -26v-52q0 -26 -26 -26h-564q-26 0 -26 26v52q0 26 26 26h102q30 0 45 11t15 49v372q0 38 -15 49t-45 11h-102q-26 0 -26 26v52q0 26 26 26h564q26 0 26 -26v-52q0 -26 -26 -26h-102q-30 0 -45 -11t-15 -49v-372z"/>
<glyph glyph-name="j" unicode="j" horiz-adv-x="1119" d="M160 225q-24 16 -12 -8q15 -30 41.5 -54.5t61 -42.5t74.5 -28t81 -10q49 0 96.5 15.5t84.5 48.5t59.5 83.5t22.5 120.5v186q0 38 -15 49t-45 11h-102q-26 0 -26 26v52q0 26 26 26h560q26 0 26 -26v-52q0 -26 -26 -26h-98q-30 0 -45 -11t-15 -49v-224q0 -86 -37.5 -150 t-99.5 -106t-141 -63t-161 -21q-84 0 -164 21t-143 60.5t-101.5 95.5t-38.5 126q0 46 16.5 81.5t43.5 58.5t60.5 35t67.5 12q28 0 54.5 -8.5t47 -25t32.5 -42t12 -58.5q0 -43 -20 -72t-50 -42.5t-64.5 -11t-62.5 22.5z"/>
<glyph glyph-name="k" unicode="k" horiz-adv-x="1430" d="M1428 26q0 -26 -26 -26h-573q-26 0 -26 26v52q0 26 26 26h58q32 0 33 17.5t-20 34.5l-202 168q-15 14 -35 5l-166 -73q-20 -9 -20 -31v-61q0 -38 15 -49t45 -11h88q26 0 26 -26v-52q0 -26 -26 -26h-550q-26 0 -26 26v52q0 26 26 26h102q30 0 45 11t15 49v372q0 38 -15 49 t-45 11h-102q-26 0 -26 26v52q0 26 26 26h550q26 0 26 -26v-52q0 -26 -26 -26h-88q-30 0 -45 -11t-15 -49v-134q0 -14 8 -19.5t22 0.5l383 172q17 7 23 14.5t5 13.5t-8 9.5t-16 3.5h-59q-26 0 -26 26v52q0 26 26 26h531q26 0 26 -26v-52q0 -26 -24 -26h-24q-24 0 -44.5 -2 t-41 -6.5t-42 -12.5t-46.5 -19l-250 -111q-14 -6 -15 -16t10 -20l287 -241q21 -18 42 -30t44 -19.5t49 -11t58 -3.5h7q26 0 26 -26v-52z"/>
<glyph glyph-name="l" unicode="l" horiz-adv-x="1187" d="M1122 316q26 0 26 -26v-264q0 -26 -26 -26h-1047q-26 0 -26 26v52q0 26 26 26h102q30 0 45 11t15 49v372q0 38 -15 49t-45 11h-102q-26 0 -26 26v52q0 26 26 26h564q26 0 26 -26v-52q0 -26 -26 -26h-102q-30 0 -45 -11t-15 -49v-406q0 -26 26 -26h323q53 0 87.5 10.5 t56 33.5t31.5 58t15 85q3 25 27 25h79z"/>
<glyph glyph-name="m" unicode="m" horiz-adv-x="1742" d="M1505 165q0 -38 15 -49t45 -11h102q26 0 26 -26v-52q0 -26 -26 -26h-560q-26 0 -26 26v52q0 26 26 26h98q30 0 45 11t15 49v346q0 19 -10.5 22.5t-21.5 -13.5l-325 -503q-11 -17 -31 -17h-102q-20 0 -31 17l-325 503q-11 17 -21.5 13.5t-10.5 -22.5v-347q0 -38 15 -49 t45 -11h98q26 0 26 -26v-52q0 -26 -26 -26h-470q-26 0 -26 26v52q0 26 26 26h102q30 0 45 11t15 49v372q0 38 -15 49t-45 11h-102q-26 0 -26 26v52q0 26 26 26h479q20 0 31 -17l274 -425q8 -13 18 -13t18 13l278 425q11 17 31 17h463q26 0 26 -26v-52q0 -26 -26 -26h-102 q-30 0 -45 -11t-15 -49v-371z"/>
<glyph glyph-name="n" unicode="n" horiz-adv-x="1455" d="M1403 701q26 0 26 -26v-52q0 -26 -26 -26h-98q-30 0 -45 -11t-15 -49v-511q0 -26 -26 -26h-204q-19 0 -32 12l-564 491q-13 11 -22.5 7t-9.5 -21v-325q0 -38 15 -49t45 -11h102q26 0 26 -26v-52q0 -26 -26 -26h-474q-26 0 -26 26v52q0 26 26 26h102q30 0 45 11t15 49v372 q0 38 -15 49t-45 11h-102q-26 0 -26 26v52q0 26 26 26h444q19 0 32 -12l512 -446q13 -11 22.5 -7t9.5 21v281q0 38 -15 49t-45 11h-102q-26 0 -26 26v52q0 26 26 26h470z"/>
<glyph glyph-name="o" unicode="o" horiz-adv-x="1314" d="M657 -28q-146 0 -260.5 22.5t-193.5 69t-120 117.5t-41 169q0 97 41 168.5t120 118t193.5 69t260.5 22.5t260.5 -22.5t193 -69t120 -118t41.5 -168.5q0 -98 -41.5 -169t-120 -117.5t-193 -69t-260.5 -22.5zM308 350q0 -64 18 -114.5t59 -86t107.5 -54.5t164.5 -19 q97 0 164 19t108 54.5t59 86t18 114.5t-16.5 114.5t-56.5 86t-107.5 54.5t-168.5 19q-98 0 -164.5 -19t-107.5 -54.5t-59 -86t-18 -114.5z"/>
<glyph glyph-name="p" unicode="p" horiz-adv-x="1293" d="M858 700q103 0 179 -16t126.5 -44.5t75.5 -68.5t25 -89t-25 -89t-75.5 -68.5t-126.5 -44.5t-179 -16h-355q-26 0 -26 -26v-74q0 -38 15 -49t45 -11h102q26 0 26 -26v-52q0 -26 -26 -26h-564q-26 0 -26 26v52q0 26 26 26h102q30 0 45 11t15 49v372q0 38 -15 49t-45 11 h-102q-26 0 -26 26v52q0 26 26 26h783zM1002 482q0 63 -50 88.5t-154 25.5h-295q-26 0 -26 -26v-176q0 -26 26 -26h295q104 0 154 25.5t50 88.5z"/>
<glyph glyph-name="q" unicode="q" horiz-adv-x="1314" d="M1048 -86q43 0 80 5t62 14q24 7 35 -12l18 -35q13 -23 -9 -35q-20 -11 -47.5 -19t-59 -14t-66 -9t-68.5 -3q-56 0 -107 9.5t-93.5 28t-75.5 46t-51 62.5q-10 20 -31 20q-141 2 -251.5 25.5t-186.5 70t-115.5 116.5t-39.5 166q0 97 41 168.5t120 118t193.5 69t260.5 22.5 t260.5 -22.5t193 -69t120 -118t41.5 -168.5q0 -149 -95 -237t-273 -121q-14 -3 -20.5 -10.5t0.5 -16.5q23 -29 66.5 -40t97.5 -11zM308 350q0 -64 18 -114.5t59 -86t107.5 -54.5t164.5 -19q97 0 164 19t108 54.5t59 86t18 114.5t-16.5 114.5t-56.5 86t-107.5 54.5t-168.5 19 q-98 0 -164.5 -19t-107.5 -54.5t-59 -86t-18 -114.5z"/>
<glyph glyph-name="r" unicode="r" horiz-adv-x="1337" d="M1268 104q26 0 26 -26v-52q0 -26 -26 -26h-320q-20 0 -32 16l-184 244q-12 16 -31 16h-198q-26 0 -26 -26v-86q0 -38 15 -49t45 -11h102q26 0 26 -26v-52q0 -26 -26 -26h-564q-26 0 -26 26v52q0 26 26 26h102q30 0 45 11t15 49v372q0 38 -15 49t-45 11h-102q-26 0 -26 26 v52q0 26 26 26h799q103 0 179 -15t126.5 -42.5t75.5 -66.5t25 -88q0 -79 -65.5 -132t-199.5 -71q-16 -2 -20.5 -11.5t5.5 -21.5l64 -84q25 -32 59 -48t91 -16h54zM477 406q0 -26 26 -26h311q100 0 152 24t52 84t-52 84t-152 24h-311q-26 0 -26 -26v-164z"/>
<glyph glyph-name="s" unicode="s" horiz-adv-x="1162" d="M944 482q-20 0 -30 19q-19 33 -56 55.5t-85 36.5t-104 20t-112 6q-57 0 -108 -4.5t-89.5 -15.5t-60.5 -28.5t-22 -42.5q0 -31 34.5 -47t101.5 -21l370 -29q60 -5 120 -13.5t107 -29t76.5 -57.5t29.5 -98q0 -68 -36.5 -117t-100 -81t-150.5 -47.5t-188 -15.5q-44 0 -95 3 t-103 11.5t-102 22.5t-90 35q-22 13 -35 -10l-8 -15q-9 -19 -30 -19h-85q-26 0 -26 26v181q0 26 26 26h105q20 0 30 -19q23 -39 64.5 -65t94 -41.5t112 -22t119.5 -6.5q55 0 104.5 5t86.5 16.5t58.5 28.5t21.5 41q0 58 -124 69l-369 30q-62 5 -122.5 16t-109.5 34.5 t-79 61.5t-30 96q0 49 21 87t57 65.5t83.5 46t100 30t106.5 16t104 4.5q58 0 112.5 -5t101.5 -14t86 -22t65 -28q24 -13 34 10l7 14q10 19 31 19h85q26 0 26 -26v-166q0 -26 -26 -26h-105z"/>
<glyph glyph-name="t" unicode="t" horiz-adv-x="1254" d="M1194 700q26 0 26 -26v-234q0 -26 -26 -26h-79q-25 0 -27 26q-4 42 -10.5 72t-20.5 48.5t-37.5 27t-61.5 8.5h-185q-26 0 -26 -26v-406q0 -38 15 -49t45 -11h102q26 0 26 -26v-52q0 -26 -26 -26h-564q-26 0 -26 26v52q0 26 26 26h102q30 0 45 11t15 49v406q0 26 -26 26 h-185q-38 0 -61.5 -8.5t-37.5 -27t-20.5 -48.5t-10.5 -72q-2 -26 -27 -26h-79q-26 0 -26 26v234q0 26 26 26h1134z"/>
<glyph glyph-name="u" unicode="u" horiz-adv-x="1404" d="M1254 596q-32 0 -45 -11.5t-13 -50.5v-192q0 -92 -26 -161t-83.5 -115.5t-151 -70t-228.5 -23.5t-230 23.5t-154.5 70t-87 115.5t-27.5 161v192q0 39 -13 50.5t-45 11.5h-98q-26 0 -26 26v52q0 26 26 26h552q26 0 26 -26v-52q0 -26 -26 -26h-98q-32 0 -45 -11.5 t-13 -50.5v-174q0 -68 14.5 -121t49 -89t92 -55t143.5 -19t143.5 20.5t92 57.5t49 89.5t14.5 116.5v174q0 39 -13 50.5t-45 11.5h-98q-26 0 -26 26v52q0 26 26 26h462q26 0 26 -26v-52q0 -26 -26 -26h-98z"/>
<glyph glyph-name="v" unicode="v" horiz-adv-x="1296" d="M25 596q-17 0 -17 26v52q0 26 26 26h520q26 0 26 -26v-52q0 -26 -26 -26h-79q-32 0 -40.5 -16.5t10.5 -44.5l241 -354q18 -26 36 0l237 354q16 23 8.5 42t-39.5 19h-81q-26 0 -26 26v52q0 26 26 26h415q26 0 26 -26v-52q0 -26 -17 -26h-17q-26 0 -45.5 -3t-34.5 -10.5 t-28 -20.5t-26 -32l-348 -513q-11 -17 -31 -17h-178q-19 0 -31 16l-356 514q-14 19 -26.5 32t-27.5 20.5t-34.5 10.5t-45.5 3h-17z"/>
<glyph glyph-name="w" unicode="w" horiz-adv-x="1834" d="M1798 700q26 0 26 -26v-52q0 -26 -17 -26h-17q-26 0 -46.5 -3t-36 -10.5t-28 -20t-23.5 -32.5l-277 -512q-11 -18 -31 -18h-192q-21 0 -31 18l-189 340q-8 14 -18 14t-18 -14l-183 -340q-11 -18 -31 -18h-192q-21 0 -31 18l-285 512q-11 20 -23.5 32.5t-28 20t-36 10.5 t-46.5 3h-8q-26 0 -26 26v52q0 26 26 26h504q26 0 26 -26v-52q0 -26 -26 -26h-69q-30 0 -37 -17.5t7 -43.5l183 -343q8 -14 18 -14t18 14l169 322q5 10 5 18.5t-7 17.5q-37 46 -101 46q-26 0 -26 26v52q0 26 26 26h476q26 0 26 -26v-52q0 -26 -26 -26h-69q-30 0 -37 -17.5 t7 -43.5l183 -343q8 -14 18 -14t18 14l179 343q12 23 5.5 42t-36.5 19h-75q-26 0 -26 26v52q0 26 26 26h403z"/>
<glyph glyph-name="x" unicode="x" horiz-adv-x="1301" d="M1278 104q13 0 13 -26v-52q0 -26 -26 -26h-568q-26 0 -26 26v52q0 26 26 26h59q30 0 37.5 13.5t-15.5 30.5l-168 118q-18 12 -36 0l-165 -118q-23 -17 -15.5 -30.5t37.5 -13.5h53q26 0 26 -26v-52q0 -26 -26 -26h-448q-26 0 -26 26v52q0 26 12 26h11q38 0 72.5 9t66.5 30 l294 187q26 18 0 36l-270 190q-31 22 -63 31t-74 9q-26 0 -26 26v52q0 26 26 26h571q26 0 26 -26v-52q0 -26 -26 -26h-62q-30 0 -37.5 -13.5t15.5 -30.5l152 -107q18 -12 36 0l153 107q23 16 15.5 30t-37.5 14h-61q-26 0 -26 26v52q0 26 26 26h429q26 0 26 -26v-52 q0 -26 -11 -26h-12q-38 0 -68 -9.5t-61 -29.5l-265 -176q-13 -8 -13 -18t12 -18l287 -201q31 -22 63 -31t74 -9h13z"/>
<glyph glyph-name="y" unicode="y" horiz-adv-x="1260" d="M780 267q-14 -13 -14 -32v-71q0 -38 15 -49t45 -11h102q26 0 26 -26v-52q0 -26 -26 -26h-564q-26 0 -26 26v52q0 26 26 26h102q30 0 45 11t15 49v59q0 19 -14 32l-321 290q-35 31 -71.5 41t-85.5 10q-24 0 -24 26v52q0 26 26 26h530q26 0 26 -26v-52q0 -26 -26 -26h-66 q-28 0 -34 -16t14 -33l197 -175q18 -15 36 1l193 174q20 17 14 33t-34 16h-66q-26 0 -26 26v52q0 26 26 26h404q26 0 26 -26v-52q0 -15 -5 -20.5t-19 -5.5q-24 0 -43.5 -2t-37 -7.5t-33.5 -15.5t-33 -26z"/>
<glyph glyph-name="z" unicode="z" horiz-adv-x="1190" d="M443 136q-16 -11 -13 -21.5t23 -10.5h396q42 0 68 8t40.5 27.5t21 52.5t10.5 82q2 26 27 26h89q26 0 26 -26v-248q0 -26 -26 -26h-1031q-26 0 -26 26v48q0 19 16 31l660 459q16 11 13 21.5t-23 10.5h-355q-42 0 -68 -8t-40.5 -27.5t-21 -52.5t-10.5 -82q-2 -26 -27 -26 h-89q-26 0 -26 26v248q0 26 26 26h990q26 0 26 -26v-48q0 -19 -16 -31z"/>
<glyph glyph-name="braceleft" unicode="{" horiz-adv-x="510" d="M341 508q0 -30 -10 -53t-27.5 -41t-41 -31t-51.5 -21q-27 -7 0 -14q57 -17 93.5 -52.5t36.5 -98.5q0 -30 3.5 -53.5t14.5 -40.5t30 -27t51 -13q26 -2 26 -26v-37q0 -26 -27 -26q-76 1 -131.5 11t-91.5 32.5t-53.5 60.5t-17.5 96q0 34 -4 57t-13.5 38t-26.5 23t-42 10 q-26 2 -26 26v54q0 24 26 26q25 2 42 9.5t26.5 22t13.5 37t4 54.5q0 56 17.5 93t53.5 59.5t91.5 32t131.5 10.5q27 0 27 -26v-36q0 -23 -34 -28q-32 -3 -50 -13t-27 -26.5t-11.5 -38.5t-2.5 -50z"/>
<glyph glyph-name="bar" unicode="|" horiz-adv-x="300" d="M106 -120q-26 0 -26 26v888q0 26 26 26h88q26 0 26 -26v-888q0 -26 -26 -26h-88z"/>
<glyph glyph-name="braceright" unicode="}" horiz-adv-x="510" d="M169 508q0 28 -2.5 50t-11.5 38.5t-27 26.5t-50 13q-34 5 -34 28v36q0 26 27 26q76 -1 131.5 -10.5t91.5 -32t53.5 -59.5t17.5 -93q0 -32 4 -54.5t13.5 -37t26 -22t42.5 -9.5t26 -26v-54q0 -24 -26 -26t-42.5 -10t-26 -23t-13.5 -38t-4 -57q0 -58 -17.5 -96t-53.5 -60.5 t-91.5 -32.5t-131.5 -11q-27 0 -27 26v37q0 24 26 26q31 3 50.5 13t30.5 27t14.5 40.5t3.5 53.5q0 63 36.5 98.5t93.5 52.5q27 7 0 14q-56 16 -93 51.5t-37 94.5z"/>
<glyph glyph-name="asciitilde" unicode="~" horiz-adv-x="812" d="M106 281q-26 0 -26 26v11q0 40 13.5 69t36 47.5t52.5 27t62 8.5q56 0 104.5 -10.5t90.5 -22.5t78.5 -22.5t68.5 -10.5q24 0 34.5 6.5t13.5 20.5q3 12 9 18.5t18 6.5h45q26 0 26 -26v-11q0 -40 -11 -69t-30.5 -47.5t-47 -27t-59.5 -8.5q-58 0 -108 10.5t-94 22.5 l-82.5 22.5t-73.5 10.5q-24 0 -34.5 -6.5t-13.5 -20.5q-3 -12 -9 -18.5t-18 -6.5h-45z"/>
<glyph glyph-name="exclamdown" unicode="¡" horiz-adv-x="420" d="M210 537q29 0 53 -9.5t41.5 -25.5t27 -38.5t9.5 -47.5t-9.5 -47t-27 -38t-41.5 -25.5t-53 -9.5t-53 9.5t-41 25.5t-26.5 38t-9.5 47t9.5 47.5t26.5 38.5t41 25.5t53 9.5zM210 -204q-79 0 -122.5 34.5t-43.5 91.5q0 30 11 65t25 70l63 155q7 20 30 20h74q23 0 30 -20 l63 -155q14 -34 25 -69.5t11 -65.5q0 -57 -44 -91.5t-122 -34.5z"/>
<glyph glyph-name="cent" unicode="¢" horiz-adv-x="903" d="M500 191q85 0 135 19.5t78 61.5q10 18 31 18h65q15 0 21 -8.5t-2 -21.5q-18 -32 -46 -60t-71 -50t-102.5 -34.5t-138.5 -12.5q-17 0 -25 -5.5t-11 -16.5l-20 -67q-8 -24 -32 -18l-30 8q-25 6 -19 31l14 47q8 26 -20 31q-63 10 -114 29.5t-87 49.5t-56 70.5t-20 92.5 q0 66 31.5 114t87.5 78.5t133 45t168 14.5q15 0 22.5 5.5t10.5 16.5l17 57q8 24 32 18l30 -8q25 -6 19 -31l-11 -38q-8 -26 21 -31q114 -19 178 -65t64 -105q0 -24 -11 -42t-28.5 -29.5t-39.5 -17t-45 -5.5q-21 0 -40.5 5t-35 14t-24.5 23t-9 32q0 31 28 51.5t78 12.5 q8 -2 9.5 0t-5.5 6q-23 14 -61 24t-86 16q-24 1 -31 -21l-79 -274q-4 -14 2.5 -22t24.5 -8zM250 355q0 -48 26 -84.5t80 -56.5q26 -11 33 17l74 257q4 14 -7 22t-34 4q-87 -14 -129.5 -56t-42.5 -103z"/>
<glyph glyph-name="sterling" unicode="£" horiz-adv-x="1122" d="M1038 266q26 0 26 -26v-214q0 -26 -26 -26h-954q-26 0 -26 26v39q0 21 23 29q34 11 57.5 31t37.5 42.5t20.5 45.5t6.5 41q0 9 -6.5 11t-19.5 2h-89q-26 0 -26 26v52q0 26 26 26h31q17 0 21.5 9t-5.5 23q-16 21 -27.5 44t-11.5 53q0 58 39.5 100.5t103.5 70.5t145.5 41.5 t165.5 13.5q89 0 177 -15t158 -45t113.5 -74.5t43.5 -102.5q0 -26 -10.5 -48.5t-29.5 -39.5t-46.5 -27t-61.5 -10q-26 0 -51 6.5t-44.5 19.5t-31 32t-11.5 43q0 23 9 40t23.5 27.5t33.5 15.5t40 4q36 -2 5 14q-51 25 -117.5 37.5t-167.5 12.5q-65 0 -108.5 -9.5t-69.5 -25.5 t-37 -37t-11 -44q0 -34 11 -58.5t23 -50.5q9 -20 30 -20h230q26 0 26 -26v-52q0 -26 -26 -26h-214q-22 0 -28 -24q-9 -38 -31 -70t-54 -52q-28 -17 3 -17h426q51 0 84 7t53 23t29 42t14 65q2 25 27 25h79z"/>
<glyph glyph-name="currency" unicode="¤" horiz-adv-x="842" d="M769 351q0 -40 -12 -72t-35 -57q-20 -20 1 -36l37 -27q24 -17 1 -37l-74 -61q-18 -15 -37 -1l-97 70q-13 11 -33 9q-47 -6 -100 -6t-98 6q-20 2 -34 -9l-96 -70q-19 -14 -37 1l-74 61q-23 20 1 37l36 27q22 16 2 36q-23 25 -35 57t-12 72t12 72t35 57q19 21 -2 36l-36 27 q-11 8 -11.5 18t10.5 19l74 61q18 15 37 1l96 -70q15 -11 34 -8q23 2 47.5 3.5t50.5 1.5q53 0 100 -6q20 -2 33 9l97 70q19 14 37 -1l74 -61q23 -20 -1 -37l-36 -27q-21 -15 -4 -34q49 -51 49 -131zM265 351q0 -53 40 -87.5t115 -34.5q76 0 116.5 34.5t40.5 87.5t-40.5 87.5 t-116.5 34.5q-75 0 -115 -34.5t-40 -87.5z"/>
<glyph glyph-name="yen" unicode="¥" horiz-adv-x="1320" d="M1254 700q26 0 26 -26v-52q0 -14 -5 -20t-19 -6q-24 0 -43.5 -2t-37 -7.5t-33.5 -15.5t-33 -26l-167 -155q-17 -16 -15 -24t28 -8h147q26 0 26 -26v-10q0 -26 -26 -26h-242q-10 0 -19 -4.5t-26 -20.5q-16 -16 -9 -25.5t21 -9.5h275q26 0 26 -26v-10q0 -26 -26 -26h-280 q-13 0 -19.5 -4t-6.5 -18q0 -30 15 -39t45 -9h102q26 0 26 -26v-52q0 -26 -26 -26h-564q-26 0 -26 26v52q0 26 26 26h102q30 0 45 9t15 39q0 13 -6.5 17.5t-19.5 4.5h-280q-26 0 -26 26v10q0 26 26 26h267q16 0 21.5 8t-11.5 24q-20 18 -29.5 23t-19.5 5h-228q-26 0 -26 26 v10q0 26 26 26h130q26 0 28 8t-15 24l-172 155q-35 31 -71.5 41t-85.5 10q-24 0 -24 26v52q0 26 26 26h530q26 0 26 -26v-52q0 -26 -26 -26h-66q-28 0 -34 -16t14 -33l197 -175q18 -15 36 1l193 174q20 17 14 33t-34 16h-66q-26 0 -26 26v52q0 26 26 26h404z"/>
<glyph glyph-name="brokenbar" unicode="¦" horiz-adv-x="300" d="M106 420q-26 0 -26 26v348q0 26 26 26h88q26 0 26 -26v-348q0 -26 -26 -26h-88zM194 280q26 0 26 -26v-348q0 -26 -26 -26h-88q-26 0 -26 26v348q0 26 26 26h88z"/>
<glyph glyph-name="section" unicode="§" horiz-adv-x="1162" d="M944 482q-20 0 -30 19q-19 33 -56 55.5t-85 36.5t-104 20t-112 6q-57 0 -108 -4.5t-89.5 -15.5t-60.5 -28.5t-22 -42.5q0 -31 34.5 -47t101.5 -21l370 -29q60 -5 120 -13.5t107 -29t76.5 -57.5t29.5 -98q0 -68 -36.5 -117t-100 -81t-150.5 -47.5t-188 -15.5q-44 0 -95 3 t-103 11.5t-102 22.5t-90 35q-22 13 -35 -10l-8 -15q-9 -19 -30 -19h-85q-26 0 -26 26v181q0 26 26 26h105q20 0 30 -19q23 -39 64.5 -65t94 -41.5t112 -22t119.5 -6.5q55 0 104.5 5t86.5 16.5t58.5 28.5t21.5 41q0 58 -124 69l-369 30q-62 5 -122.5 16t-109.5 34.5 t-79 61.5t-30 96q0 49 21 87t57 65.5t83.5 46t100 30t106.5 16t104 4.5q58 0 112.5 -5t101.5 -14t86 -22t65 -28q24 -13 34 10l7 14q10 19 31 19h85q26 0 26 -26v-166q0 -26 -26 -26h-105zM162 487q-6 -32 6 -55t36 -39.5t57 -26t68 -12.5l520 -46q57 -5 98.5 -28t52.5 -64 q3 -11 7.5 -11t6.5 9q4 33 -5.5 56.5t-31 40t-52.5 26t-70 12.5l-515 45q-63 6 -108.5 31t-55.5 62q-3 11 -7.5 11t-6.5 -11z"/>
<glyph glyph-name="dieresis" unicode="¨" horiz-adv-x="673" d="M207 780q-51 0 -79 21.5t-28 65.5q0 43 28 64.5t79 21.5t78.5 -21.5t27.5 -64.5q0 -44 -27.5 -65.5t-78.5 -21.5zM467 780q-51 0 -79 21.5t-28 65.5q0 43 28 64.5t79 21.5t78.5 -21.5t27.5 -64.5q0 -44 -27.5 -65.5t-78.5 -21.5z"/>
<glyph glyph-name="copyright" unicode="©" horiz-adv-x="1312" d="M656 728q127 0 238 -21t192.5 -66.5t128.5 -117.5t47 -173t-47 -173t-128.5 -117.5t-192.5 -66.5t-238 -21q-128 0 -238.5 21t-192 66.5t-128.5 117.5t-47 173t47 173t128.5 117.5t192 66.5t238.5 21zM656 50q105 0 197 16t160 51.5t107.5 92.5t39.5 140 q0 82 -39.5 139.5t-107.5 93t-160 51.5t-197 16t-197 -16t-160 -51.5t-107.5 -93t-39.5 -139.5q0 -83 39.5 -140t107.5 -92.5t160 -51.5t197 -16zM896 404q-16 0 -24 14q-26 45 -72.5 63t-118.5 18q-114 0 -162 -39t-48 -112q0 -74 48 -113t162 -39q71 0 122.5 18.5 t79.5 63.5q8 14 24 14h52q11 0 16 -6t0 -17q-29 -69 -109 -105t-193 -36q-81 0 -148 13t-115.5 40t-75 68.5t-26.5 98.5t26.5 98t73.5 68t112.5 40t142.5 13q57 0 107 -10t84 -30q18 -10 28 6l4 6q7 13 24 13h47q20 0 20 -20v-108q0 -20 -20 -20h-61z"/>
<glyph glyph-name="ordfeminine" unicode="ª" horiz-adv-x="702" d="M628 453q9 0 9 -12v-34q0 -12 -12 -12h-227q-12 0 -12 12v34q0 12 12 12h30q12 0 16.5 6.5t-1.5 14.5l-3 5q-6 7 -15 7h-193q-10 0 -14 -6l-4 -6q-6 -8 -1.5 -14.5t16.5 -6.5h30q12 0 12 -12v-34q0 -12 -12 -12h-180q-12 0 -12 12v34q0 12 10 12h9q20 0 30.5 5t18.5 16 l107 144q7 10 3 17t-16 7h-12q-12 0 -12 12v34q0 12 12 12h179q10 0 14 -7l159 -219q8 -11 19 -16t30 -5h10zM373 544q8 0 10 4.5t-3 10.5l-45 61q-9 10 -17 -1l-44 -60q-8 -15 8 -15h91zM67 312q0 12 12 12h546q12 0 12 -12v-46q0 -12 -12 -12h-546q-12 0 -12 12v46z"/>
<glyph glyph-name="guillemotleft" unicode="«" horiz-adv-x="856" d="M380 575q21 12 36 -6l11 -13q16 -19 -2 -37l-154 -152q-18 -18 0 -36l154 -151q18 -18 2 -37l-11 -13q-15 -18 -36 -6l-309 184q-18 11 -18 32v18q0 21 18 32zM711 575q21 12 36 -6l11 -13q16 -19 -2 -37l-154 -152q-18 -18 0 -36l154 -151q18 -18 2 -37l-11 -13 q-15 -18 -36 -6l-309 184q-18 11 -18 32v18q0 21 18 32z"/>
<glyph glyph-name="registered" unicode="®" horiz-adv-x="743" d="M371 710q66 0 124.5 -10t102.5 -33t69.5 -60t25.5 -90t-25.5 -89.5t-69.5 -59t-102.5 -33t-124.5 -10.5t-124.5 10.5t-102 33t-69 59t-25.5 89.5t25.5 90t69 60t102 33t124.5 10zM371 369q55 0 102.5 7t83 24t56 45.5t20.5 71.5t-20.5 72t-56 46.5t-83 24.5t-102.5 7 t-103 -7t-83 -24.5t-55.5 -46.5t-20.5 -72t20.5 -71.5t55.5 -45.5t83 -24t103 -7zM491 469q10 -13 17 -15t18 -2h22q10 0 10 -10v-15q0 -10 -10 -10h-91q-7 0 -13 6l-49 64q-6 6 -13 6h-59q-10 0 -10 -10v-11q0 -13 2 -16.5t11 -3.5h29q10 0 10 -10v-15q0 -10 -10 -10h-160 q-10 0 -10 10v15q0 10 10 10h28q10 0 12 3.5t2 16.5v92q0 14 -2 17t-12 3h-28q-10 0 -10 10v15q0 10 10 10h226q75 0 104 -16.5t29 -45.5q0 -23 -15.5 -38.5t-53.5 -21.5q-14 -2 -6 -13zM313 536q0 -10 10 -10h87q38 0 53 6.5t15 24.5q0 17 -15 22t-53 5h-87q-10 0 -10 -10 v-38z"/>
<glyph glyph-name="macron" unicode="¯" horiz-adv-x="676" d="M100 876q0 26 26 26h424q26 0 26 -26v-58q0 -26 -26 -26h-424q-26 0 -26 26v58z"/>
<glyph glyph-name="degree" unicode="°" horiz-adv-x="592" d="M296 384q-56 0 -102.5 10t-81 30t-53.5 51t-19 72t19 71.5t53.5 51t81 30.5t102.5 10q55 0 102 -10t81.5 -30.5t53.5 -51t19 -71.5t-19 -72t-53.5 -51t-81.5 -30t-102 -10zM180 547q0 -42 31 -65.5t85 -23.5t85 23.5t31 65.5t-31 65.5t-85 23.5t-85 -23.5t-31 -65.5z"/>
<glyph glyph-name="plusminus" unicode="±" horiz-adv-x="713" d="M617 501q26 0 26 -26v-80q0 -26 -26 -26h-159q-26 0 -26 -26v-110q0 -26 -26 -26h-99q-26 0 -26 26v110q0 26 -26 26h-159q-26 0 -26 26v80q0 26 26 26h159q26 0 26 26v110q0 26 26 26h99q26 0 26 -26v-110q0 -26 26 -26h159zM70 144q0 26 26 26h521q26 0 26 -26v-80 q0 -26 -26 -26h-521q-26 0 -26 26v80z"/>
<glyph glyph-name="uni00B2" unicode="²" horiz-adv-x="632" d="M548 456q12 0 12 -12v-112q0 -12 -12 -12h-468q-12 0 -12 12v38q0 40 26 66t65 44t84.5 30t84.5 23t65 25t26 35q0 19 -26 34t-90 15q-32 0 -68.5 -5.5t-68.5 -22.5q-15 -8 2 -6q23 2 40 -11t17 -36q0 -26 -21 -38.5t-50 -12.5q-41 0 -60.5 22.5t-19.5 53.5q0 25 13.5 48 t42 40t74 27.5t108.5 10.5q65 0 111 -11t75.5 -29t43 -41t13.5 -48q0 -33 -21 -56t-54 -38.5t-72 -26t-75 -19.5t-64 -18t-38 -22q-5 -5 -1 -9t10 -4h154q24 0 40.5 3t27 9.5t16.5 17t10 25.5q1 11 13 11h47z"/>
<glyph glyph-name="uni00B3" unicode="³" horiz-adv-x="624" d="M429 518q29 -3 55.5 -9t47 -16t32.5 -26t12 -40q0 -22 -13 -43.5t-44.5 -38.5t-84.5 -27.5t-132 -10.5q-63 0 -110 10.5t-78 27.5t-46 39t-15 46q0 32 23.5 49.5t65.5 17.5q11 0 24 -2t24.5 -7t19 -14.5t7.5 -25.5q0 -20 -15 -33.5t-47 -12.5q-18 0 -4 -7 q24 -12 60.5 -18t90.5 -7q63 -1 97 13t34 44q0 26 -27.5 41t-94.5 15h-46q-12 0 -12 12v35q0 12 12 12h46q58 0 79.5 15t21.5 39q0 29 -27.5 41t-90.5 12q-65 0 -98.5 -8t-52.5 -21q-2 -2 -1.5 -3t3.5 0q39 8 59.5 -6.5t20.5 -38.5q0 -16 -8 -26t-19.5 -15t-24.5 -7t-23 -2 q-38 0 -64 18t-26 53q0 51 61 85t179 34q67 0 115 -9t79 -24.5t46 -36t15 -43.5q0 -21 -10 -36.5t-27.5 -25.5t-40.5 -14.5t-48 -4.5z"/>
<glyph glyph-name="acute" unicode="´" horiz-adv-x="547" d="M392 960q19 0 22 -10.5t-12 -21.5l-189 -132q-16 -10 -33 -10h-44q-16 0 -21 8.5t3 22.5l72 125q10 18 31 18h171z"/>
<glyph glyph-name="paragraph" unicode="¶" horiz-adv-x="1188" d="M1108 700q26 0 26 -26v-52q0 -26 -26 -26h-114q-16 0 -25.5 -2.5t-14.5 -10t-6.5 -22t-1.5 -37.5v-498q0 -26 -26 -26h-128q-26 0 -26 26v544q0 26 -26 26h-38q-26 0 -26 -26v-544q0 -26 -26 -26h-128q-26 0 -26 26v228q0 26 -26 26h-81q-174 0 -259 56t-85 154t85 154 t259 56h719z"/>
<glyph glyph-name="periodcentered" unicode="·" horiz-adv-x="373" d="M187 239q-29 0 -53.5 9.5t-41.5 25.5t-26.5 38t-9.5 48q0 25 9.5 47t26.5 38t41.5 25.5t53.5 9.5t53 -9.5t41 -25.5t26.5 -38t9.5 -47q0 -26 -9.5 -48t-26.5 -38t-41 -25.5t-53 -9.5z"/>
<glyph glyph-name="cedilla" unicode="¸" horiz-adv-x="638" d="M120 -220q13 18 34 12q32 -8 67 -13t74 -5q47 0 68 9.5t21 36.5q0 46 -60 46q-21 0 -40 -5t-35 -10q-16 -7 -34 -1l-20 7q-25 10 -13 35l55 108h85l-24 -46q-15 -30 19 -19q12 4 27 6.5t34 2.5q33 0 62.5 -9t51 -25.5t34 -39t12.5 -50.5q0 -32 -16.5 -55.5t-44 -38.5 t-63.5 -22.5t-76 -7.5q-30 0 -60.5 3.5t-58.5 9.5t-52 13.5t-42 15.5q-25 11 -10 35z"/>
<glyph glyph-name="uni00B9" unicode="¹" horiz-adv-x="486" d="M330 415q0 -20 6.5 -25.5t17.5 -5.5h80q12 0 12 -12v-40q0 -12 -12 -12h-348q-12 0 -12 12v40q0 12 12 12h86q11 0 16.5 5.5t5.5 25.5v147q0 20 -4.5 25.5t-15.5 5.5h-79q-12 0 -12 12v40q0 12 12 12h42q44 0 66.5 7.5t42.5 32.5q6 7 15 7h57q12 0 12 -12v-277z"/>
<glyph glyph-name="ordmasculine" unicode="º" horiz-adv-x="653" d="M326 384q-56 0 -102 10t-79 30t-51 51t-18 72t18 71.5t51 51t79 30.5t102 10t102 -10t79 -30.5t51.5 -51t18.5 -71.5t-18.5 -72t-51.5 -51t-79 -30t-102 -10zM201 547q0 -42 31.5 -70.5t93.5 -28.5q63 0 94.5 28.5t31.5 70.5t-31.5 70.5t-94.5 28.5q-62 0 -93.5 -28.5 t-31.5 -70.5zM86 312q0 12 12 12h457q12 0 12 -12v-46q0 -12 -12 -12h-457q-12 0 -12 12v46z"/>
<glyph glyph-name="guillemotright" unicode="»" horiz-adv-x="856" d="M454 390q18 -11 18 -32v-18q0 -21 -18 -32l-309 -184q-21 -12 -36 6l-11 13q-16 19 2 37l154 151q18 18 0 36l-154 152q-18 18 -2 37l11 13q15 18 36 6zM785 390q18 -11 18 -32v-18q0 -21 -18 -32l-309 -184q-21 -12 -36 6l-11 13q-16 19 2 37l154 151q18 18 0 36 l-154 152q-18 18 -2 37l11 13q15 18 36 6z"/>
<glyph glyph-name="onequarter" unicode="¼" horiz-adv-x="1262" d="M339 415q0 -20 6.5 -25.5t17.5 -5.5h80q12 0 12 -12v-40q0 -12 -12 -12h-348q-12 0 -12 12v40q0 12 12 12h86q11 0 16.5 5.5t5.5 25.5v147q0 20 -4.5 25.5t-15.5 5.5h-79q-12 0 -12 12v40q0 12 12 12h42q44 0 66.5 7.5t42.5 32.5q6 7 15 7h57q12 0 12 -12v-277zM835 686 q13 14 32 14h74q17 0 21.5 -9.5t-7.5 -22.5l-583 -654q-13 -14 -32 -14h-74q-17 0 -21.5 9.5t6.5 22.5zM1101 112q-12 0 -12 -8v-9q0 -20 5.5 -25.5t16.5 -5.5h79q12 0 12 -12v-40q0 -12 -12 -12h-340q-12 0 -12 12v40q0 12 12 12h81q11 0 16.5 5.5t5.5 25.5v5q0 12 -12 12 h-314q-12 0 -12 12v44q0 9 8 15l357 193q7 4 15 4h82q12 0 12 -12v-180q0 -12 12 -12h89q12 0 12 -12v-40q0 -12 -12 -12h-89zM941 176q12 0 12 12v91q0 7 -4 9.5t-10 -1.5l-177 -97q-8 -4 -6.5 -9t10.5 -5h175z"/>
<glyph glyph-name="onehalf" unicode="½" horiz-adv-x="1253" d="M333 415q0 -20 6.5 -25.5t17.5 -5.5h80q12 0 12 -12v-40q0 -12 -12 -12h-348q-12 0 -12 12v40q0 12 12 12h86q11 0 16.5 5.5t5.5 25.5v147q0 20 -4.5 25.5t-15.5 5.5h-79q-12 0 -12 12v40q0 12 12 12h42q44 0 66.5 7.5t42.5 32.5q6 7 15 7h57q12 0 12 -12v-277zM833 686 q13 14 32 14h74q17 0 21.5 -9.5t-7.5 -22.5l-583 -654q-13 -14 -32 -14h-74q-17 0 -21.5 9.5t6.5 22.5zM1209 135q12 0 12 -12v-112q0 -12 -12 -12h-468q-12 0 -12 12v38q0 40 26 66t65 44t84.5 30t84.5 23t65 25t26 35q0 19 -26 34t-90 15q-32 0 -68.5 -5.5t-68.5 -22.5 q-15 -8 2 -6q23 2 40 -11t17 -36q0 -26 -21 -38.5t-50 -12.5q-41 0 -60.5 22.5t-19.5 53.5q0 25 13.5 48t42 40t74 27.5t108.5 10.5q65 0 111 -11t75.5 -29t43 -41t13.5 -48q0 -33 -21 -56t-54 -38.5t-72 -26t-75 -19.5t-64 -18t-38 -22q-5 -5 -1 -9t10 -4h154q24 0 40.5 3 t27 9.5t16.5 17t10 25.5q1 11 13 11h47z"/>
<glyph glyph-name="threequarters" unicode="¾" horiz-adv-x="1327" d="M426 518q29 -3 55.5 -9t47 -16t32.5 -26t12 -40q0 -22 -13 -43.5t-44.5 -38.5t-84.5 -27.5t-132 -10.5q-63 0 -110 10.5t-78 27.5t-46 39t-15 46q0 32 23.5 49.5t65.5 17.5q11 0 24 -2t24.5 -7t19 -14.5t7.5 -25.5q0 -20 -15 -33.5t-47 -12.5q-18 0 -4 -7 q24 -12 60.5 -18t90.5 -7q63 -1 97 13t34 44q0 26 -27.5 41t-94.5 15h-46q-12 0 -12 12v35q0 12 12 12h46q58 0 79.5 15t21.5 39q0 29 -27.5 41t-90.5 12q-65 0 -98.5 -8t-52.5 -21q-2 -2 -1.5 -3t3.5 0q39 8 59.5 -6.5t20.5 -38.5q0 -16 -8 -26t-19.5 -15t-24.5 -7t-23 -2 q-38 0 -64 18t-26 53q0 51 61 85t179 34q67 0 115 -9t79 -24.5t46 -36t15 -43.5q0 -21 -10 -36.5t-27.5 -25.5t-40.5 -14.5t-48 -4.5zM912 686q13 14 32 14h74q17 0 21.5 -9.5t-7.5 -22.5l-583 -654q-13 -14 -32 -14h-74q-17 0 -21.5 9.5t6.5 22.5zM1166 113q-12 0 -12 -8 v-9q0 -20 5.5 -25.5t16.5 -5.5h79q12 0 12 -12v-40q0 -12 -12 -12h-340q-12 0 -12 12v40q0 12 12 12h81q11 0 16.5 5.5t5.5 25.5v5q0 12 -12 12h-314q-12 0 -12 12v44q0 9 8 15l357 193q7 4 15 4h82q12 0 12 -12v-180q0 -12 12 -12h89q12 0 12 -12v-40q0 -12 -12 -12h-89z M1006 177q12 0 12 12v91q0 7 -4 9.5t-10 -1.5l-177 -97q-8 -4 -6.5 -9t10.5 -5h175z"/>
<glyph glyph-name="questiondown" unicode="¿" horiz-adv-x="915" d="M460 716q29 0 53 -9.5t41.5 -25.5t27 -38.5t9.5 -47.5t-9.5 -47t-27 -38t-41.5 -25.5t-53 -9.5t-53 9.5t-41 25.5t-26.5 38t-9.5 47t9.5 47.5t26.5 38.5t41 25.5t53 9.5zM490 428q13 0 20 -7t5 -21q-5 -37 -23.5 -61t-43 -40t-51.5 -27.5t-49.5 -24.5t-37.5 -30.5 t-15 -44.5q0 -20 9.5 -37t31.5 -30t59 -20t91 -7q46 0 82 5t65 13.5t51 19.5t39 23q6 4 4.5 8.5t-9.5 3.5q-25 -2 -48 3t-40.5 16t-28 28.5t-10.5 42.5t10.5 43t28 30t40 18t46.5 6q28 0 55 -8t48 -24.5t34 -42t13 -60.5q0 -49 -26.5 -91t-77 -72.5t-124 -48t-167.5 -17.5 t-172 15.5t-134.5 42.5t-88 65t-31.5 83q0 39 22.5 64.5t57 43t76 30t80 24.5t68.5 27t42 38q5 10 11 15.5t18 5.5h70z"/>
<glyph glyph-name="Agrave" unicode="À" d="M653 960q21 0 31 -18l72 -125q8 -14 3 -22.5t-21 -8.5h-44q-17 0 -33 10l-189 132q-15 11 -12 21.5t22 10.5h171zM1370 104q17 0 17 -26v-52q0 -26 -26 -26h-520q-26 0 -26 26v52q0 26 26 26h79q32 0 40 18t-10 43l-26 36q-13 16 -32 16h-488q-19 0 -31 -16l-27 -36 q-19 -25 -10.5 -43t40.5 -18h83q26 0 26 -26v-52q0 -26 -26 -26h-419q-26 0 -26 26v52q0 26 17 26h17q25 0 43.5 3t33.5 10.5t28.5 20t28.5 32.5l277 365q20 26 12 43.5t-42 17.5h-50q-26 0 -26 26v52q0 26 26 26h430q20 0 32 -16l378 -514q14 -20 27.5 -32.5t29 -20 t34 -10.5t43.5 -3h17zM796 321q17 0 21.5 9t-5.5 23l-144 196q-8 11 -18 11t-18 -11l-146 -196q-10 -14 -5.5 -23t20.5 -9h295z"/>
<glyph glyph-name="Aacute" unicode="Á" d="M851 960q19 0 22 -10.5t-12 -21.5l-189 -132q-16 -10 -33 -10h-44q-16 0 -21 8.5t3 22.5l72 125q10 18 31 18h171zM1370 104q17 0 17 -26v-52q0 -26 -26 -26h-520q-26 0 -26 26v52q0 26 26 26h79q32 0 40 18t-10 43l-26 36q-13 16 -32 16h-488q-19 0 -31 -16l-27 -36 q-19 -25 -10.5 -43t40.5 -18h83q26 0 26 -26v-52q0 -26 -26 -26h-419q-26 0 -26 26v52q0 26 17 26h17q25 0 43.5 3t33.5 10.5t28.5 20t28.5 32.5l277 365q20 26 12 43.5t-42 17.5h-50q-26 0 -26 26v52q0 26 26 26h430q20 0 32 -16l378 -514q14 -20 27.5 -32.5t29 -20 t34 -10.5t43.5 -3h17zM796 321q17 0 21.5 9t-5.5 23l-144 196q-8 11 -18 11t-18 -11l-146 -196q-10 -14 -5.5 -23t20.5 -9h295z"/>
<glyph glyph-name="Acircumflex" unicode="Â" d="M566 961q13 13 32 13h134q19 0 32 -13l139 -139q12 -12 8 -22t-21 -10h-24q-17 0 -32 7l-151 74q-18 8 -36 0l-151 -74q-15 -7 -32 -7h-26q-17 0 -20 10t9 22zM1353 104q-25 0 -43.5 3t-34 10.5t-29 20t-27.5 32.5l-378 514q-12 16 -32 16h-430q-26 0 -26 -26v-52 q0 -26 26 -26h50q34 0 42 -17.5t-12 -43.5l-277 -365q-15 -20 -28.5 -32.5t-28.5 -20t-33.5 -10.5t-43.5 -3h-17q-17 0 -17 -26v-52q0 -26 26 -26h419q26 0 26 26v52q0 26 -26 26h-83q-32 0 -40.5 18t10.5 43l27 36q12 16 31 16h488q19 0 32 -16l26 -36q18 -25 10 -43 t-40 -18h-79q-26 0 -26 -26v-52q0 -26 26 -26h520q26 0 26 26v52q0 26 -17 26h-17zM501 321q-16 0 -20.5 9t5.5 23l146 196q8 11 18 11t18 -11l144 -196q10 -14 5.5 -23t-21.5 -9h-295z"/>
<glyph glyph-name="Atilde" unicode="Ã" d="M405 779q-26 0 -26 26v11q0 36 12 60.5t33 39.5t49 21.5t60 6.5q49 0 84 -10.5t63.5 -23.5t55.5 -23.5t59 -10.5q25 0 38.5 8.5t18.5 25.5q4 12 9.5 18t17.5 6h46q26 0 26 -26v-11q0 -36 -12 -60.5t-33 -39.5t-49 -21.5t-60 -6.5q-49 0 -83 10.5t-62 23.5t-55 23.5 t-62 10.5q-26 0 -39 -8.5t-18 -25.5q-4 -12 -9.5 -18t-17.5 -6h-46zM1353 104q-25 0 -43.5 3t-34 10.5t-29 20t-27.5 32.5l-378 514q-12 16 -32 16h-430q-26 0 -26 -26v-52q0 -26 26 -26h50q34 0 42 -17.5t-12 -43.5l-277 -365q-15 -20 -28.5 -32.5t-28.5 -20t-33.5 -10.5 t-43.5 -3h-17q-17 0 -17 -26v-52q0 -26 26 -26h419q26 0 26 26v52q0 26 -26 26h-83q-32 0 -40.5 18t10.5 43l27 36q12 16 31 16h488q19 0 32 -16l26 -36q18 -25 10 -43t-40 -18h-79q-26 0 -26 -26v-52q0 -26 26 -26h520q26 0 26 26v52q0 26 -17 26h-17zM501 321 q-16 0 -20.5 9t5.5 23l146 196q8 11 18 11t18 -11l144 -196q10 -14 5.5 -23t-21.5 -9h-295z"/>
<glyph glyph-name="Adieresis" unicode="Ä" d="M536 780q-51 0 -79 21.5t-28 65.5q0 43 28 64.5t79 21.5t78.5 -21.5t27.5 -64.5q0 -44 -27.5 -65.5t-78.5 -21.5zM796 780q-51 0 -79 21.5t-28 65.5q0 43 28 64.5t79 21.5t78.5 -21.5t27.5 -64.5q0 -44 -27.5 -65.5t-78.5 -21.5zM1370 104q17 0 17 -26v-52q0 -26 -26 -26 h-520q-26 0 -26 26v52q0 26 26 26h79q32 0 40 18t-10 43l-26 36q-13 16 -32 16h-488q-19 0 -31 -16l-27 -36q-19 -25 -10.5 -43t40.5 -18h83q26 0 26 -26v-52q0 -26 -26 -26h-419q-26 0 -26 26v52q0 26 17 26h17q25 0 43.5 3t33.5 10.5t28.5 20t28.5 32.5l277 365 q20 26 12 43.5t-42 17.5h-50q-26 0 -26 26v52q0 26 26 26h430q20 0 32 -16l378 -514q14 -20 27.5 -32.5t29 -20t34 -10.5t43.5 -3h17zM796 321q17 0 21.5 9t-5.5 23l-144 196q-8 11 -18 11t-18 -11l-146 -196q-10 -14 -5.5 -23t20.5 -9h295z"/>
<glyph glyph-name="Aring" unicode="Å" d="M665 770q-44 0 -81.5 8t-64.5 23.5t-42.5 38.5t-15.5 53t15.5 53t42.5 38.5t64.5 23.5t81.5 8q45 0 82.5 -8t64.5 -23.5t42.5 -38.5t15.5 -53t-15.5 -53t-42.5 -38.5t-64.5 -23.5t-82.5 -8zM580 893q0 -29 23 -44t62 -15q40 0 63 15t23 44t-23 44t-63 15q-39 0 -62 -15 t-23 -44zM1370 104q17 0 17 -26v-52q0 -26 -26 -26h-520q-26 0 -26 26v52q0 26 26 26h79q32 0 40 18t-10 43l-26 36q-13 16 -32 16h-488q-19 0 -31 -16l-27 -36q-19 -25 -10.5 -43t40.5 -18h83q26 0 26 -26v-52q0 -26 -26 -26h-419q-26 0 -26 26v52q0 26 17 26h17 q25 0 43.5 3t33.5 10.5t28.5 20t28.5 32.5l277 365q20 26 12 43.5t-42 17.5h-50q-26 0 -26 26v52q0 26 26 26h430q20 0 32 -16l378 -514q14 -20 27.5 -32.5t29 -20t34 -10.5t43.5 -3h17zM796 321q17 0 21.5 9t-5.5 23l-144 196q-8 11 -18 11t-18 -11l-146 -196 q-10 -14 -5.5 -23t20.5 -9h295z"/>
<glyph glyph-name="AE" unicode="Æ" horiz-adv-x="2029" d="M1959 26q0 -26 -26 -26h-1133q-26 0 -26 26v52q0 26 26 26h102q30 0 45 11t15 49v47q0 26 -26 26h-428q-19 0 -32 -12l-74 -60q-11 -9 -14.5 -19.5t0 -19.5t14.5 -15.5t31 -6.5h84q26 0 26 -26v-52q0 -26 -26 -26h-493q-26 0 -26 26v52q0 26 26 26h10q50 0 88 10.5 t73 39.5l461 381q28 23 21.5 42t-37.5 19h-54q-26 0 -26 26v52q0 26 26 26h1337q26 0 26 -26v-214q0 -26 -26 -26h-79q-25 0 -27 25q-5 38 -13.5 64t-26 42.5t-46.5 23.5t-74 7h-429q-26 0 -26 -26v-137q0 -26 26 -26h184q34 0 55.5 5t33.5 15.5t16.5 28t4.5 41.5 q0 23 26 23h68q26 0 26 -26v-278q0 -26 -26 -26h-68q-26 0 -26 23q0 24 -4.5 41.5t-16.5 28t-33.5 15.5t-55.5 5h-184q-26 0 -26 -26v-147q0 -26 26 -26h439q45 0 74.5 10t47 31t26 52.5t12.5 73.5q2 25 27 25h79q26 0 26 -26v-244zM962 570q0 26 -18 26h-2q-18 0 -30 -12 l-257 -211q-14 -12 -10.5 -22t21.5 -10h270q26 0 26 26v203z"/>
<glyph glyph-name="Ccedilla" unicode="Ç" horiz-adv-x="1205" d="M1131 263q14 0 20.5 -7.5t1.5 -21.5q-41 -125 -152 -188t-299 -72q-21 -1 -31 -19q-8 -16 -3 -21t22 1q12 4 27 6.5t34 2.5q33 0 62.5 -9t51 -25.5t34 -39t12.5 -50.5q0 -32 -16.5 -55.5t-44 -38.5t-63.5 -22.5t-76 -7.5q-30 0 -60.5 3.5t-58 9.5t-52 13.5t-42.5 15.5 q-12 5 -14.5 14.5t5.5 20.5l4 7q13 18 34 12q32 -8 67 -13t74 -5q47 0 68 9.5t21 36.5q0 46 -60 46q-21 0 -40 -5t-35 -10q-16 -7 -34 -1l-20 7q-25 10 -13 35l26 50q7 14 1.5 22t-21.5 9q-120 5 -216 30.5t-163.5 72.5t-103.5 115t-36 159q0 97 42 168.5t118 118t181.5 69 t232.5 22.5q115 0 198 -18.5t140 -54.5q23 -14 36 8l11 19q11 18 32 18h93q26 0 26 -26v-202q0 -26 -26 -26h-112q-21 0 -30 20q-38 82 -115 120t-206 38q-97 0 -164.5 -19.5t-110 -55t-61.5 -86t-19 -113.5t19 -113.5t61.5 -86t110 -55t164.5 -19.5q129 0 216 38t118 127 q5 11 11.5 16.5t18.5 5.5h104z"/>
<glyph glyph-name="Egrave" unicode="È" horiz-adv-x="1304" d="M702 960q21 0 31 -18l72 -125q8 -14 3 -22.5t-21 -8.5h-44q-17 0 -33 10l-189 132q-15 11 -12 21.5t22 10.5h171zM503 596q-26 0 -26 -26v-137q0 -26 26 -26h184q34 0 55.5 5t33.5 15.5t16.5 28t4.5 41.5q0 23 26 23h68q26 0 26 -26v-278q0 -26 -26 -26h-68q-26 0 -26 23 q0 24 -4.5 41.5t-16.5 28t-33.5 15.5t-55.5 5h-184q-26 0 -26 -26v-147q0 -26 26 -26h439q45 0 74.5 10t47 31t26 52.5t12.5 73.5q2 25 27 25h79q26 0 26 -26v-244q0 -26 -26 -26h-1133q-26 0 -26 26v52q0 26 26 26h102q30 0 45 11t15 49v372q0 38 -15 49t-45 11h-102 q-26 0 -26 26v52q0 26 26 26h1123q26 0 26 -26v-214q0 -26 -26 -26h-79q-25 0 -27 25q-5 38 -13.5 64t-26 42.5t-46.5 23.5t-74 7h-429z"/>
<glyph glyph-name="Eacute" unicode="É" horiz-adv-x="1304" d="M900 960q19 0 22 -10.5t-12 -21.5l-189 -132q-16 -10 -33 -10h-44q-16 0 -21 8.5t3 22.5l72 125q10 18 31 18h171zM503 596q-26 0 -26 -26v-137q0 -26 26 -26h184q34 0 55.5 5t33.5 15.5t16.5 28t4.5 41.5q0 23 26 23h68q26 0 26 -26v-278q0 -26 -26 -26h-68 q-26 0 -26 23q0 24 -4.5 41.5t-16.5 28t-33.5 15.5t-55.5 5h-184q-26 0 -26 -26v-147q0 -26 26 -26h439q45 0 74.5 10t47 31t26 52.5t12.5 73.5q2 25 27 25h79q26 0 26 -26v-244q0 -26 -26 -26h-1133q-26 0 -26 26v52q0 26 26 26h102q30 0 45 11t15 49v372q0 38 -15 49 t-45 11h-102q-26 0 -26 26v52q0 26 26 26h1123q26 0 26 -26v-214q0 -26 -26 -26h-79q-25 0 -27 25q-5 38 -13.5 64t-26 42.5t-46.5 23.5t-74 7h-429z"/>
<glyph glyph-name="Ecircumflex" unicode="Ê" horiz-adv-x="1304" d="M615 961q13 13 32 13h134q19 0 32 -13l139 -139q12 -12 8 -22t-21 -10h-24q-17 0 -32 7l-151 74q-18 8 -36 0l-151 -74q-15 -7 -32 -7h-26q-17 0 -20 10t9 22zM932 596q45 0 74 -7t46.5 -23.5t26 -42.5t13.5 -64q2 -25 27 -25h79q26 0 26 26v214q0 26 -26 26h-1123 q-26 0 -26 -26v-52q0 -26 26 -26h102q30 0 45 -11t15 -49v-372q0 -38 -15 -49t-45 -11h-102q-26 0 -26 -26v-52q0 -26 26 -26h1133q26 0 26 26v244q0 26 -26 26h-79q-25 0 -27 -25q-4 -42 -12.5 -73.5t-26 -52.5t-47 -31t-74.5 -10h-439q-26 0 -26 26v147q0 26 26 26h184 q34 0 55.5 -5t33.5 -15.5t16.5 -28t4.5 -41.5q0 -23 26 -23h68q26 0 26 26v278q0 26 -26 26h-68q-26 0 -26 -23q0 -24 -4.5 -41.5t-16.5 -28t-33.5 -15.5t-55.5 -5h-184q-26 0 -26 26v137q0 26 26 26h429z"/>
<glyph glyph-name="Edieresis" unicode="Ë" horiz-adv-x="1304" d="M585 780q-51 0 -79 21.5t-28 65.5q0 43 28 64.5t79 21.5t78.5 -21.5t27.5 -64.5q0 -44 -27.5 -65.5t-78.5 -21.5zM845 780q-51 0 -79 21.5t-28 65.5q0 43 28 64.5t79 21.5t78.5 -21.5t27.5 -64.5q0 -44 -27.5 -65.5t-78.5 -21.5zM503 596q-26 0 -26 -26v-137 q0 -26 26 -26h184q34 0 55.5 5t33.5 15.5t16.5 28t4.5 41.5q0 23 26 23h68q26 0 26 -26v-278q0 -26 -26 -26h-68q-26 0 -26 23q0 24 -4.5 41.5t-16.5 28t-33.5 15.5t-55.5 5h-184q-26 0 -26 -26v-147q0 -26 26 -26h439q45 0 74.5 10t47 31t26 52.5t12.5 73.5q2 25 27 25h79 q26 0 26 -26v-244q0 -26 -26 -26h-1133q-26 0 -26 26v52q0 26 26 26h102q30 0 45 11t15 49v372q0 38 -15 49t-45 11h-102q-26 0 -26 26v52q0 26 26 26h1123q26 0 26 -26v-214q0 -26 -26 -26h-79q-25 0 -27 25q-5 38 -13.5 64t-26 42.5t-46.5 23.5t-74 7h-429z"/>
<glyph glyph-name="Igrave" unicode="Ì" horiz-adv-x="714" d="M345 960q21 0 31 -18l72 -125q8 -14 3 -22.5t-21 -8.5h-44q-17 0 -33 10l-189 132q-15 11 -12 21.5t22 10.5h171zM477 164q0 -38 15 -49t45 -11h102q26 0 26 -26v-52q0 -26 -26 -26h-564q-26 0 -26 26v52q0 26 26 26h102q30 0 45 11t15 49v372q0 38 -15 49t-45 11h-102 q-26 0 -26 26v52q0 26 26 26h564q26 0 26 -26v-52q0 -26 -26 -26h-102q-30 0 -45 -11t-15 -49v-372z"/>
<glyph glyph-name="Iacute" unicode="Í" horiz-adv-x="714" d="M543 960q19 0 22 -10.5t-12 -21.5l-189 -132q-16 -10 -33 -10h-44q-16 0 -21 8.5t3 22.5l72 125q10 18 31 18h171zM477 164q0 -38 15 -49t45 -11h102q26 0 26 -26v-52q0 -26 -26 -26h-564q-26 0 -26 26v52q0 26 26 26h102q30 0 45 11t15 49v372q0 38 -15 49t-45 11h-102 q-26 0 -26 26v52q0 26 26 26h564q26 0 26 -26v-52q0 -26 -26 -26h-102q-30 0 -45 -11t-15 -49v-372z"/>
<glyph glyph-name="Icircumflex" unicode="Î" horiz-adv-x="714" d="M258 961q13 13 32 13h134q19 0 32 -13l139 -139q12 -12 8 -22t-21 -10h-24q-17 0 -32 7l-151 74q-18 8 -36 0l-151 -74q-15 -7 -32 -7h-26q-17 0 -20 10t9 22zM477 536q0 38 15 49t45 11h102q26 0 26 26v52q0 26 -26 26h-564q-26 0 -26 -26v-52q0 -26 26 -26h102 q30 0 45 -11t15 -49v-372q0 -38 -15 -49t-45 -11h-102q-26 0 -26 -26v-52q0 -26 26 -26h564q26 0 26 26v52q0 26 -26 26h-102q-30 0 -45 11t-15 49v372z"/>
<glyph glyph-name="Idieresis" unicode="Ï" horiz-adv-x="714" d="M228 780q-51 0 -79 21.5t-28 65.5q0 43 28 64.5t79 21.5t78.5 -21.5t27.5 -64.5q0 -44 -27.5 -65.5t-78.5 -21.5zM488 780q-51 0 -79 21.5t-28 65.5q0 43 28 64.5t79 21.5t78.5 -21.5t27.5 -64.5q0 -44 -27.5 -65.5t-78.5 -21.5zM477 164q0 -38 15 -49t45 -11h102 q26 0 26 -26v-52q0 -26 -26 -26h-564q-26 0 -26 26v52q0 26 26 26h102q30 0 45 11t15 49v372q0 38 -15 49t-45 11h-102q-26 0 -26 26v52q0 26 26 26h564q26 0 26 -26v-52q0 -26 -26 -26h-102q-30 0 -45 -11t-15 -49v-372z"/>
<glyph glyph-name="Eth" unicode="Ð" horiz-adv-x="1376" d="M704 700q315 0 472.5 -81t157.5 -264q0 -95 -39.5 -162.5t-118 -110.5t-197 -62.5t-275.5 -19.5h-629q-26 0 -26 26v52q0 26 26 26h102q30 0 45 11t15 49v125q0 26 -26 26h-136q-26 0 -26 26v46q0 26 26 26h136q26 0 26 26v97q0 38 -14 49t-46 11h-102q-26 0 -26 26v52 q0 26 26 26h629zM694 104q102 0 173.5 14.5t116 45t64.5 78t20 113.5q0 62 -20 107.5t-64.5 75t-116 44t-173.5 14.5h-191q-26 0 -26 -26v-131q0 -26 26 -26h154q26 0 26 -26v-46q0 -26 -26 -26h-154q-26 0 -26 -26v-159q0 -26 26 -26h191z"/>
<glyph glyph-name="Ntilde" unicode="Ñ" horiz-adv-x="1455" d="M472 779q-26 0 -26 26v11q0 36 12 60.5t33 39.5t49 21.5t60 6.5q49 0 84 -10.5t63.5 -23.5t55.5 -23.5t59 -10.5q25 0 38.5 8.5t18.5 25.5q4 12 9.5 18t17.5 6h46q26 0 26 -26v-11q0 -36 -12 -60.5t-33 -39.5t-49 -21.5t-60 -6.5q-49 0 -83 10.5t-62 23.5t-55 23.5 t-62 10.5q-26 0 -39 -8.5t-18 -25.5q-4 -12 -9.5 -18t-17.5 -6h-46zM933 701q-26 0 -26 -26v-52q0 -26 26 -26h102q30 0 45 -11t15 -49v-281q0 -17 -9.5 -21t-22.5 7l-512 446q-13 12 -32 12h-444q-26 0 -26 -26v-52q0 -26 26 -26h102q30 0 45 -11t15 -49v-372 q0 -38 -15 -49t-45 -11h-102q-26 0 -26 -26v-52q0 -26 26 -26h474q26 0 26 26v52q0 26 -26 26h-102q-30 0 -45 11t-15 49v325q0 17 9.5 21t22.5 -7l564 -491q13 -12 32 -12h204q26 0 26 26v511q0 38 15 49t45 11h98q26 0 26 26v52q0 26 -26 26h-470z"/>
<glyph glyph-name="Ograve" unicode="Ò" horiz-adv-x="1314" d="M645 960q21 0 31 -18l72 -125q8 -14 3 -22.5t-21 -8.5h-44q-17 0 -33 10l-189 132q-15 11 -12 21.5t22 10.5h171zM657 -28q-146 0 -260.5 22.5t-193.5 69t-120 117.5t-41 169q0 97 41 168.5t120 118t193.5 69t260.5 22.5t260.5 -22.5t193 -69t120 -118t41.5 -168.5 q0 -98 -41.5 -169t-120 -117.5t-193 -69t-260.5 -22.5zM308 350q0 -64 18 -114.5t59 -86t107.5 -54.5t164.5 -19q97 0 164 19t108 54.5t59 86t18 114.5t-16.5 114.5t-56.5 86t-107.5 54.5t-168.5 19q-98 0 -164.5 -19t-107.5 -54.5t-59 -86t-18 -114.5z"/>
<glyph glyph-name="Oacute" unicode="Ó" horiz-adv-x="1314" d="M843 960q19 0 22 -10.5t-12 -21.5l-189 -132q-16 -10 -33 -10h-44q-16 0 -21 8.5t3 22.5l72 125q10 18 31 18h171zM657 -28q-146 0 -260.5 22.5t-193.5 69t-120 117.5t-41 169q0 97 41 168.5t120 118t193.5 69t260.5 22.5t260.5 -22.5t193 -69t120 -118t41.5 -168.5 q0 -98 -41.5 -169t-120 -117.5t-193 -69t-260.5 -22.5zM308 350q0 -64 18 -114.5t59 -86t107.5 -54.5t164.5 -19q97 0 164 19t108 54.5t59 86t18 114.5t-16.5 114.5t-56.5 86t-107.5 54.5t-168.5 19q-98 0 -164.5 -19t-107.5 -54.5t-59 -86t-18 -114.5z"/>
<glyph glyph-name="Ocircumflex" unicode="Ô" horiz-adv-x="1314" d="M558 961q13 13 32 13h134q19 0 32 -13l139 -139q12 -12 8 -22t-21 -10h-24q-17 0 -32 7l-151 74q-18 8 -36 0l-151 -74q-15 -7 -32 -7h-26q-17 0 -20 10t9 22zM657 -28q146 0 260.5 22.5t193 69t120 117.5t41.5 169q0 97 -41.5 168.5t-120 118t-193 69t-260.5 22.5 t-260.5 -22.5t-193.5 -69t-120 -118t-41 -168.5q0 -98 41 -169t120 -117.5t193.5 -69t260.5 -22.5zM308 350q0 64 18 114.5t59 86t107.5 54.5t164.5 19q101 0 168.5 -19t107.5 -54.5t56.5 -86t16.5 -114.5t-18 -114.5t-59 -86t-108 -54.5t-164 -19q-98 0 -164.5 19 t-107.5 54.5t-59 86t-18 114.5z"/>
<glyph glyph-name="Otilde" unicode="Õ" horiz-adv-x="1314" d="M397 779q-26 0 -26 26v11q0 36 12 60.5t33 39.5t49 21.5t60 6.5q49 0 84 -10.5t63.5 -23.5t55.5 -23.5t59 -10.5q25 0 38.5 8.5t18.5 25.5q4 12 9.5 18t17.5 6h46q26 0 26 -26v-11q0 -36 -12 -60.5t-33 -39.5t-49 -21.5t-60 -6.5q-49 0 -83 10.5t-62 23.5t-55 23.5 t-62 10.5q-26 0 -39 -8.5t-18 -25.5q-4 -12 -9.5 -18t-17.5 -6h-46zM657 -28q146 0 260.5 22.5t193 69t120 117.5t41.5 169q0 97 -41.5 168.5t-120 118t-193 69t-260.5 22.5t-260.5 -22.5t-193.5 -69t-120 -118t-41 -168.5q0 -98 41 -169t120 -117.5t193.5 -69t260.5 -22.5z M308 350q0 64 18 114.5t59 86t107.5 54.5t164.5 19q101 0 168.5 -19t107.5 -54.5t56.5 -86t16.5 -114.5t-18 -114.5t-59 -86t-108 -54.5t-164 -19q-98 0 -164.5 19t-107.5 54.5t-59 86t-18 114.5z"/>
<glyph glyph-name="Odieresis" unicode="Ö" horiz-adv-x="1314" d="M528 780q-51 0 -79 21.5t-28 65.5q0 43 28 64.5t79 21.5t78.5 -21.5t27.5 -64.5q0 -44 -27.5 -65.5t-78.5 -21.5zM788 780q-51 0 -79 21.5t-28 65.5q0 43 28 64.5t79 21.5t78.5 -21.5t27.5 -64.5q0 -44 -27.5 -65.5t-78.5 -21.5zM657 -28q-146 0 -260.5 22.5t-193.5 69 t-120 117.5t-41 169q0 97 41 168.5t120 118t193.5 69t260.5 22.5t260.5 -22.5t193 -69t120 -118t41.5 -168.5q0 -98 -41.5 -169t-120 -117.5t-193 -69t-260.5 -22.5zM308 350q0 -64 18 -114.5t59 -86t107.5 -54.5t164.5 -19q97 0 164 19t108 54.5t59 86t18 114.5 t-16.5 114.5t-56.5 86t-107.5 54.5t-168.5 19q-98 0 -164.5 -19t-107.5 -54.5t-59 -86t-18 -114.5z"/>
<glyph glyph-name="multiply" unicode="×" horiz-adv-x="685" d="M609 236q22 -17 2 -37l-57 -57q-17 -17 -36 -2l-157 117q-18 15 -36 0l-158 -118q-19 -14 -36 3l-57 57q-20 20 2 37l133 100q11 8 11 18t-11 18l-133 99q-22 17 -2 37l57 57q17 17 36 2l158 -117q18 -15 36 0l157 117q19 15 36 -2l57 -57q20 -20 -2 -37l-133 -99 q-11 -8 -11 -18t11 -18z"/>
<glyph glyph-name="Oslash" unicode="Ø" horiz-adv-x="1314" d="M979 722q-17 -25 12 -35q137 -41 209 -123.5t72 -213.5q0 -98 -41.5 -169t-120 -117.5t-193 -69t-260.5 -22.5q-44 0 -84.5 2t-78.5 6q-22 1 -33 -15l-40 -58q-11 -17 -31 -17h-76q-16 0 -21 9t5 23l38 56q18 26 -13 34q-137 42 -209 124.5t-72 213.5q0 97 41 168.5 t120 118t193.5 69t260.5 22.5q44 0 85 -2t79 -6q20 -3 33 15l40 58q11 17 31 17h76q16 0 21 -9t-4 -23zM308 350q0 -73 23.5 -129t78.5 -91q22 -13 36 9l307 448q8 13 4 22t-19 11q-19 2 -39 3t-42 1q-98 0 -164.5 -19t-107.5 -54.5t-59 -86t-18 -114.5zM657 76q97 0 164 19 t108 54.5t59 86t18 114.5q0 74 -22 130t-78 91q-11 7 -20 4.5t-16 -12.5l-308 -450q-8 -13 -5.5 -22t15.5 -11q20 -2 41 -3t44 -1z"/>
<glyph glyph-name="Ugrave" unicode="Ù" horiz-adv-x="1404" d="M742 960q21 0 31 -18l72 -125q8 -14 3 -22.5t-21 -8.5h-44q-17 0 -33 10l-189 132q-15 11 -12 21.5t22 10.5h171zM1254 596q-32 0 -45 -11.5t-13 -50.5v-192q0 -92 -26 -161t-83.5 -115.5t-151 -70t-228.5 -23.5t-230 23.5t-154.5 70t-87 115.5t-27.5 161v192 q0 39 -13 50.5t-45 11.5h-98q-26 0 -26 26v52q0 26 26 26h552q26 0 26 -26v-52q0 -26 -26 -26h-98q-32 0 -45 -11.5t-13 -50.5v-174q0 -68 14.5 -121t49 -89t92 -55t143.5 -19t143.5 20.5t92 57.5t49 89.5t14.5 116.5v174q0 39 -13 50.5t-45 11.5h-98q-26 0 -26 26v52 q0 26 26 26h462q26 0 26 -26v-52q0 -26 -26 -26h-98z"/>
<glyph glyph-name="Uacute" unicode="Ú" horiz-adv-x="1404" d="M940 960q19 0 22 -10.5t-12 -21.5l-189 -132q-16 -10 -33 -10h-44q-16 0 -21 8.5t3 22.5l72 125q10 18 31 18h171zM1254 596q-32 0 -45 -11.5t-13 -50.5v-192q0 -92 -26 -161t-83.5 -115.5t-151 -70t-228.5 -23.5t-230 23.5t-154.5 70t-87 115.5t-27.5 161v192 q0 39 -13 50.5t-45 11.5h-98q-26 0 -26 26v52q0 26 26 26h552q26 0 26 -26v-52q0 -26 -26 -26h-98q-32 0 -45 -11.5t-13 -50.5v-174q0 -68 14.5 -121t49 -89t92 -55t143.5 -19t143.5 20.5t92 57.5t49 89.5t14.5 116.5v174q0 39 -13 50.5t-45 11.5h-98q-26 0 -26 26v52 q0 26 26 26h462q26 0 26 -26v-52q0 -26 -26 -26h-98z"/>
<glyph glyph-name="Ucircumflex" unicode="Û" horiz-adv-x="1404" d="M655 961q13 13 32 13h134q19 0 32 -13l139 -139q12 -12 8 -22t-21 -10h-24q-17 0 -32 7l-151 74q-18 8 -36 0l-151 -74q-15 -7 -32 -7h-26q-17 0 -20 10t9 22zM1352 596q26 0 26 26v52q0 26 -26 26h-462q-26 0 -26 -26v-52q0 -26 26 -26h98q32 0 45 -11.5t13 -50.5v-174 q0 -64 -14.5 -116.5t-49 -89.5t-92 -57.5t-143.5 -20.5t-143.5 19t-92 55t-49 89t-14.5 121v174q0 39 13 50.5t45 11.5h98q26 0 26 26v52q0 26 -26 26h-552q-26 0 -26 -26v-52q0 -26 26 -26h98q32 0 45 -11.5t13 -50.5v-192q0 -92 27.5 -161t87 -115.5t154.5 -70t230 -23.5 t228.5 23.5t151 70t83.5 115.5t26 161v192q0 39 13 50.5t45 11.5h98z"/>
<glyph glyph-name="Udieresis" unicode="Ü" horiz-adv-x="1404" d="M625 780q-51 0 -79 21.5t-28 65.5q0 43 28 64.5t79 21.5t78.5 -21.5t27.5 -64.5q0 -44 -27.5 -65.5t-78.5 -21.5zM885 780q-51 0 -79 21.5t-28 65.5q0 43 28 64.5t79 21.5t78.5 -21.5t27.5 -64.5q0 -44 -27.5 -65.5t-78.5 -21.5zM1254 596q-32 0 -45 -11.5t-13 -50.5 v-192q0 -92 -26 -161t-83.5 -115.5t-151 -70t-228.5 -23.5t-230 23.5t-154.5 70t-87 115.5t-27.5 161v192q0 39 -13 50.5t-45 11.5h-98q-26 0 -26 26v52q0 26 26 26h552q26 0 26 -26v-52q0 -26 -26 -26h-98q-32 0 -45 -11.5t-13 -50.5v-174q0 -68 14.5 -121t49 -89t92 -55 t143.5 -19t143.5 20.5t92 57.5t49 89.5t14.5 116.5v174q0 39 -13 50.5t-45 11.5h-98q-26 0 -26 26v52q0 26 26 26h462q26 0 26 -26v-52q0 -26 -26 -26h-98z"/>
<glyph glyph-name="Yacute" unicode="Ý" horiz-adv-x="1260" d="M876 960q19 0 22 -10.5t-12 -21.5l-189 -132q-16 -10 -33 -10h-44q-16 0 -21 8.5t3 22.5l72 125q10 18 31 18h171zM780 267q-14 -13 -14 -32v-71q0 -38 15 -49t45 -11h102q26 0 26 -26v-52q0 -26 -26 -26h-564q-26 0 -26 26v52q0 26 26 26h102q30 0 45 11t15 49v59 q0 19 -14 32l-321 290q-35 31 -71.5 41t-85.5 10q-24 0 -24 26v52q0 26 26 26h530q26 0 26 -26v-52q0 -26 -26 -26h-66q-28 0 -34 -16t14 -33l197 -175q18 -15 36 1l193 174q20 17 14 33t-34 16h-66q-26 0 -26 26v52q0 26 26 26h404q26 0 26 -26v-52q0 -15 -5 -20.5 t-19 -5.5q-24 0 -43.5 -2t-37 -7.5t-33.5 -15.5t-33 -26z"/>
<glyph glyph-name="Thorn" unicode="Þ" horiz-adv-x="1313" d="M878 585q205 0 305.5 -51.5t100.5 -141.5t-100.5 -141.5t-305.5 -51.5h-375q-26 0 -26 -17v-18q0 -38 15 -49t45 -11h102q26 0 26 -26v-52q0 -26 -26 -26h-564q-26 0 -26 26v52q0 26 26 26h102q30 0 45 11t15 49v372q0 38 -15 49t-45 11h-102q-26 0 -26 26v52q0 26 26 26 h376q26 0 26 -26v-63q0 -26 26 -26h375zM844 303q50 0 86.5 3.5t60.5 13.5t35.5 27.5t11.5 44.5t-11.5 44.5t-35.5 27.5t-60.5 13.5t-86.5 3.5h-341q-26 0 -26 -26v-126q0 -26 26 -26h341z"/>
<glyph glyph-name="germandbls" unicode="ß" horiz-adv-x="2324" d="M944 482q-20 0 -30 19q-19 33 -56 55.5t-85 36.5t-104 20t-112 6q-57 0 -108 -4.5t-89.5 -15.5t-60.5 -28.5t-22 -42.5q0 -31 34.5 -47t101.5 -21l370 -29q60 -5 120 -13.5t107 -29t76.5 -57.5t29.5 -98q0 -68 -36.5 -117t-100 -81t-150.5 -47.5t-188 -15.5q-44 0 -95 3 t-103 11.5t-102 22.5t-90 35q-22 13 -35 -10l-8 -15q-9 -19 -30 -19h-85q-26 0 -26 26v181q0 26 26 26h105q20 0 30 -19q23 -39 64.5 -65t94 -41.5t112 -22t119.5 -6.5q55 0 104.5 5t86.5 16.5t58.5 28.5t21.5 41q0 58 -124 69l-369 30q-62 5 -122.5 16t-109.5 34.5 t-79 61.5t-30 96q0 49 21 87t57 65.5t83.5 46t100 30t106.5 16t104 4.5q58 0 112.5 -5t101.5 -14t86 -22t65 -28q24 -13 34 10l7 14q10 19 31 19h85q26 0 26 -26v-166q0 -26 -26 -26h-105zM2106 482q-20 0 -30 19q-19 33 -56 55.5t-85 36.5t-104 20t-112 6q-57 0 -108 -4.5 t-89.5 -15.5t-60.5 -28.5t-22 -42.5q0 -31 34.5 -47t101.5 -21l370 -29q60 -5 120 -13.5t107 -29t76.5 -57.5t29.5 -98q0 -68 -36.5 -117t-100 -81t-150.5 -47.5t-188 -15.5q-44 0 -95 3t-103 11.5t-102 22.5t-90 35q-22 13 -35 -10l-8 -15q-9 -19 -30 -19h-85q-26 0 -26 26 v181q0 26 26 26h105q20 0 30 -19q23 -39 64.5 -65t94 -41.5t112 -22t119.5 -6.5q55 0 104.5 5t86.5 16.5t58.5 28.5t21.5 41q0 58 -124 69l-369 30q-62 5 -122.5 16t-109.5 34.5t-79 61.5t-30 96q0 49 21 87t57 65.5t83.5 46t100 30t106.5 16t104 4.5q58 0 112.5 -5 t101.5 -14t86 -22t65 -28q24 -13 34 10l7 14q10 19 31 19h85q26 0 26 -26v-166q0 -26 -26 -26h-105z"/>
<glyph glyph-name="agrave" unicode="à" d="M653 960q21 0 31 -18l72 -125q8 -14 3 -22.5t-21 -8.5h-44q-17 0 -33 10l-189 132q-15 11 -12 21.5t22 10.5h171zM1370 104q17 0 17 -26v-52q0 -26 -26 -26h-520q-26 0 -26 26v52q0 26 26 26h79q32 0 40 18t-10 43l-26 36q-13 16 -32 16h-488q-19 0 -31 -16l-27 -36 q-19 -25 -10.5 -43t40.5 -18h83q26 0 26 -26v-52q0 -26 -26 -26h-419q-26 0 -26 26v52q0 26 17 26h17q25 0 43.5 3t33.5 10.5t28.5 20t28.5 32.5l277 365q20 26 12 43.5t-42 17.5h-50q-26 0 -26 26v52q0 26 26 26h430q20 0 32 -16l378 -514q14 -20 27.5 -32.5t29 -20 t34 -10.5t43.5 -3h17zM796 321q17 0 21.5 9t-5.5 23l-144 196q-8 11 -18 11t-18 -11l-146 -196q-10 -14 -5.5 -23t20.5 -9h295z"/>
<glyph glyph-name="aacute" unicode="á" d="M851 960q19 0 22 -10.5t-12 -21.5l-189 -132q-16 -10 -33 -10h-44q-16 0 -21 8.5t3 22.5l72 125q10 18 31 18h171zM1370 104q17 0 17 -26v-52q0 -26 -26 -26h-520q-26 0 -26 26v52q0 26 26 26h79q32 0 40 18t-10 43l-26 36q-13 16 -32 16h-488q-19 0 -31 -16l-27 -36 q-19 -25 -10.5 -43t40.5 -18h83q26 0 26 -26v-52q0 -26 -26 -26h-419q-26 0 -26 26v52q0 26 17 26h17q25 0 43.5 3t33.5 10.5t28.5 20t28.5 32.5l277 365q20 26 12 43.5t-42 17.5h-50q-26 0 -26 26v52q0 26 26 26h430q20 0 32 -16l378 -514q14 -20 27.5 -32.5t29 -20 t34 -10.5t43.5 -3h17zM796 321q17 0 21.5 9t-5.5 23l-144 196q-8 11 -18 11t-18 -11l-146 -196q-10 -14 -5.5 -23t20.5 -9h295z"/>
<glyph glyph-name="acircumflex" unicode="â" d="M566 961q13 13 32 13h134q19 0 32 -13l139 -139q12 -12 8 -22t-21 -10h-24q-17 0 -32 7l-151 74q-18 8 -36 0l-151 -74q-15 -7 -32 -7h-26q-17 0 -20 10t9 22zM1353 104q-25 0 -43.5 3t-34 10.5t-29 20t-27.5 32.5l-378 514q-12 16 -32 16h-430q-26 0 -26 -26v-52 q0 -26 26 -26h50q34 0 42 -17.5t-12 -43.5l-277 -365q-15 -20 -28.5 -32.5t-28.5 -20t-33.5 -10.5t-43.5 -3h-17q-17 0 -17 -26v-52q0 -26 26 -26h419q26 0 26 26v52q0 26 -26 26h-83q-32 0 -40.5 18t10.5 43l27 36q12 16 31 16h488q19 0 32 -16l26 -36q18 -25 10 -43 t-40 -18h-79q-26 0 -26 -26v-52q0 -26 26 -26h520q26 0 26 26v52q0 26 -17 26h-17zM501 321q-16 0 -20.5 9t5.5 23l146 196q8 11 18 11t18 -11l144 -196q10 -14 5.5 -23t-21.5 -9h-295z"/>
<glyph glyph-name="atilde" unicode="ã" d="M405 779q-26 0 -26 26v11q0 36 12 60.5t33 39.5t49 21.5t60 6.5q49 0 84 -10.5t63.5 -23.5t55.5 -23.5t59 -10.5q25 0 38.5 8.5t18.5 25.5q4 12 9.5 18t17.5 6h46q26 0 26 -26v-11q0 -36 -12 -60.5t-33 -39.5t-49 -21.5t-60 -6.5q-49 0 -83 10.5t-62 23.5t-55 23.5 t-62 10.5q-26 0 -39 -8.5t-18 -25.5q-4 -12 -9.5 -18t-17.5 -6h-46zM1353 104q-25 0 -43.5 3t-34 10.5t-29 20t-27.5 32.5l-378 514q-12 16 -32 16h-430q-26 0 -26 -26v-52q0 -26 26 -26h50q34 0 42 -17.5t-12 -43.5l-277 -365q-15 -20 -28.5 -32.5t-28.5 -20t-33.5 -10.5 t-43.5 -3h-17q-17 0 -17 -26v-52q0 -26 26 -26h419q26 0 26 26v52q0 26 -26 26h-83q-32 0 -40.5 18t10.5 43l27 36q12 16 31 16h488q19 0 32 -16l26 -36q18 -25 10 -43t-40 -18h-79q-26 0 -26 -26v-52q0 -26 26 -26h520q26 0 26 26v52q0 26 -17 26h-17zM501 321 q-16 0 -20.5 9t5.5 23l146 196q8 11 18 11t18 -11l144 -196q10 -14 5.5 -23t-21.5 -9h-295z"/>
<glyph glyph-name="adieresis" unicode="ä" d="M536 780q-51 0 -79 21.5t-28 65.5q0 43 28 64.5t79 21.5t78.5 -21.5t27.5 -64.5q0 -44 -27.5 -65.5t-78.5 -21.5zM796 780q-51 0 -79 21.5t-28 65.5q0 43 28 64.5t79 21.5t78.5 -21.5t27.5 -64.5q0 -44 -27.5 -65.5t-78.5 -21.5zM1370 104q17 0 17 -26v-52q0 -26 -26 -26 h-520q-26 0 -26 26v52q0 26 26 26h79q32 0 40 18t-10 43l-26 36q-13 16 -32 16h-488q-19 0 -31 -16l-27 -36q-19 -25 -10.5 -43t40.5 -18h83q26 0 26 -26v-52q0 -26 -26 -26h-419q-26 0 -26 26v52q0 26 17 26h17q25 0 43.5 3t33.5 10.5t28.5 20t28.5 32.5l277 365 q20 26 12 43.5t-42 17.5h-50q-26 0 -26 26v52q0 26 26 26h430q20 0 32 -16l378 -514q14 -20 27.5 -32.5t29 -20t34 -10.5t43.5 -3h17zM796 321q17 0 21.5 9t-5.5 23l-144 196q-8 11 -18 11t-18 -11l-146 -196q-10 -14 -5.5 -23t20.5 -9h295z"/>
<glyph glyph-name="aring" unicode="å" d="M665 770q-44 0 -81.5 8t-64.5 23.5t-42.5 38.5t-15.5 53t15.5 53t42.5 38.5t64.5 23.5t81.5 8q45 0 82.5 -8t64.5 -23.5t42.5 -38.5t15.5 -53t-15.5 -53t-42.5 -38.5t-64.5 -23.5t-82.5 -8zM580 893q0 -29 23 -44t62 -15q40 0 63 15t23 44t-23 44t-63 15q-39 0 -62 -15 t-23 -44zM1370 104q17 0 17 -26v-52q0 -26 -26 -26h-520q-26 0 -26 26v52q0 26 26 26h79q32 0 40 18t-10 43l-26 36q-13 16 -32 16h-488q-19 0 -31 -16l-27 -36q-19 -25 -10.5 -43t40.5 -18h83q26 0 26 -26v-52q0 -26 -26 -26h-419q-26 0 -26 26v52q0 26 17 26h17 q25 0 43.5 3t33.5 10.5t28.5 20t28.5 32.5l277 365q20 26 12 43.5t-42 17.5h-50q-26 0 -26 26v52q0 26 26 26h430q20 0 32 -16l378 -514q14 -20 27.5 -32.5t29 -20t34 -10.5t43.5 -3h17zM796 321q17 0 21.5 9t-5.5 23l-144 196q-8 11 -18 11t-18 -11l-146 -196 q-10 -14 -5.5 -23t20.5 -9h295z"/>
<glyph glyph-name="ae" unicode="æ" horiz-adv-x="2029" d="M1959 26q0 -26 -26 -26h-1133q-26 0 -26 26v52q0 26 26 26h102q30 0 45 11t15 49v47q0 26 -26 26h-428q-19 0 -32 -12l-74 -60q-11 -9 -14.5 -19.5t0 -19.5t14.5 -15.5t31 -6.5h84q26 0 26 -26v-52q0 -26 -26 -26h-493q-26 0 -26 26v52q0 26 26 26h10q50 0 88 10.5 t73 39.5l461 381q28 23 21.5 42t-37.5 19h-54q-26 0 -26 26v52q0 26 26 26h1337q26 0 26 -26v-214q0 -26 -26 -26h-79q-25 0 -27 25q-5 38 -13.5 64t-26 42.5t-46.5 23.5t-74 7h-429q-26 0 -26 -26v-137q0 -26 26 -26h184q34 0 55.5 5t33.5 15.5t16.5 28t4.5 41.5 q0 23 26 23h68q26 0 26 -26v-278q0 -26 -26 -26h-68q-26 0 -26 23q0 24 -4.5 41.5t-16.5 28t-33.5 15.5t-55.5 5h-184q-26 0 -26 -26v-147q0 -26 26 -26h439q45 0 74.5 10t47 31t26 52.5t12.5 73.5q2 25 27 25h79q26 0 26 -26v-244zM962 570q0 26 -18 26h-2q-18 0 -30 -12 l-257 -211q-14 -12 -10.5 -22t21.5 -10h270q26 0 26 26v203z"/>
<glyph glyph-name="ccedilla" unicode="ç" horiz-adv-x="1205" d="M1131 263q14 0 20.5 -7.5t1.5 -21.5q-42 -128 -159 -191t-313 -70l-10 -19q-15 -30 19 -19q12 4 27 6.5t34 2.5q33 0 62.5 -9t51 -25.5t34 -39t12.5 -50.5q0 -32 -16.5 -55.5t-44 -38.5t-63.5 -22.5t-76 -7.5q-30 0 -60.5 3.5t-58.5 9.5t-52 13.5t-42 15.5q-25 11 -10 35 l5 7q13 18 34 12q32 -8 67 -13t74 -5q47 0 68 9.5t21 36.5q0 46 -60 46q-21 0 -40 -5t-35 -10q-16 -7 -34 -1l-20 7q-25 10 -13 35l41 80q-128 3 -230.5 27t-174.5 70.5t-110.5 116.5t-38.5 164q0 97 42 168.5t118 118t181.5 69t232.5 22.5q115 0 198 -18.5t140 -54.5 q23 -14 36 8l11 19q11 18 32 18h93q26 0 26 -26v-202q0 -26 -26 -26h-112q-21 0 -30 20q-38 82 -115 120t-206 38q-97 0 -164.5 -19.5t-110 -55t-61.5 -86t-19 -113.5t19 -113.5t61.5 -86t110 -55t164.5 -19.5q129 0 216 38t118 127q5 11 11.5 16.5t18.5 5.5h104z"/>
<glyph glyph-name="egrave" unicode="è" horiz-adv-x="1304" d="M702 960q21 0 31 -18l72 -125q8 -14 3 -22.5t-21 -8.5h-44q-17 0 -33 10l-189 132q-15 11 -12 21.5t22 10.5h171zM503 596q-26 0 -26 -26v-137q0 -26 26 -26h184q34 0 55.5 5t33.5 15.5t16.5 28t4.5 41.5q0 23 26 23h68q26 0 26 -26v-278q0 -26 -26 -26h-68q-26 0 -26 23 q0 24 -4.5 41.5t-16.5 28t-33.5 15.5t-55.5 5h-184q-26 0 -26 -26v-147q0 -26 26 -26h439q45 0 74.5 10t47 31t26 52.5t12.5 73.5q2 25 27 25h79q26 0 26 -26v-244q0 -26 -26 -26h-1133q-26 0 -26 26v52q0 26 26 26h102q30 0 45 11t15 49v372q0 38 -15 49t-45 11h-102 q-26 0 -26 26v52q0 26 26 26h1123q26 0 26 -26v-214q0 -26 -26 -26h-79q-25 0 -27 25q-5 38 -13.5 64t-26 42.5t-46.5 23.5t-74 7h-429z"/>
<glyph glyph-name="eacute" unicode="é" horiz-adv-x="1304" d="M900 960q19 0 22 -10.5t-12 -21.5l-189 -132q-16 -10 -33 -10h-44q-16 0 -21 8.5t3 22.5l72 125q10 18 31 18h171zM503 596q-26 0 -26 -26v-137q0 -26 26 -26h184q34 0 55.5 5t33.5 15.5t16.5 28t4.5 41.5q0 23 26 23h68q26 0 26 -26v-278q0 -26 -26 -26h-68 q-26 0 -26 23q0 24 -4.5 41.5t-16.5 28t-33.5 15.5t-55.5 5h-184q-26 0 -26 -26v-147q0 -26 26 -26h439q45 0 74.5 10t47 31t26 52.5t12.5 73.5q2 25 27 25h79q26 0 26 -26v-244q0 -26 -26 -26h-1133q-26 0 -26 26v52q0 26 26 26h102q30 0 45 11t15 49v372q0 38 -15 49 t-45 11h-102q-26 0 -26 26v52q0 26 26 26h1123q26 0 26 -26v-214q0 -26 -26 -26h-79q-25 0 -27 25q-5 38 -13.5 64t-26 42.5t-46.5 23.5t-74 7h-429z"/>
<glyph glyph-name="ecircumflex" unicode="ê" horiz-adv-x="1304" d="M615 961q13 13 32 13h134q19 0 32 -13l139 -139q12 -12 8 -22t-21 -10h-24q-17 0 -32 7l-151 74q-18 8 -36 0l-151 -74q-15 -7 -32 -7h-26q-17 0 -20 10t9 22zM932 596q45 0 74 -7t46.5 -23.5t26 -42.5t13.5 -64q2 -25 27 -25h79q26 0 26 26v214q0 26 -26 26h-1123 q-26 0 -26 -26v-52q0 -26 26 -26h102q30 0 45 -11t15 -49v-372q0 -38 -15 -49t-45 -11h-102q-26 0 -26 -26v-52q0 -26 26 -26h1133q26 0 26 26v244q0 26 -26 26h-79q-25 0 -27 -25q-4 -42 -12.5 -73.5t-26 -52.5t-47 -31t-74.5 -10h-439q-26 0 -26 26v147q0 26 26 26h184 q34 0 55.5 -5t33.5 -15.5t16.5 -28t4.5 -41.5q0 -23 26 -23h68q26 0 26 26v278q0 26 -26 26h-68q-26 0 -26 -23q0 -24 -4.5 -41.5t-16.5 -28t-33.5 -15.5t-55.5 -5h-184q-26 0 -26 26v137q0 26 26 26h429z"/>
<glyph glyph-name="edieresis" unicode="ë" horiz-adv-x="1304" d="M585 780q-51 0 -79 21.5t-28 65.5q0 43 28 64.5t79 21.5t78.5 -21.5t27.5 -64.5q0 -44 -27.5 -65.5t-78.5 -21.5zM845 780q-51 0 -79 21.5t-28 65.5q0 43 28 64.5t79 21.5t78.5 -21.5t27.5 -64.5q0 -44 -27.5 -65.5t-78.5 -21.5zM503 596q-26 0 -26 -26v-137 q0 -26 26 -26h184q34 0 55.5 5t33.5 15.5t16.5 28t4.5 41.5q0 23 26 23h68q26 0 26 -26v-278q0 -26 -26 -26h-68q-26 0 -26 23q0 24 -4.5 41.5t-16.5 28t-33.5 15.5t-55.5 5h-184q-26 0 -26 -26v-147q0 -26 26 -26h439q45 0 74.5 10t47 31t26 52.5t12.5 73.5q2 25 27 25h79 q26 0 26 -26v-244q0 -26 -26 -26h-1133q-26 0 -26 26v52q0 26 26 26h102q30 0 45 11t15 49v372q0 38 -15 49t-45 11h-102q-26 0 -26 26v52q0 26 26 26h1123q26 0 26 -26v-214q0 -26 -26 -26h-79q-25 0 -27 25q-5 38 -13.5 64t-26 42.5t-46.5 23.5t-74 7h-429z"/>
<glyph glyph-name="igrave" unicode="ì" horiz-adv-x="714" d="M345 960q21 0 31 -18l72 -125q8 -14 3 -22.5t-21 -8.5h-44q-17 0 -33 10l-189 132q-15 11 -12 21.5t22 10.5h171zM477 164q0 -38 15 -49t45 -11h102q26 0 26 -26v-52q0 -26 -26 -26h-564q-26 0 -26 26v52q0 26 26 26h102q30 0 45 11t15 49v372q0 38 -15 49t-45 11h-102 q-26 0 -26 26v52q0 26 26 26h564q26 0 26 -26v-52q0 -26 -26 -26h-102q-30 0 -45 -11t-15 -49v-372z"/>
<glyph glyph-name="iacute" unicode="í" horiz-adv-x="714" d="M543 960q19 0 22 -10.5t-12 -21.5l-189 -132q-16 -10 -33 -10h-44q-16 0 -21 8.5t3 22.5l72 125q10 18 31 18h171zM477 164q0 -38 15 -49t45 -11h102q26 0 26 -26v-52q0 -26 -26 -26h-564q-26 0 -26 26v52q0 26 26 26h102q30 0 45 11t15 49v372q0 38 -15 49t-45 11h-102 q-26 0 -26 26v52q0 26 26 26h564q26 0 26 -26v-52q0 -26 -26 -26h-102q-30 0 -45 -11t-15 -49v-372z"/>
<glyph glyph-name="icircumflex" unicode="î" horiz-adv-x="714" d="M258 961q13 13 32 13h134q19 0 32 -13l139 -139q12 -12 8 -22t-21 -10h-24q-17 0 -32 7l-151 74q-18 8 -36 0l-151 -74q-15 -7 -32 -7h-26q-17 0 -20 10t9 22zM477 536q0 38 15 49t45 11h102q26 0 26 26v52q0 26 -26 26h-564q-26 0 -26 -26v-52q0 -26 26 -26h102 q30 0 45 -11t15 -49v-372q0 -38 -15 -49t-45 -11h-102q-26 0 -26 -26v-52q0 -26 26 -26h564q26 0 26 26v52q0 26 -26 26h-102q-30 0 -45 11t-15 49v372z"/>
<glyph glyph-name="idieresis" unicode="ï" horiz-adv-x="714" d="M228 780q-51 0 -79 21.5t-28 65.5q0 43 28 64.5t79 21.5t78.5 -21.5t27.5 -64.5q0 -44 -27.5 -65.5t-78.5 -21.5zM488 780q-51 0 -79 21.5t-28 65.5q0 43 28 64.5t79 21.5t78.5 -21.5t27.5 -64.5q0 -44 -27.5 -65.5t-78.5 -21.5zM477 164q0 -38 15 -49t45 -11h102 q26 0 26 -26v-52q0 -26 -26 -26h-564q-26 0 -26 26v52q0 26 26 26h102q30 0 45 11t15 49v372q0 38 -15 49t-45 11h-102q-26 0 -26 26v52q0 26 26 26h564q26 0 26 -26v-52q0 -26 -26 -26h-102q-30 0 -45 -11t-15 -49v-372z"/>
<glyph glyph-name="eth" unicode="ð" horiz-adv-x="1376" d="M704 700q315 0 472.5 -81t157.5 -264q0 -95 -39.5 -162.5t-118 -110.5t-197 -62.5t-275.5 -19.5h-629q-26 0 -26 26v52q0 26 26 26h102q30 0 45 11t15 49v125q0 26 -26 26h-136q-26 0 -26 26v46q0 26 26 26h136q26 0 26 26v97q0 38 -14 49t-46 11h-102q-26 0 -26 26v52 q0 26 26 26h629zM694 104q102 0 173.5 14.5t116 45t64.5 78t20 113.5q0 62 -20 107.5t-64.5 75t-116 44t-173.5 14.5h-191q-26 0 -26 -26v-131q0 -26 26 -26h154q26 0 26 -26v-46q0 -26 -26 -26h-154q-26 0 -26 -26v-159q0 -26 26 -26h191z"/>
<glyph glyph-name="ntilde" unicode="ñ" horiz-adv-x="1455" d="M472 779q-26 0 -26 26v11q0 36 12 60.5t33 39.5t49 21.5t60 6.5q49 0 84 -10.5t63.5 -23.5t55.5 -23.5t59 -10.5q25 0 38.5 8.5t18.5 25.5q4 12 9.5 18t17.5 6h46q26 0 26 -26v-11q0 -36 -12 -60.5t-33 -39.5t-49 -21.5t-60 -6.5q-49 0 -83 10.5t-62 23.5t-55 23.5 t-62 10.5q-26 0 -39 -8.5t-18 -25.5q-4 -12 -9.5 -18t-17.5 -6h-46zM933 701q-26 0 -26 -26v-52q0 -26 26 -26h102q30 0 45 -11t15 -49v-281q0 -17 -9.5 -21t-22.5 7l-512 446q-13 12 -32 12h-444q-26 0 -26 -26v-52q0 -26 26 -26h102q30 0 45 -11t15 -49v-372 q0 -38 -15 -49t-45 -11h-102q-26 0 -26 -26v-52q0 -26 26 -26h474q26 0 26 26v52q0 26 -26 26h-102q-30 0 -45 11t-15 49v325q0 17 9.5 21t22.5 -7l564 -491q13 -12 32 -12h204q26 0 26 26v511q0 38 15 49t45 11h98q26 0 26 26v52q0 26 -26 26h-470z"/>
<glyph glyph-name="ograve" unicode="ò" horiz-adv-x="1314" d="M645 960q21 0 31 -18l72 -125q8 -14 3 -22.5t-21 -8.5h-44q-17 0 -33 10l-189 132q-15 11 -12 21.5t22 10.5h171zM657 -28q-146 0 -260.5 22.5t-193.5 69t-120 117.5t-41 169q0 97 41 168.5t120 118t193.5 69t260.5 22.5t260.5 -22.5t193 -69t120 -118t41.5 -168.5 q0 -98 -41.5 -169t-120 -117.5t-193 -69t-260.5 -22.5zM308 350q0 -64 18 -114.5t59 -86t107.5 -54.5t164.5 -19q97 0 164 19t108 54.5t59 86t18 114.5t-16.5 114.5t-56.5 86t-107.5 54.5t-168.5 19q-98 0 -164.5 -19t-107.5 -54.5t-59 -86t-18 -114.5z"/>
<glyph glyph-name="oacute" unicode="ó" horiz-adv-x="1314" d="M843 960q19 0 22 -10.5t-12 -21.5l-189 -132q-16 -10 -33 -10h-44q-16 0 -21 8.5t3 22.5l72 125q10 18 31 18h171zM657 -28q-146 0 -260.5 22.5t-193.5 69t-120 117.5t-41 169q0 97 41 168.5t120 118t193.5 69t260.5 22.5t260.5 -22.5t193 -69t120 -118t41.5 -168.5 q0 -98 -41.5 -169t-120 -117.5t-193 -69t-260.5 -22.5zM308 350q0 -64 18 -114.5t59 -86t107.5 -54.5t164.5 -19q97 0 164 19t108 54.5t59 86t18 114.5t-16.5 114.5t-56.5 86t-107.5 54.5t-168.5 19q-98 0 -164.5 -19t-107.5 -54.5t-59 -86t-18 -114.5z"/>
<glyph glyph-name="ocircumflex" unicode="ô" horiz-adv-x="1314" d="M558 961q13 13 32 13h134q19 0 32 -13l139 -139q12 -12 8 -22t-21 -10h-24q-17 0 -32 7l-151 74q-18 8 -36 0l-151 -74q-15 -7 -32 -7h-26q-17 0 -20 10t9 22zM657 -28q146 0 260.5 22.5t193 69t120 117.5t41.5 169q0 97 -41.5 168.5t-120 118t-193 69t-260.5 22.5 t-260.5 -22.5t-193.5 -69t-120 -118t-41 -168.5q0 -98 41 -169t120 -117.5t193.5 -69t260.5 -22.5zM308 350q0 64 18 114.5t59 86t107.5 54.5t164.5 19q101 0 168.5 -19t107.5 -54.5t56.5 -86t16.5 -114.5t-18 -114.5t-59 -86t-108 -54.5t-164 -19q-98 0 -164.5 19 t-107.5 54.5t-59 86t-18 114.5z"/>
<glyph glyph-name="otilde" unicode="õ" horiz-adv-x="1314" d="M397 779q-26 0 -26 26v11q0 36 12 60.5t33 39.5t49 21.5t60 6.5q49 0 84 -10.5t63.5 -23.5t55.5 -23.5t59 -10.5q25 0 38.5 8.5t18.5 25.5q4 12 9.5 18t17.5 6h46q26 0 26 -26v-11q0 -36 -12 -60.5t-33 -39.5t-49 -21.5t-60 -6.5q-49 0 -83 10.5t-62 23.5t-55 23.5 t-62 10.5q-26 0 -39 -8.5t-18 -25.5q-4 -12 -9.5 -18t-17.5 -6h-46zM657 -28q146 0 260.5 22.5t193 69t120 117.5t41.5 169q0 97 -41.5 168.5t-120 118t-193 69t-260.5 22.5t-260.5 -22.5t-193.5 -69t-120 -118t-41 -168.5q0 -98 41 -169t120 -117.5t193.5 -69t260.5 -22.5z M308 350q0 64 18 114.5t59 86t107.5 54.5t164.5 19q101 0 168.5 -19t107.5 -54.5t56.5 -86t16.5 -114.5t-18 -114.5t-59 -86t-108 -54.5t-164 -19q-98 0 -164.5 19t-107.5 54.5t-59 86t-18 114.5z"/>
<glyph glyph-name="odieresis" unicode="ö" horiz-adv-x="1314" d="M528 780q-51 0 -79 21.5t-28 65.5q0 43 28 64.5t79 21.5t78.5 -21.5t27.5 -64.5q0 -44 -27.5 -65.5t-78.5 -21.5zM788 780q-51 0 -79 21.5t-28 65.5q0 43 28 64.5t79 21.5t78.5 -21.5t27.5 -64.5q0 -44 -27.5 -65.5t-78.5 -21.5zM657 -28q-146 0 -260.5 22.5t-193.5 69 t-120 117.5t-41 169q0 97 41 168.5t120 118t193.5 69t260.5 22.5t260.5 -22.5t193 -69t120 -118t41.5 -168.5q0 -98 -41.5 -169t-120 -117.5t-193 -69t-260.5 -22.5zM308 350q0 -64 18 -114.5t59 -86t107.5 -54.5t164.5 -19q97 0 164 19t108 54.5t59 86t18 114.5 t-16.5 114.5t-56.5 86t-107.5 54.5t-168.5 19q-98 0 -164.5 -19t-107.5 -54.5t-59 -86t-18 -114.5z"/>
<glyph glyph-name="divide" unicode="÷" horiz-adv-x="773" d="M387 486q-51 0 -79 21.5t-28 65.5q0 43 28 64.5t79 21.5t78.5 -21.5t27.5 -64.5q0 -44 -27.5 -65.5t-78.5 -21.5zM50 397q0 26 26 26h621q26 0 26 -26v-74q0 -26 -26 -26h-621q-26 0 -26 26v74zM387 61q-51 0 -79 21.5t-28 65.5q0 43 28 64.5t79 21.5t78.5 -21.5 t27.5 -64.5q0 -44 -27.5 -65.5t-78.5 -21.5z"/>
<glyph glyph-name="oslash" unicode="ø" horiz-adv-x="1314" d="M979 722q-17 -25 12 -35q137 -41 209 -123.5t72 -213.5q0 -98 -41.5 -169t-120 -117.5t-193 -69t-260.5 -22.5q-44 0 -84.5 2t-78.5 6q-22 1 -33 -15l-40 -58q-11 -17 -31 -17h-76q-16 0 -21 9t5 23l38 56q18 26 -13 34q-137 42 -209 124.5t-72 213.5q0 97 41 168.5 t120 118t193.5 69t260.5 22.5q44 0 85 -2t79 -6q20 -3 33 15l40 58q11 17 31 17h76q16 0 21 -9t-4 -23zM308 350q0 -73 23.5 -129t78.5 -91q22 -13 36 9l307 448q8 13 4 22t-19 11q-19 2 -39 3t-42 1q-98 0 -164.5 -19t-107.5 -54.5t-59 -86t-18 -114.5zM657 76q97 0 164 19 t108 54.5t59 86t18 114.5q0 74 -22 130t-78 91q-11 7 -20 4.5t-16 -12.5l-308 -450q-8 -13 -5.5 -22t15.5 -11q20 -2 41 -3t44 -1z"/>
<glyph glyph-name="ugrave" unicode="ù" horiz-adv-x="1404" d="M742 960q21 0 31 -18l72 -125q8 -14 3 -22.5t-21 -8.5h-44q-17 0 -33 10l-189 132q-15 11 -12 21.5t22 10.5h171zM1254 596q-32 0 -45 -11.5t-13 -50.5v-192q0 -92 -26 -161t-83.5 -115.5t-151 -70t-228.5 -23.5t-230 23.5t-154.5 70t-87 115.5t-27.5 161v192 q0 39 -13 50.5t-45 11.5h-98q-26 0 -26 26v52q0 26 26 26h552q26 0 26 -26v-52q0 -26 -26 -26h-98q-32 0 -45 -11.5t-13 -50.5v-174q0 -68 14.5 -121t49 -89t92 -55t143.5 -19t143.5 20.5t92 57.5t49 89.5t14.5 116.5v174q0 39 -13 50.5t-45 11.5h-98q-26 0 -26 26v52 q0 26 26 26h462q26 0 26 -26v-52q0 -26 -26 -26h-98z"/>
<glyph glyph-name="uacute" unicode="ú" horiz-adv-x="1404" d="M940 960q19 0 22 -10.5t-12 -21.5l-189 -132q-16 -10 -33 -10h-44q-16 0 -21 8.5t3 22.5l72 125q10 18 31 18h171zM1254 596q-32 0 -45 -11.5t-13 -50.5v-192q0 -92 -26 -161t-83.5 -115.5t-151 -70t-228.5 -23.5t-230 23.5t-154.5 70t-87 115.5t-27.5 161v192 q0 39 -13 50.5t-45 11.5h-98q-26 0 -26 26v52q0 26 26 26h552q26 0 26 -26v-52q0 -26 -26 -26h-98q-32 0 -45 -11.5t-13 -50.5v-174q0 -68 14.5 -121t49 -89t92 -55t143.5 -19t143.5 20.5t92 57.5t49 89.5t14.5 116.5v174q0 39 -13 50.5t-45 11.5h-98q-26 0 -26 26v52 q0 26 26 26h462q26 0 26 -26v-52q0 -26 -26 -26h-98z"/>
<glyph glyph-name="ucircumflex" unicode="û" horiz-adv-x="1404" d="M655 961q13 13 32 13h134q19 0 32 -13l139 -139q12 -12 8 -22t-21 -10h-24q-17 0 -32 7l-151 74q-18 8 -36 0l-151 -74q-15 -7 -32 -7h-26q-17 0 -20 10t9 22zM1352 596q26 0 26 26v52q0 26 -26 26h-462q-26 0 -26 -26v-52q0 -26 26 -26h98q32 0 45 -11.5t13 -50.5v-174 q0 -64 -14.5 -116.5t-49 -89.5t-92 -57.5t-143.5 -20.5t-143.5 19t-92 55t-49 89t-14.5 121v174q0 39 13 50.5t45 11.5h98q26 0 26 26v52q0 26 -26 26h-552q-26 0 -26 -26v-52q0 -26 26 -26h98q32 0 45 -11.5t13 -50.5v-192q0 -92 27.5 -161t87 -115.5t154.5 -70t230 -23.5 t228.5 23.5t151 70t83.5 115.5t26 161v192q0 39 13 50.5t45 11.5h98z"/>
<glyph glyph-name="udieresis" unicode="ü" horiz-adv-x="1404" d="M625 780q-51 0 -79 21.5t-28 65.5q0 43 28 64.5t79 21.5t78.5 -21.5t27.5 -64.5q0 -44 -27.5 -65.5t-78.5 -21.5zM885 780q-51 0 -79 21.5t-28 65.5q0 43 28 64.5t79 21.5t78.5 -21.5t27.5 -64.5q0 -44 -27.5 -65.5t-78.5 -21.5zM1254 596q-32 0 -45 -11.5t-13 -50.5 v-192q0 -92 -26 -161t-83.5 -115.5t-151 -70t-228.5 -23.5t-230 23.5t-154.5 70t-87 115.5t-27.5 161v192q0 39 -13 50.5t-45 11.5h-98q-26 0 -26 26v52q0 26 26 26h552q26 0 26 -26v-52q0 -26 -26 -26h-98q-32 0 -45 -11.5t-13 -50.5v-174q0 -68 14.5 -121t49 -89t92 -55 t143.5 -19t143.5 20.5t92 57.5t49 89.5t14.5 116.5v174q0 39 -13 50.5t-45 11.5h-98q-26 0 -26 26v52q0 26 26 26h462q26 0 26 -26v-52q0 -26 -26 -26h-98z"/>
<glyph glyph-name="yacute" unicode="ý" horiz-adv-x="1260" d="M876 960q19 0 22 -10.5t-12 -21.5l-189 -132q-16 -10 -33 -10h-44q-16 0 -21 8.5t3 22.5l72 125q10 18 31 18h171zM780 267q-14 -13 -14 -32v-71q0 -38 15 -49t45 -11h102q26 0 26 -26v-52q0 -26 -26 -26h-564q-26 0 -26 26v52q0 26 26 26h102q30 0 45 11t15 49v59 q0 19 -14 32l-321 290q-35 31 -71.5 41t-85.5 10q-24 0 -24 26v52q0 26 26 26h530q26 0 26 -26v-52q0 -26 -26 -26h-66q-28 0 -34 -16t14 -33l197 -175q18 -15 36 1l193 174q20 17 14 33t-34 16h-66q-26 0 -26 26v52q0 26 26 26h404q26 0 26 -26v-52q0 -15 -5 -20.5 t-19 -5.5q-24 0 -43.5 -2t-37 -7.5t-33.5 -15.5t-33 -26z"/>
<glyph glyph-name="thorn" unicode="þ" horiz-adv-x="1313" d="M878 585q205 0 305.5 -51.5t100.5 -141.5t-100.5 -141.5t-305.5 -51.5h-375q-26 0 -26 -17v-18q0 -38 15 -49t45 -11h102q26 0 26 -26v-52q0 -26 -26 -26h-564q-26 0 -26 26v52q0 26 26 26h102q30 0 45 11t15 49v372q0 38 -15 49t-45 11h-102q-26 0 -26 26v52q0 26 26 26 h376q26 0 26 -26v-63q0 -26 26 -26h375zM844 303q50 0 86.5 3.5t60.5 13.5t35.5 27.5t11.5 44.5t-11.5 44.5t-35.5 27.5t-60.5 13.5t-86.5 3.5h-341q-26 0 -26 -26v-126q0 -26 26 -26h341z"/>
<glyph glyph-name="ydieresis" unicode="ÿ" horiz-adv-x="1260" d="M561 780q-51 0 -79 21.5t-28 65.5q0 43 28 64.5t79 21.5t78.5 -21.5t27.5 -64.5q0 -44 -27.5 -65.5t-78.5 -21.5zM821 780q-51 0 -79 21.5t-28 65.5q0 43 28 64.5t79 21.5t78.5 -21.5t27.5 -64.5q0 -44 -27.5 -65.5t-78.5 -21.5zM780 267q-14 -13 -14 -32v-71 q0 -38 15 -49t45 -11h102q26 0 26 -26v-52q0 -26 -26 -26h-564q-26 0 -26 26v52q0 26 26 26h102q30 0 45 11t15 49v59q0 19 -14 32l-321 290q-35 31 -71.5 41t-85.5 10q-24 0 -24 26v52q0 26 26 26h530q26 0 26 -26v-52q0 -26 -26 -26h-66q-28 0 -34 -16t14 -33l197 -175 q18 -15 36 1l193 174q20 17 14 33t-34 16h-66q-26 0 -26 26v52q0 26 26 26h404q26 0 26 -26v-52q0 -15 -5 -20.5t-19 -5.5q-24 0 -43.5 -2t-37 -7.5t-33.5 -15.5t-33 -26z"/>
<glyph glyph-name="Amacron" unicode="Ā" d="M423 876q0 26 26 26h424q26 0 26 -26v-58q0 -26 -26 -26h-424q-26 0 -26 26v58zM1370 104q17 0 17 -26v-52q0 -26 -26 -26h-520q-26 0 -26 26v52q0 26 26 26h79q32 0 40 18t-10 43l-26 36q-13 16 -32 16h-488q-19 0 -31 -16l-27 -36q-19 -25 -10.5 -43t40.5 -18h83 q26 0 26 -26v-52q0 -26 -26 -26h-419q-26 0 -26 26v52q0 26 17 26h17q25 0 43.5 3t33.5 10.5t28.5 20t28.5 32.5l277 365q20 26 12 43.5t-42 17.5h-50q-26 0 -26 26v52q0 26 26 26h430q20 0 32 -16l378 -514q14 -20 27.5 -32.5t29 -20t34 -10.5t43.5 -3h17zM796 321 q17 0 21.5 9t-5.5 23l-144 196q-8 11 -18 11t-18 -11l-146 -196q-10 -14 -5.5 -23t20.5 -9h295z"/>
<glyph glyph-name="amacron" unicode="ā" d="M423 876q0 26 26 26h424q26 0 26 -26v-58q0 -26 -26 -26h-424q-26 0 -26 26v58zM1370 104q17 0 17 -26v-52q0 -26 -26 -26h-520q-26 0 -26 26v52q0 26 26 26h79q32 0 40 18t-10 43l-26 36q-13 16 -32 16h-488q-19 0 -31 -16l-27 -36q-19 -25 -10.5 -43t40.5 -18h83 q26 0 26 -26v-52q0 -26 -26 -26h-419q-26 0 -26 26v52q0 26 17 26h17q25 0 43.5 3t33.5 10.5t28.5 20t28.5 32.5l277 365q20 26 12 43.5t-42 17.5h-50q-26 0 -26 26v52q0 26 26 26h430q20 0 32 -16l378 -514q14 -20 27.5 -32.5t29 -20t34 -10.5t43.5 -3h17zM796 321 q17 0 21.5 9t-5.5 23l-144 196q-8 11 -18 11t-18 -11l-146 -196q-10 -14 -5.5 -23t20.5 -9h295z"/>
<glyph glyph-name="Abreve" unicode="Ă" d="M838 950q28 0 25 -26q-3 -22 -12.5 -47.5t-31.5 -48t-59.5 -37.5t-94.5 -15t-94.5 15t-59.5 37.5t-31.5 48t-12.5 47.5q-3 26 25 26h21q11 0 17.5 -5t11.5 -15q11 -20 40 -37t83 -17t83 17t40 37q5 10 11.5 15t17.5 5h21zM1370 104q17 0 17 -26v-52q0 -26 -26 -26h-520 q-26 0 -26 26v52q0 26 26 26h79q32 0 40 18t-10 43l-26 36q-13 16 -32 16h-488q-19 0 -31 -16l-27 -36q-19 -25 -10.5 -43t40.5 -18h83q26 0 26 -26v-52q0 -26 -26 -26h-419q-26 0 -26 26v52q0 26 17 26h17q25 0 43.5 3t33.5 10.5t28.5 20t28.5 32.5l277 365q20 26 12 43.5 t-42 17.5h-50q-26 0 -26 26v52q0 26 26 26h430q20 0 32 -16l378 -514q14 -20 27.5 -32.5t29 -20t34 -10.5t43.5 -3h17zM796 321q17 0 21.5 9t-5.5 23l-144 196q-8 11 -18 11t-18 -11l-146 -196q-10 -14 -5.5 -23t20.5 -9h295z"/>
<glyph glyph-name="abreve" unicode="ă" d="M838 950q28 0 25 -26q-3 -22 -12.5 -47.5t-31.5 -48t-59.5 -37.5t-94.5 -15t-94.5 15t-59.5 37.5t-31.5 48t-12.5 47.5q-3 26 25 26h21q11 0 17.5 -5t11.5 -15q11 -20 40 -37t83 -17t83 17t40 37q5 10 11.5 15t17.5 5h21zM1370 104q17 0 17 -26v-52q0 -26 -26 -26h-520 q-26 0 -26 26v52q0 26 26 26h79q32 0 40 18t-10 43l-26 36q-13 16 -32 16h-488q-19 0 -31 -16l-27 -36q-19 -25 -10.5 -43t40.5 -18h83q26 0 26 -26v-52q0 -26 -26 -26h-419q-26 0 -26 26v52q0 26 17 26h17q25 0 43.5 3t33.5 10.5t28.5 20t28.5 32.5l277 365q20 26 12 43.5 t-42 17.5h-50q-26 0 -26 26v52q0 26 26 26h430q20 0 32 -16l378 -514q14 -20 27.5 -32.5t29 -20t34 -10.5t43.5 -3h17zM796 321q17 0 21.5 9t-5.5 23l-144 196q-8 11 -18 11t-18 -11l-146 -196q-10 -14 -5.5 -23t20.5 -9h295z"/>
<glyph glyph-name="Aogonek" unicode="Ą" d="M1413 -165q4 -7 3.5 -15t-7.5 -16q-17 -22 -51 -41.5t-94 -19.5q-74 0 -106.5 31.5t-32.5 74.5q0 38 21.5 69t56.5 55q16 11 14 19t-21 8h-355q-26 0 -26 26v52q0 26 26 26h79q32 0 40 18t-10 43l-26 36q-13 16 -32 16h-487q-20 0 -32 -16l-27 -36q-19 -25 -10.5 -43 t40.5 -18h83q26 0 26 -26v-52q0 -26 -26 -26h-419q-26 0 -26 26v52q0 26 17 26h17q25 0 43.5 3t33.5 10.5t28.5 20t28.5 32.5l277 365q20 26 12 43.5t-42 17.5h-50q-26 0 -26 26v52q0 26 26 26h430q20 0 32 -16l378 -514q14 -20 27.5 -32.5t29 -20t34 -10.5t43.5 -3h8 q26 0 26 -26v-52q0 -26 -25 -26h-8q-10 0 -17.5 -2t-15.5 -8q-32 -23 -50 -51t-18 -59q0 -18 6.5 -29t16.5 -17.5t23 -8.5t27 -2q18 0 31.5 3t24.5 9q23 13 31 0zM668 549q-8 11 -18 11t-18 -11l-146 -196q-10 -14 -5.5 -23t21.5 -9h295q16 0 21 9t-5 23z"/>
<glyph glyph-name="aogonek" unicode="ą" d="M1413 -165q4 -7 3.5 -15t-7.5 -16q-17 -22 -51 -41.5t-94 -19.5q-74 0 -106.5 31.5t-32.5 74.5q0 38 21.5 69t56.5 55q16 11 14 19t-21 8h-355q-26 0 -26 26v52q0 26 26 26h79q32 0 40 18t-10 43l-26 36q-13 16 -32 16h-487q-20 0 -32 -16l-27 -36q-19 -25 -10.5 -43 t40.5 -18h83q26 0 26 -26v-52q0 -26 -26 -26h-419q-26 0 -26 26v52q0 26 17 26h17q25 0 43.5 3t33.5 10.5t28.5 20t28.5 32.5l277 365q20 26 12 43.5t-42 17.5h-50q-26 0 -26 26v52q0 26 26 26h430q20 0 32 -16l378 -514q14 -20 27.5 -32.5t29 -20t34 -10.5t43.5 -3h8 q26 0 26 -26v-52q0 -26 -25 -26h-8q-10 0 -17.5 -2t-15.5 -8q-32 -23 -50 -51t-18 -59q0 -18 6.5 -29t16.5 -17.5t23 -8.5t27 -2q18 0 31.5 3t24.5 9q23 13 31 0zM668 549q-8 11 -18 11t-18 -11l-146 -196q-10 -14 -5.5 -23t21.5 -9h295q16 0 21 9t-5 23z"/>
<glyph glyph-name="Cacute" unicode="Ć" horiz-adv-x="1205" d="M833 960q19 0 22 -10.5t-12 -21.5l-189 -132q-16 -10 -33 -10h-44q-16 0 -21 8.5t3 22.5l72 125q10 18 31 18h171zM1014 446q-21 0 -30 20q-38 82 -115 120t-206 38q-97 0 -164.5 -19.5t-110 -55t-61.5 -86t-19 -113.5t19 -113.5t61.5 -86t110 -55t164.5 -19.5 q129 0 216 38t118 127q5 11 11.5 16.5t18.5 5.5h104q14 0 20.5 -7.5t1.5 -21.5q-45 -137 -175 -199.5t-351 -62.5q-134 0 -242.5 22.5t-184.5 69t-117 118t-41 168.5t42 168.5t118 118t181.5 69t232.5 22.5q115 0 198 -18.5t140 -54.5q23 -14 36 8l11 19q11 18 32 18h93 q26 0 26 -26v-202q0 -26 -26 -26h-112z"/>
<glyph glyph-name="cacute" unicode="ć" horiz-adv-x="1205" d="M833 960q19 0 22 -10.5t-12 -21.5l-189 -132q-16 -10 -33 -10h-44q-16 0 -21 8.5t3 22.5l72 125q10 18 31 18h171zM1014 446q-21 0 -30 20q-38 82 -115 120t-206 38q-97 0 -164.5 -19.5t-110 -55t-61.5 -86t-19 -113.5t19 -113.5t61.5 -86t110 -55t164.5 -19.5 q129 0 216 38t118 127q5 11 11.5 16.5t18.5 5.5h104q14 0 20.5 -7.5t1.5 -21.5q-45 -137 -175 -199.5t-351 -62.5q-134 0 -242.5 22.5t-184.5 69t-117 118t-41 168.5t42 168.5t118 118t181.5 69t232.5 22.5q115 0 198 -18.5t140 -54.5q23 -14 36 8l11 19q11 18 32 18h93 q26 0 26 -26v-202q0 -26 -26 -26h-112z"/>
<glyph glyph-name="Cdotaccent" unicode="Ċ" horiz-adv-x="1205" d="M647 780q-51 0 -79 21.5t-28 65.5q0 43 28 64.5t79 21.5t78.5 -21.5t27.5 -64.5q0 -44 -27.5 -65.5t-78.5 -21.5zM1014 446q-21 0 -30 20q-38 82 -115 120t-206 38q-97 0 -164.5 -19.5t-110 -55t-61.5 -86t-19 -113.5t19 -113.5t61.5 -86t110 -55t164.5 -19.5 q129 0 216 38t118 127q5 11 11.5 16.5t18.5 5.5h104q14 0 20.5 -7.5t1.5 -21.5q-45 -137 -175 -199.5t-351 -62.5q-134 0 -242.5 22.5t-184.5 69t-117 118t-41 168.5t42 168.5t118 118t181.5 69t232.5 22.5q115 0 198 -18.5t140 -54.5q23 -14 36 8l11 19q11 18 32 18h93 q26 0 26 -26v-202q0 -26 -26 -26h-112z"/>
<glyph glyph-name="cdotaccent" unicode="ċ" horiz-adv-x="1205" d="M647 780q-51 0 -79 21.5t-28 65.5q0 43 28 64.5t79 21.5t78.5 -21.5t27.5 -64.5q0 -44 -27.5 -65.5t-78.5 -21.5zM1014 446q-21 0 -30 20q-38 82 -115 120t-206 38q-97 0 -164.5 -19.5t-110 -55t-61.5 -86t-19 -113.5t19 -113.5t61.5 -86t110 -55t164.5 -19.5 q129 0 216 38t118 127q5 11 11.5 16.5t18.5 5.5h104q14 0 20.5 -7.5t1.5 -21.5q-45 -137 -175 -199.5t-351 -62.5q-134 0 -242.5 22.5t-184.5 69t-117 118t-41 168.5t42 168.5t118 118t181.5 69t232.5 22.5q115 0 198 -18.5t140 -54.5q23 -14 36 8l11 19q11 18 32 18h93 q26 0 26 -26v-202q0 -26 -26 -26h-112z"/>
<glyph glyph-name="Ccaron" unicode="Č" horiz-adv-x="1205" d="M446 974q17 0 32 -7l151 -74q18 -8 36 0l151 74q15 7 32 7h26q17 0 20 -10t-9 -22l-139 -139q-13 -13 -32 -13h-134q-19 0 -32 13l-139 139q-12 12 -9 22t20 10h26zM1126 446q26 0 26 26v202q0 26 -26 26h-93q-21 0 -32 -18l-11 -19q-13 -22 -36 -8q-57 36 -140 54.5 t-198 18.5q-127 0 -232.5 -22.5t-181.5 -69t-118 -118t-42 -168.5t41 -168.5t117 -118t184.5 -69t242.5 -22.5q221 0 351 62.5t175 199.5q5 14 -1.5 21.5t-20.5 7.5h-104q-12 0 -18.5 -5.5t-11.5 -16.5q-31 -89 -118 -127t-216 -38q-97 0 -164.5 19.5t-110 55t-61.5 86 t-19 113.5t19 113.5t61.5 86t110 55t164.5 19.5q129 0 206 -38t115 -120q9 -20 30 -20h112z"/>
<glyph glyph-name="ccaron" unicode="č" horiz-adv-x="1205" d="M446 974q17 0 32 -7l151 -74q18 -8 36 0l151 74q15 7 32 7h26q17 0 20 -10t-9 -22l-139 -139q-13 -13 -32 -13h-134q-19 0 -32 13l-139 139q-12 12 -9 22t20 10h26zM1126 446q26 0 26 26v202q0 26 -26 26h-93q-21 0 -32 -18l-11 -19q-13 -22 -36 -8q-57 36 -140 54.5 t-198 18.5q-127 0 -232.5 -22.5t-181.5 -69t-118 -118t-42 -168.5t41 -168.5t117 -118t184.5 -69t242.5 -22.5q221 0 351 62.5t175 199.5q5 14 -1.5 21.5t-20.5 7.5h-104q-12 0 -18.5 -5.5t-11.5 -16.5q-31 -89 -118 -127t-216 -38q-97 0 -164.5 19.5t-110 55t-61.5 86 t-19 113.5t19 113.5t61.5 86t110 55t164.5 19.5q129 0 206 -38t115 -120q9 -20 30 -20h112z"/>
<glyph glyph-name="Dcaron" unicode="Ď" horiz-adv-x="1376" d="M523 974q17 0 32 -7l151 -74q18 -8 36 0l151 74q15 7 32 7h26q17 0 20 -10t-9 -22l-139 -139q-13 -13 -32 -13h-134q-19 0 -32 13l-139 139q-12 12 -9 22t20 10h26zM75 700q-26 0 -26 -26v-52q0 -26 26 -26h102q32 0 46 -11t14 -49v-372q0 -38 -15 -49t-45 -11h-102 q-26 0 -26 -26v-52q0 -26 26 -26h629q157 0 275.5 19.5t197 62.5t118 110.5t39.5 162.5q0 183 -157.5 264t-472.5 81h-629zM1068 355q0 -66 -20 -113.5t-64.5 -78t-116 -45t-173.5 -14.5h-191q-26 0 -26 26v440q0 26 26 26h191q102 0 173.5 -14.5t116 -44t64.5 -75 t20 -107.5z"/>
<glyph glyph-name="dcaron" unicode="ď" horiz-adv-x="1376" d="M523 974q17 0 32 -7l151 -74q18 -8 36 0l151 74q15 7 32 7h26q17 0 20 -10t-9 -22l-139 -139q-13 -13 -32 -13h-134q-19 0 -32 13l-139 139q-12 12 -9 22t20 10h26zM75 700q-26 0 -26 -26v-52q0 -26 26 -26h102q32 0 46 -11t14 -49v-372q0 -38 -15 -49t-45 -11h-102 q-26 0 -26 -26v-52q0 -26 26 -26h629q157 0 275.5 19.5t197 62.5t118 110.5t39.5 162.5q0 183 -157.5 264t-472.5 81h-629zM1068 355q0 -66 -20 -113.5t-64.5 -78t-116 -45t-173.5 -14.5h-191q-26 0 -26 26v440q0 26 26 26h191q102 0 173.5 -14.5t116 -44t64.5 -75 t20 -107.5z"/>
<glyph glyph-name="Dcroat" unicode="Đ" horiz-adv-x="1376" d="M704 700q315 0 472.5 -81t157.5 -264q0 -95 -39.5 -162.5t-118 -110.5t-197 -62.5t-275.5 -19.5h-629q-26 0 -26 26v52q0 26 26 26h102q30 0 45 11t15 49v125q0 26 -26 26h-136q-26 0 -26 26v46q0 26 26 26h136q26 0 26 26v97q0 38 -14 49t-46 11h-102q-26 0 -26 26v52 q0 26 26 26h629zM694 104q102 0 173.5 14.5t116 45t64.5 78t20 113.5q0 62 -20 107.5t-64.5 75t-116 44t-173.5 14.5h-191q-26 0 -26 -26v-131q0 -26 26 -26h154q26 0 26 -26v-46q0 -26 -26 -26h-154q-26 0 -26 -26v-159q0 -26 26 -26h191z"/>
<glyph glyph-name="dcroat" unicode="đ" horiz-adv-x="1376" d="M704 700q315 0 472.5 -81t157.5 -264q0 -95 -39.5 -162.5t-118 -110.5t-197 -62.5t-275.5 -19.5h-629q-26 0 -26 26v52q0 26 26 26h102q30 0 45 11t15 49v125q0 26 -26 26h-136q-26 0 -26 26v46q0 26 26 26h136q26 0 26 26v97q0 38 -14 49t-46 11h-102q-26 0 -26 26v52 q0 26 26 26h629zM694 104q102 0 173.5 14.5t116 45t64.5 78t20 113.5q0 62 -20 107.5t-64.5 75t-116 44t-173.5 14.5h-191q-26 0 -26 -26v-131q0 -26 26 -26h154q26 0 26 -26v-46q0 -26 -26 -26h-154q-26 0 -26 -26v-159q0 -26 26 -26h191z"/>
<glyph glyph-name="Emacron" unicode="Ē" horiz-adv-x="1304" d="M472 876q0 26 26 26h424q26 0 26 -26v-58q0 -26 -26 -26h-424q-26 0 -26 26v58zM503 596q-26 0 -26 -26v-137q0 -26 26 -26h184q34 0 55.5 5t33.5 15.5t16.5 28t4.5 41.5q0 23 26 23h68q26 0 26 -26v-278q0 -26 -26 -26h-68q-26 0 -26 23q0 24 -4.5 41.5t-16.5 28 t-33.5 15.5t-55.5 5h-184q-26 0 -26 -26v-147q0 -26 26 -26h439q45 0 74.5 10t47 31t26 52.5t12.5 73.5q2 25 27 25h79q26 0 26 -26v-244q0 -26 -26 -26h-1133q-26 0 -26 26v52q0 26 26 26h102q30 0 45 11t15 49v372q0 38 -15 49t-45 11h-102q-26 0 -26 26v52q0 26 26 26 h1123q26 0 26 -26v-214q0 -26 -26 -26h-79q-25 0 -27 25q-5 38 -13.5 64t-26 42.5t-46.5 23.5t-74 7h-429z"/>
<glyph glyph-name="emacron" unicode="ē" horiz-adv-x="1304" d="M472 876q0 26 26 26h424q26 0 26 -26v-58q0 -26 -26 -26h-424q-26 0 -26 26v58zM503 596q-26 0 -26 -26v-137q0 -26 26 -26h184q34 0 55.5 5t33.5 15.5t16.5 28t4.5 41.5q0 23 26 23h68q26 0 26 -26v-278q0 -26 -26 -26h-68q-26 0 -26 23q0 24 -4.5 41.5t-16.5 28 t-33.5 15.5t-55.5 5h-184q-26 0 -26 -26v-147q0 -26 26 -26h439q45 0 74.5 10t47 31t26 52.5t12.5 73.5q2 25 27 25h79q26 0 26 -26v-244q0 -26 -26 -26h-1133q-26 0 -26 26v52q0 26 26 26h102q30 0 45 11t15 49v372q0 38 -15 49t-45 11h-102q-26 0 -26 26v52q0 26 26 26 h1123q26 0 26 -26v-214q0 -26 -26 -26h-79q-25 0 -27 25q-5 38 -13.5 64t-26 42.5t-46.5 23.5t-74 7h-429z"/>
<glyph glyph-name="Edotaccent" unicode="Ė" horiz-adv-x="1304" d="M714 780q-51 0 -79 21.5t-28 65.5q0 43 28 64.5t79 21.5t78.5 -21.5t27.5 -64.5q0 -44 -27.5 -65.5t-78.5 -21.5zM503 596q-26 0 -26 -26v-137q0 -26 26 -26h184q34 0 55.5 5t33.5 15.5t16.5 28t4.5 41.5q0 23 26 23h68q26 0 26 -26v-278q0 -26 -26 -26h-68q-26 0 -26 23 q0 24 -4.5 41.5t-16.5 28t-33.5 15.5t-55.5 5h-184q-26 0 -26 -26v-147q0 -26 26 -26h439q45 0 74.5 10t47 31t26 52.5t12.5 73.5q2 25 27 25h79q26 0 26 -26v-244q0 -26 -26 -26h-1133q-26 0 -26 26v52q0 26 26 26h102q30 0 45 11t15 49v372q0 38 -15 49t-45 11h-102 q-26 0 -26 26v52q0 26 26 26h1123q26 0 26 -26v-214q0 -26 -26 -26h-79q-25 0 -27 25q-5 38 -13.5 64t-26 42.5t-46.5 23.5t-74 7h-429z"/>
<glyph glyph-name="edotaccent" unicode="ė" horiz-adv-x="1304" d="M714 780q-51 0 -79 21.5t-28 65.5q0 43 28 64.5t79 21.5t78.5 -21.5t27.5 -64.5q0 -44 -27.5 -65.5t-78.5 -21.5zM503 596q-26 0 -26 -26v-137q0 -26 26 -26h184q34 0 55.5 5t33.5 15.5t16.5 28t4.5 41.5q0 23 26 23h68q26 0 26 -26v-278q0 -26 -26 -26h-68q-26 0 -26 23 q0 24 -4.5 41.5t-16.5 28t-33.5 15.5t-55.5 5h-184q-26 0 -26 -26v-147q0 -26 26 -26h439q45 0 74.5 10t47 31t26 52.5t12.5 73.5q2 25 27 25h79q26 0 26 -26v-244q0 -26 -26 -26h-1133q-26 0 -26 26v52q0 26 26 26h102q30 0 45 11t15 49v372q0 38 -15 49t-45 11h-102 q-26 0 -26 26v52q0 26 26 26h1123q26 0 26 -26v-214q0 -26 -26 -26h-79q-25 0 -27 25q-5 38 -13.5 64t-26 42.5t-46.5 23.5t-74 7h-429z"/>
<glyph glyph-name="Eogonek" unicode="Ę" horiz-adv-x="1304" d="M1311 -165q4 -7 3.5 -15t-7.5 -16q-17 -22 -51 -41.5t-94 -19.5q-74 0 -106.5 31.5t-32.5 74.5q0 38 21.5 69t56.5 55q16 11 14 19t-21 8h-1019q-26 0 -26 26v52q0 26 26 26h102q30 0 45 11t15 49v372q0 38 -15 49t-45 11h-102q-26 0 -26 26v52q0 26 26 26h1123 q26 0 26 -26v-214q0 -26 -26 -26h-79q-25 0 -27 25q-5 38 -13.5 64t-26 42.5t-46.5 23.5t-74 7h-429q-26 0 -26 -26v-137q0 -26 26 -26h184q34 0 55.5 5t33.5 15.5t16.5 28t4.5 41.5q0 23 26 23h68q26 0 26 -26v-278q0 -26 -26 -26h-68q-26 0 -26 23q0 24 -4.5 41.5 t-16.5 28t-33.5 15.5t-55.5 5h-184q-26 0 -26 -26v-147q0 -26 26 -26h439q45 0 74.5 10t47 31t26 52.5t12.5 73.5q2 25 27 25h79q26 0 26 -26v-250q0 -19 -17 -32q-31 -23 -48.5 -50.5t-17.5 -57.5q0 -18 6.5 -29t16.5 -17.5t23 -8.5t27 -2q18 0 31.5 3t24.5 9q23 13 31 0z "/>
<glyph glyph-name="eogonek" unicode="ę" horiz-adv-x="1304" d="M1311 -165q4 -7 3.5 -15t-7.5 -16q-17 -22 -51 -41.5t-94 -19.5q-74 0 -106.5 31.5t-32.5 74.5q0 38 21.5 69t56.5 55q16 11 14 19t-21 8h-1019q-26 0 -26 26v52q0 26 26 26h102q30 0 45 11t15 49v372q0 38 -15 49t-45 11h-102q-26 0 -26 26v52q0 26 26 26h1123 q26 0 26 -26v-214q0 -26 -26 -26h-79q-25 0 -27 25q-5 38 -13.5 64t-26 42.5t-46.5 23.5t-74 7h-429q-26 0 -26 -26v-137q0 -26 26 -26h184q34 0 55.5 5t33.5 15.5t16.5 28t4.5 41.5q0 23 26 23h68q26 0 26 -26v-278q0 -26 -26 -26h-68q-26 0 -26 23q0 24 -4.5 41.5 t-16.5 28t-33.5 15.5t-55.5 5h-184q-26 0 -26 -26v-147q0 -26 26 -26h439q45 0 74.5 10t47 31t26 52.5t12.5 73.5q2 25 27 25h79q26 0 26 -26v-250q0 -19 -17 -32q-31 -23 -48.5 -50.5t-17.5 -57.5q0 -18 6.5 -29t16.5 -17.5t23 -8.5t27 -2q18 0 31.5 3t24.5 9q23 13 31 0z "/>
<glyph glyph-name="Ecaron" unicode="Ě" horiz-adv-x="1304" d="M513 974q17 0 32 -7l151 -74q18 -8 36 0l151 74q15 7 32 7h26q17 0 20 -10t-9 -22l-139 -139q-13 -13 -32 -13h-134q-19 0 -32 13l-139 139q-12 12 -9 22t20 10h26zM932 596q45 0 74 -7t46.5 -23.5t26 -42.5t13.5 -64q2 -25 27 -25h79q26 0 26 26v214q0 26 -26 26h-1123 q-26 0 -26 -26v-52q0 -26 26 -26h102q30 0 45 -11t15 -49v-372q0 -38 -15 -49t-45 -11h-102q-26 0 -26 -26v-52q0 -26 26 -26h1133q26 0 26 26v244q0 26 -26 26h-79q-25 0 -27 -25q-4 -42 -12.5 -73.5t-26 -52.5t-47 -31t-74.5 -10h-439q-26 0 -26 26v147q0 26 26 26h184 q34 0 55.5 -5t33.5 -15.5t16.5 -28t4.5 -41.5q0 -23 26 -23h68q26 0 26 26v278q0 26 -26 26h-68q-26 0 -26 -23q0 -24 -4.5 -41.5t-16.5 -28t-33.5 -15.5t-55.5 -5h-184q-26 0 -26 26v137q0 26 26 26h429z"/>
<glyph glyph-name="ecaron" unicode="ě" horiz-adv-x="1304" d="M513 974q17 0 32 -7l151 -74q18 -8 36 0l151 74q15 7 32 7h26q17 0 20 -10t-9 -22l-139 -139q-13 -13 -32 -13h-134q-19 0 -32 13l-139 139q-12 12 -9 22t20 10h26zM932 596q45 0 74 -7t46.5 -23.5t26 -42.5t13.5 -64q2 -25 27 -25h79q26 0 26 26v214q0 26 -26 26h-1123 q-26 0 -26 -26v-52q0 -26 26 -26h102q30 0 45 -11t15 -49v-372q0 -38 -15 -49t-45 -11h-102q-26 0 -26 -26v-52q0 -26 26 -26h1133q26 0 26 26v244q0 26 -26 26h-79q-25 0 -27 -25q-4 -42 -12.5 -73.5t-26 -52.5t-47 -31t-74.5 -10h-439q-26 0 -26 26v147q0 26 26 26h184 q34 0 55.5 -5t33.5 -15.5t16.5 -28t4.5 -41.5q0 -23 26 -23h68q26 0 26 26v278q0 26 -26 26h-68q-26 0 -26 -23q0 -24 -4.5 -41.5t-16.5 -28t-33.5 -15.5t-55.5 -5h-184q-26 0 -26 26v137q0 26 26 26h429z"/>
<glyph glyph-name="Gbreve" unicode="Ğ" horiz-adv-x="1337" d="M826 950q28 0 25 -26q-3 -22 -12.5 -47.5t-31.5 -48t-59.5 -37.5t-94.5 -15t-94.5 15t-59.5 37.5t-31.5 48t-12.5 47.5q-3 26 25 26h21q11 0 17.5 -5t11.5 -15q11 -20 40 -37t83 -17t83 17t40 37q5 10 11.5 15t17.5 5h21zM1285 386q26 0 26 -26v-58q0 -26 -25 -26h-25 q-19 0 -30.5 -2.5t-18 -9t-9 -18t-2.5 -30.5v-190q0 -26 -26 -26h-89q-23 0 -29 22l-14 48q-10 31 -34 10q-27 -24 -62 -43.5t-80 -34t-101.5 -22.5t-125.5 -8q-139 0 -249.5 22.5t-188 69t-119 117.5t-41.5 169q0 97 41.5 168.5t119 118t188 69t249.5 22.5q120 0 205 -19 t141 -54q23 -14 36 8l11 19q11 18 32 18h93q26 0 26 -26v-201q0 -26 -26 -26h-112q-21 0 -30 20q-37 76 -119.5 116.5t-228.5 40.5q-102 0 -171 -19t-111 -54.5t-60 -86t-18 -114.5t18.5 -114.5t61 -86t111 -54.5t169.5 -19q80 0 140.5 16.5t101 41.5t61 54t20.5 54 q0 34 -47 34h-149q-26 0 -26 26v58q0 26 26 26h490z"/>
<glyph glyph-name="gbreve" unicode="ğ" horiz-adv-x="1337" d="M826 950q28 0 25 -26q-3 -22 -12.5 -47.5t-31.5 -48t-59.5 -37.5t-94.5 -15t-94.5 15t-59.5 37.5t-31.5 48t-12.5 47.5q-3 26 25 26h21q11 0 17.5 -5t11.5 -15q11 -20 40 -37t83 -17t83 17t40 37q5 10 11.5 15t17.5 5h21zM1285 386q26 0 26 -26v-58q0 -26 -25 -26h-25 q-19 0 -30.5 -2.5t-18 -9t-9 -18t-2.5 -30.5v-190q0 -26 -26 -26h-89q-23 0 -29 22l-14 48q-10 31 -34 10q-27 -24 -62 -43.5t-80 -34t-101.5 -22.5t-125.5 -8q-139 0 -249.5 22.5t-188 69t-119 117.5t-41.5 169q0 97 41.5 168.5t119 118t188 69t249.5 22.5q120 0 205 -19 t141 -54q23 -14 36 8l11 19q11 18 32 18h93q26 0 26 -26v-201q0 -26 -26 -26h-112q-21 0 -30 20q-37 76 -119.5 116.5t-228.5 40.5q-102 0 -171 -19t-111 -54.5t-60 -86t-18 -114.5t18.5 -114.5t61 -86t111 -54.5t169.5 -19q80 0 140.5 16.5t101 41.5t61 54t20.5 54 q0 34 -47 34h-149q-26 0 -26 26v58q0 26 26 26h490z"/>
<glyph glyph-name="Gdotaccent" unicode="Ġ" horiz-adv-x="1337" d="M653 780q-51 0 -79 21.5t-28 65.5q0 43 28 64.5t79 21.5t78.5 -21.5t27.5 -64.5q0 -44 -27.5 -65.5t-78.5 -21.5zM1285 386q26 0 26 -26v-58q0 -26 -25 -26h-25q-19 0 -30.5 -2.5t-18 -9t-9 -18t-2.5 -30.5v-190q0 -26 -26 -26h-89q-23 0 -29 22l-14 48q-10 31 -34 10 q-27 -24 -62 -43.5t-80 -34t-101.5 -22.5t-125.5 -8q-139 0 -249.5 22.5t-188 69t-119 117.5t-41.5 169q0 97 41.5 168.5t119 118t188 69t249.5 22.5q120 0 205 -19t141 -54q23 -14 36 8l11 19q11 18 32 18h93q26 0 26 -26v-201q0 -26 -26 -26h-112q-21 0 -30 20 q-37 76 -119.5 116.5t-228.5 40.5q-102 0 -171 -19t-111 -54.5t-60 -86t-18 -114.5t18.5 -114.5t61 -86t111 -54.5t169.5 -19q80 0 140.5 16.5t101 41.5t61 54t20.5 54q0 34 -47 34h-149q-26 0 -26 26v58q0 26 26 26h490z"/>
<glyph glyph-name="gdotaccent" unicode="ġ" horiz-adv-x="1337" d="M653 780q-51 0 -79 21.5t-28 65.5q0 43 28 64.5t79 21.5t78.5 -21.5t27.5 -64.5q0 -44 -27.5 -65.5t-78.5 -21.5zM1285 386q26 0 26 -26v-58q0 -26 -25 -26h-25q-19 0 -30.5 -2.5t-18 -9t-9 -18t-2.5 -30.5v-190q0 -26 -26 -26h-89q-23 0 -29 22l-14 48q-10 31 -34 10 q-27 -24 -62 -43.5t-80 -34t-101.5 -22.5t-125.5 -8q-139 0 -249.5 22.5t-188 69t-119 117.5t-41.5 169q0 97 41.5 168.5t119 118t188 69t249.5 22.5q120 0 205 -19t141 -54q23 -14 36 8l11 19q11 18 32 18h93q26 0 26 -26v-201q0 -26 -26 -26h-112q-21 0 -30 20 q-37 76 -119.5 116.5t-228.5 40.5q-102 0 -171 -19t-111 -54.5t-60 -86t-18 -114.5t18.5 -114.5t61 -86t111 -54.5t169.5 -19q80 0 140.5 16.5t101 41.5t61 54t20.5 54q0 34 -47 34h-149q-26 0 -26 26v58q0 26 26 26h490z"/>
<glyph glyph-name="uni0122" unicode="Ģ" horiz-adv-x="1337" d="M1285 386q26 0 26 -26v-58q0 -26 -25 -26h-25q-19 0 -30.5 -2.5t-18 -9t-9 -18t-2.5 -30.5v-190q0 -26 -26 -26h-89q-23 0 -29 22l-14 48q-10 31 -34 10q-27 -24 -62 -43.5t-80 -34t-101.5 -22.5t-125.5 -8q-139 0 -249.5 22.5t-188 69t-119 117.5t-41.5 169 q0 97 41.5 168.5t119 118t188 69t249.5 22.5q120 0 205 -19t141 -54q23 -14 36 8l11 19q11 18 32 18h93q26 0 26 -26v-201q0 -26 -26 -26h-112q-21 0 -30 20q-37 76 -119.5 116.5t-228.5 40.5q-102 0 -171 -19t-111 -54.5t-60 -86t-18 -114.5t18.5 -114.5t61 -86t111 -54.5 t169.5 -19q80 0 140.5 16.5t101 41.5t61 54t20.5 54q0 34 -47 34h-149q-26 0 -26 26v58q0 26 26 26h490zM620 -300q-47 0 -74 32t-27 79q0 27 9.5 50t27 39.5t41 26t52.5 9.5q61 0 101 -43.5t40 -129.5q0 -53 -16 -92.5t-42 -68t-60 -46t-70 -25.5q-24 -6 -32 18l-8 23 q-8 26 19 32q49 13 79.5 39.5t36.5 78.5q1 6 -2.5 7.5t-8.5 -4.5q-13 -13 -30 -19t-36 -6z"/>
<glyph glyph-name="uni0123" unicode="ģ" horiz-adv-x="1337" d="M1285 386q26 0 26 -26v-58q0 -26 -25 -26h-25q-19 0 -30.5 -2.5t-18 -9t-9 -18t-2.5 -30.5v-190q0 -26 -26 -26h-89q-23 0 -29 22l-14 48q-10 31 -34 10q-27 -24 -62 -43.5t-80 -34t-101.5 -22.5t-125.5 -8q-139 0 -249.5 22.5t-188 69t-119 117.5t-41.5 169 q0 97 41.5 168.5t119 118t188 69t249.5 22.5q120 0 205 -19t141 -54q23 -14 36 8l11 19q11 18 32 18h93q26 0 26 -26v-201q0 -26 -26 -26h-112q-21 0 -30 20q-37 76 -119.5 116.5t-228.5 40.5q-102 0 -171 -19t-111 -54.5t-60 -86t-18 -114.5t18.5 -114.5t61 -86t111 -54.5 t169.5 -19q80 0 140.5 16.5t101 41.5t61 54t20.5 54q0 34 -47 34h-149q-26 0 -26 26v58q0 26 26 26h490zM620 -300q-47 0 -74 32t-27 79q0 27 9.5 50t27 39.5t41 26t52.5 9.5q61 0 101 -43.5t40 -129.5q0 -53 -16 -92.5t-42 -68t-60 -46t-70 -25.5q-24 -6 -32 18l-8 23 q-8 26 19 32q49 13 79.5 39.5t36.5 78.5q1 6 -2.5 7.5t-8.5 -4.5q-13 -13 -30 -19t-36 -6z"/>
<glyph glyph-name="Hbar" unicode="Ħ" horiz-adv-x="1502" d="M1325 596q-30 0 -45 -10t-15 -42q0 -12 6.5 -16.5t19.5 -4.5h136q26 0 26 -24t-26 -24h-136q-26 0 -26 -26v-285q0 -38 15 -49t45 -11h102q26 0 26 -26v-52q0 -26 -26 -26h-564q-26 0 -26 26v52q0 26 26 26h102q30 0 45 11t15 49v114q0 26 -26 26h-496q-26 0 -26 -26 v-114q0 -38 15 -49t45 -11h102q26 0 26 -26v-52q0 -26 -26 -26h-564q-26 0 -26 26v52q0 26 26 26h102q30 0 45 11t15 49v285q0 26 -26 26h-136q-26 0 -26 24t26 24h136q13 0 19.5 4.5t6.5 16.5q0 32 -15 42t-45 10h-102q-26 0 -26 26v52q0 26 26 26h564q26 0 26 -26v-52 q0 -26 -26 -26h-102q-30 0 -45 -10t-15 -42q0 -12 6.5 -16.5t19.5 -4.5h496q13 0 19.5 4.5t6.5 16.5q0 32 -15 42t-45 10h-102q-26 0 -26 26v52q0 26 26 26h564q26 0 26 -26v-52q0 -26 -26 -26h-102zM503 475q-26 0 -26 -20v-21q0 -26 26 -26h496q26 0 26 26v21 q0 13 -6.5 16.5t-19.5 3.5h-496z"/>
<glyph glyph-name="hbar" unicode="ħ" horiz-adv-x="1502" d="M1325 596q-30 0 -45 -10t-15 -42q0 -12 6.5 -16.5t19.5 -4.5h136q26 0 26 -24t-26 -24h-136q-26 0 -26 -26v-285q0 -38 15 -49t45 -11h102q26 0 26 -26v-52q0 -26 -26 -26h-564q-26 0 -26 26v52q0 26 26 26h102q30 0 45 11t15 49v114q0 26 -26 26h-496q-26 0 -26 -26 v-114q0 -38 15 -49t45 -11h102q26 0 26 -26v-52q0 -26 -26 -26h-564q-26 0 -26 26v52q0 26 26 26h102q30 0 45 11t15 49v285q0 26 -26 26h-136q-26 0 -26 24t26 24h136q13 0 19.5 4.5t6.5 16.5q0 32 -15 42t-45 10h-102q-26 0 -26 26v52q0 26 26 26h564q26 0 26 -26v-52 q0 -26 -26 -26h-102q-30 0 -45 -10t-15 -42q0 -12 6.5 -16.5t19.5 -4.5h496q13 0 19.5 4.5t6.5 16.5q0 32 -15 42t-45 10h-102q-26 0 -26 26v52q0 26 26 26h564q26 0 26 -26v-52q0 -26 -26 -26h-102zM503 475q-26 0 -26 -20v-21q0 -26 26 -26h496q26 0 26 26v21 q0 13 -6.5 16.5t-19.5 3.5h-496z"/>
<glyph glyph-name="Imacron" unicode="Ī" horiz-adv-x="714" d="M115 876q0 26 26 26h424q26 0 26 -26v-58q0 -26 -26 -26h-424q-26 0 -26 26v58zM477 164q0 -38 15 -49t45 -11h102q26 0 26 -26v-52q0 -26 -26 -26h-564q-26 0 -26 26v52q0 26 26 26h102q30 0 45 11t15 49v372q0 38 -15 49t-45 11h-102q-26 0 -26 26v52q0 26 26 26h564 q26 0 26 -26v-52q0 -26 -26 -26h-102q-30 0 -45 -11t-15 -49v-372z"/>
<glyph glyph-name="imacron" unicode="ī" horiz-adv-x="714" d="M115 876q0 26 26 26h424q26 0 26 -26v-58q0 -26 -26 -26h-424q-26 0 -26 26v58zM477 164q0 -38 15 -49t45 -11h102q26 0 26 -26v-52q0 -26 -26 -26h-564q-26 0 -26 26v52q0 26 26 26h102q30 0 45 11t15 49v372q0 38 -15 49t-45 11h-102q-26 0 -26 26v52q0 26 26 26h564 q26 0 26 -26v-52q0 -26 -26 -26h-102q-30 0 -45 -11t-15 -49v-372z"/>
<glyph glyph-name="Iogonek" unicode="Į" horiz-adv-x="714" d="M537 596q-30 0 -45 -11t-15 -49v-372q0 -38 15 -49t45 -11h102q26 0 26 -26v-52q0 -26 -26 -26h-69q-10 0 -17.5 -2t-15.5 -8q-32 -23 -50 -51t-18 -59q0 -18 6.5 -29t16.5 -17.5t23 -8.5t27 -2q33 0 56 12q23 13 31 0q9 -15 -4 -31q-17 -22 -51 -41.5t-94 -19.5 q-74 0 -106.5 31.5t-32.5 74.5q0 38 21.5 69t56.5 55q16 11 14 19t-21 8h-337q-26 0 -26 26v52q0 26 26 26h102q30 0 45 11t15 49v372q0 38 -15 49t-45 11h-102q-26 0 -26 26v52q0 26 26 26h564q26 0 26 -26v-52q0 -26 -26 -26h-102z"/>
<glyph glyph-name="iogonek" unicode="į" horiz-adv-x="714" d="M537 596q-30 0 -45 -11t-15 -49v-372q0 -38 15 -49t45 -11h102q26 0 26 -26v-52q0 -26 -26 -26h-69q-10 0 -17.5 -2t-15.5 -8q-32 -23 -50 -51t-18 -59q0 -18 6.5 -29t16.5 -17.5t23 -8.5t27 -2q33 0 56 12q23 13 31 0q9 -15 -4 -31q-17 -22 -51 -41.5t-94 -19.5 q-74 0 -106.5 31.5t-32.5 74.5q0 38 21.5 69t56.5 55q16 11 14 19t-21 8h-337q-26 0 -26 26v52q0 26 26 26h102q30 0 45 11t15 49v372q0 38 -15 49t-45 11h-102q-26 0 -26 26v52q0 26 26 26h564q26 0 26 -26v-52q0 -26 -26 -26h-102z"/>
<glyph glyph-name="Idotaccent" unicode="İ" horiz-adv-x="714" d="M357 780q-51 0 -79 21.5t-28 65.5q0 43 28 64.5t79 21.5t78.5 -21.5t27.5 -64.5q0 -44 -27.5 -65.5t-78.5 -21.5zM477 164q0 -38 15 -49t45 -11h102q26 0 26 -26v-52q0 -26 -26 -26h-564q-26 0 -26 26v52q0 26 26 26h102q30 0 45 11t15 49v372q0 38 -15 49t-45 11h-102 q-26 0 -26 26v52q0 26 26 26h564q26 0 26 -26v-52q0 -26 -26 -26h-102q-30 0 -45 -11t-15 -49v-372z"/>
<glyph glyph-name="IJ" unicode="Ĳ" horiz-adv-x="1813" d="M477 164q0 -38 15 -49t45 -11h102q26 0 26 -26v-52q0 -26 -26 -26h-564q-26 0 -26 26v52q0 26 26 26h102q30 0 45 11t15 49v372q0 38 -15 49t-45 11h-102q-26 0 -26 26v52q0 26 26 26h564q26 0 26 -26v-52q0 -26 -26 -26h-102q-30 0 -45 -11t-15 -49v-372zM854 225 q-24 16 -12 -8q15 -30 41.5 -54.5t61 -42.5t74.5 -28t81 -10q49 0 96.5 15.5t84.5 48.5t59.5 83.5t22.5 120.5v186q0 38 -15 49t-45 11h-102q-26 0 -26 26v52q0 26 26 26h560q26 0 26 -26v-52q0 -26 -26 -26h-98q-30 0 -45 -11t-15 -49v-224q0 -86 -37.5 -150t-99.5 -106 t-141 -63t-161 -21q-84 0 -164 21t-143 60.5t-101.5 95.5t-38.5 126q0 46 16.5 81.5t43.5 58.5t60.5 35t67.5 12q28 0 54.5 -8.5t47 -25t32.5 -42t12 -58.5q0 -43 -20 -72t-50 -42.5t-64.5 -11t-62.5 22.5z"/>
<glyph glyph-name="ij" unicode="ĳ" horiz-adv-x="1813" d="M477 164q0 -38 15 -49t45 -11h102q26 0 26 -26v-52q0 -26 -26 -26h-564q-26 0 -26 26v52q0 26 26 26h102q30 0 45 11t15 49v372q0 38 -15 49t-45 11h-102q-26 0 -26 26v52q0 26 26 26h564q26 0 26 -26v-52q0 -26 -26 -26h-102q-30 0 -45 -11t-15 -49v-372zM854 225 q-24 16 -12 -8q15 -30 41.5 -54.5t61 -42.5t74.5 -28t81 -10q49 0 96.5 15.5t84.5 48.5t59.5 83.5t22.5 120.5v186q0 38 -15 49t-45 11h-102q-26 0 -26 26v52q0 26 26 26h560q26 0 26 -26v-52q0 -26 -26 -26h-98q-30 0 -45 -11t-15 -49v-224q0 -86 -37.5 -150t-99.5 -106 t-141 -63t-161 -21q-84 0 -164 21t-143 60.5t-101.5 95.5t-38.5 126q0 46 16.5 81.5t43.5 58.5t60.5 35t67.5 12q28 0 54.5 -8.5t47 -25t32.5 -42t12 -58.5q0 -43 -20 -72t-50 -42.5t-64.5 -11t-62.5 22.5z"/>
<glyph glyph-name="uni0136" unicode="Ķ" horiz-adv-x="1430" d="M1428 26q0 -26 -26 -26h-573q-26 0 -26 26v52q0 26 26 26h58q32 0 33 17.5t-20 34.5l-202 168q-15 14 -35 5l-166 -73q-20 -9 -20 -31v-61q0 -38 15 -49t45 -11h88q26 0 26 -26v-52q0 -26 -26 -26h-550q-26 0 -26 26v52q0 26 26 26h102q30 0 45 11t15 49v372q0 38 -15 49 t-45 11h-102q-26 0 -26 26v52q0 26 26 26h550q26 0 26 -26v-52q0 -26 -26 -26h-88q-30 0 -45 -11t-15 -49v-134q0 -14 8 -19.5t22 0.5l383 172q17 7 23 14.5t5 13.5t-8 9.5t-16 3.5h-59q-26 0 -26 26v52q0 26 26 26h531q26 0 26 -26v-52q0 -26 -24 -26h-24q-24 0 -44.5 -2 t-41 -6.5t-42 -12.5t-46.5 -19l-250 -111q-14 -6 -15 -16t10 -20l287 -241q21 -18 42 -30t44 -19.5t49 -11t58 -3.5h7q26 0 26 -26v-52zM712 -300q-47 0 -74 32t-27 79q0 27 9.5 50t27 39.5t41 26t52.5 9.5q61 0 101 -43.5t40 -129.5q0 -53 -16 -92.5t-42 -68t-60 -46 t-70 -25.5q-24 -6 -32 18l-8 23q-8 26 19 32q49 13 79.5 39.5t36.5 78.5q1 6 -2.5 7.5t-8.5 -4.5q-13 -13 -30 -19t-36 -6z"/>
<glyph glyph-name="uni0137" unicode="ķ" horiz-adv-x="1430" d="M1428 26q0 -26 -26 -26h-573q-26 0 -26 26v52q0 26 26 26h58q32 0 33 17.5t-20 34.5l-202 168q-15 14 -35 5l-166 -73q-20 -9 -20 -31v-61q0 -38 15 -49t45 -11h88q26 0 26 -26v-52q0 -26 -26 -26h-550q-26 0 -26 26v52q0 26 26 26h102q30 0 45 11t15 49v372q0 38 -15 49 t-45 11h-102q-26 0 -26 26v52q0 26 26 26h550q26 0 26 -26v-52q0 -26 -26 -26h-88q-30 0 -45 -11t-15 -49v-134q0 -14 8 -19.5t22 0.5l383 172q17 7 23 14.5t5 13.5t-8 9.5t-16 3.5h-59q-26 0 -26 26v52q0 26 26 26h531q26 0 26 -26v-52q0 -26 -24 -26h-24q-24 0 -44.5 -2 t-41 -6.5t-42 -12.5t-46.5 -19l-250 -111q-14 -6 -15 -16t10 -20l287 -241q21 -18 42 -30t44 -19.5t49 -11t58 -3.5h7q26 0 26 -26v-52zM712 -300q-47 0 -74 32t-27 79q0 27 9.5 50t27 39.5t41 26t52.5 9.5q61 0 101 -43.5t40 -129.5q0 -53 -16 -92.5t-42 -68t-60 -46 t-70 -25.5q-24 -6 -32 18l-8 23q-8 26 19 32q49 13 79.5 39.5t36.5 78.5q1 6 -2.5 7.5t-8.5 -4.5q-13 -13 -30 -19t-36 -6z"/>
<glyph glyph-name="Lacute" unicode="Ĺ" horiz-adv-x="1187" d="M543 960q19 0 22 -10.5t-12 -21.5l-189 -132q-16 -10 -33 -10h-44q-16 0 -21 8.5t3 22.5l72 125q10 18 31 18h171zM1122 316q26 0 26 -26v-264q0 -26 -26 -26h-1047q-26 0 -26 26v52q0 26 26 26h102q30 0 45 11t15 49v372q0 38 -15 49t-45 11h-102q-26 0 -26 26v52 q0 26 26 26h564q26 0 26 -26v-52q0 -26 -26 -26h-102q-30 0 -45 -11t-15 -49v-406q0 -26 26 -26h323q53 0 87.5 10.5t56 33.5t31.5 58t15 85q3 25 27 25h79z"/>
<glyph glyph-name="lacute" unicode="ĺ" horiz-adv-x="1187" d="M543 960q19 0 22 -10.5t-12 -21.5l-189 -132q-16 -10 -33 -10h-44q-16 0 -21 8.5t3 22.5l72 125q10 18 31 18h171zM1122 316q26 0 26 -26v-264q0 -26 -26 -26h-1047q-26 0 -26 26v52q0 26 26 26h102q30 0 45 11t15 49v372q0 38 -15 49t-45 11h-102q-26 0 -26 26v52 q0 26 26 26h564q26 0 26 -26v-52q0 -26 -26 -26h-102q-30 0 -45 -11t-15 -49v-406q0 -26 26 -26h323q53 0 87.5 10.5t56 33.5t31.5 58t15 85q3 25 27 25h79z"/>
<glyph glyph-name="uni013B" unicode="Ļ" horiz-adv-x="1187" d="M1122 316q26 0 26 -26v-264q0 -26 -26 -26h-1047q-26 0 -26 26v52q0 26 26 26h102q30 0 45 11t15 49v372q0 38 -15 49t-45 11h-102q-26 0 -26 26v52q0 26 26 26h564q26 0 26 -26v-52q0 -26 -26 -26h-102q-30 0 -45 -11t-15 -49v-406q0 -26 26 -26h323q53 0 87.5 10.5 t56 33.5t31.5 58t15 85q3 25 27 25h79zM596 -300q-47 0 -74 32t-27 79q0 27 9.5 50t27 39.5t41 26t52.5 9.5q61 0 101 -43.5t40 -129.5q0 -53 -16 -92.5t-42 -68t-60 -46t-70 -25.5q-24 -6 -32 18l-8 23q-8 26 19 32q49 13 79.5 39.5t36.5 78.5q1 6 -2.5 7.5t-8.5 -4.5 q-13 -13 -30 -19t-36 -6z"/>
<glyph glyph-name="uni013C" unicode="ļ" horiz-adv-x="1187" d="M1122 316q26 0 26 -26v-264q0 -26 -26 -26h-1047q-26 0 -26 26v52q0 26 26 26h102q30 0 45 11t15 49v372q0 38 -15 49t-45 11h-102q-26 0 -26 26v52q0 26 26 26h564q26 0 26 -26v-52q0 -26 -26 -26h-102q-30 0 -45 -11t-15 -49v-406q0 -26 26 -26h323q53 0 87.5 10.5 t56 33.5t31.5 58t15 85q3 25 27 25h79zM596 -300q-47 0 -74 32t-27 79q0 27 9.5 50t27 39.5t41 26t52.5 9.5q61 0 101 -43.5t40 -129.5q0 -53 -16 -92.5t-42 -68t-60 -46t-70 -25.5q-24 -6 -32 18l-8 23q-8 26 19 32q49 13 79.5 39.5t36.5 78.5q1 6 -2.5 7.5t-8.5 -4.5 q-13 -13 -30 -19t-36 -6z"/>
<glyph glyph-name="Lcaron" unicode="Ľ" horiz-adv-x="1187" d="M835 478q-47 0 -74 32t-27 79q0 27 9.5 50t27 39.5t41 26t52.5 9.5q61 0 101 -43.5t40 -129.5q0 -53 -16 -92.5t-42 -68t-60 -46t-70 -25.5q-24 -6 -32 18l-8 23q-8 26 19 32q49 13 79.5 39.5t36.5 78.5q1 6 -2.5 7.5t-8.5 -4.5q-13 -13 -30 -19t-36 -6zM1122 316 q26 0 26 -26v-264q0 -26 -26 -26h-1047q-26 0 -26 26v52q0 26 26 26h102q30 0 45 11t15 49v372q0 38 -15 49t-45 11h-102q-26 0 -26 26v52q0 26 26 26h564q26 0 26 -26v-52q0 -26 -26 -26h-102q-30 0 -45 -11t-15 -49v-406q0 -26 26 -26h323q53 0 87.5 10.5t56 33.5t31.5 58 t15 85q3 25 27 25h79z"/>
<glyph glyph-name="lcaron" unicode="ľ" horiz-adv-x="1187" d="M835 478q-47 0 -74 32t-27 79q0 27 9.5 50t27 39.5t41 26t52.5 9.5q61 0 101 -43.5t40 -129.5q0 -53 -16 -92.5t-42 -68t-60 -46t-70 -25.5q-24 -6 -32 18l-8 23q-8 26 19 32q49 13 79.5 39.5t36.5 78.5q1 6 -2.5 7.5t-8.5 -4.5q-13 -13 -30 -19t-36 -6zM1122 316 q26 0 26 -26v-264q0 -26 -26 -26h-1047q-26 0 -26 26v52q0 26 26 26h102q30 0 45 11t15 49v372q0 38 -15 49t-45 11h-102q-26 0 -26 26v52q0 26 26 26h564q26 0 26 -26v-52q0 -26 -26 -26h-102q-30 0 -45 -11t-15 -49v-406q0 -26 26 -26h323q53 0 87.5 10.5t56 33.5t31.5 58 t15 85q3 25 27 25h79z"/>
<glyph glyph-name="Ldot" unicode="Ŀ" horiz-adv-x="1187" d="M1122 316q26 0 26 -26v-264q0 -26 -26 -26h-1047q-26 0 -26 26v52q0 26 26 26h102q30 0 45 11t15 49v372q0 38 -15 49t-45 11h-102q-26 0 -26 26v52q0 26 26 26h564q26 0 26 -26v-52q0 -26 -26 -26h-102q-30 0 -45 -11t-15 -49v-406q0 -26 26 -26h323q53 0 87.5 10.5 t56 33.5t31.5 58t15 85q3 25 27 25h79zM771 279q-29 0 -53.5 9.5t-41.5 25.5t-26.5 38t-9.5 48q0 25 9.5 47t26.5 38t41.5 25.5t53.5 9.5t53 -9.5t41 -25.5t26.5 -38t9.5 -47q0 -26 -9.5 -48t-26.5 -38t-41 -25.5t-53 -9.5z"/>
<glyph glyph-name="ldot" unicode="ŀ" horiz-adv-x="1187" d="M1122 316q26 0 26 -26v-264q0 -26 -26 -26h-1047q-26 0 -26 26v52q0 26 26 26h102q30 0 45 11t15 49v372q0 38 -15 49t-45 11h-102q-26 0 -26 26v52q0 26 26 26h564q26 0 26 -26v-52q0 -26 -26 -26h-102q-30 0 -45 -11t-15 -49v-406q0 -26 26 -26h323q53 0 87.5 10.5 t56 33.5t31.5 58t15 85q3 25 27 25h79zM771 279q-29 0 -53.5 9.5t-41.5 25.5t-26.5 38t-9.5 48q0 25 9.5 47t26.5 38t41.5 25.5t53.5 9.5t53 -9.5t41 -25.5t26.5 -38t9.5 -47q0 -26 -9.5 -48t-26.5 -38t-41 -25.5t-53 -9.5z"/>
<glyph glyph-name="Lslash" unicode="Ł" horiz-adv-x="1187" d="M1122 316q26 0 26 -26v-264q0 -26 -26 -26h-1047q-26 0 -26 26v52q0 26 26 26h102q30 0 45 11t15 49v98q0 29 -29 23l-128 -29q-29 -6 -29 23v37q0 23 23 28l140 31q23 5 23 28v133q0 38 -15 49t-45 11h-102q-26 0 -26 26v52q0 26 26 26h564q26 0 26 -26v-52 q0 -26 -26 -26h-102q-30 0 -45 -11t-15 -49v-75q0 -29 29 -23l130 29q29 6 29 -23v-37q0 -23 -23 -28l-142 -31q-23 -5 -23 -28v-190q0 -26 26 -26h323q53 0 87.5 10.5t56 33.5t31.5 58t15 85q3 25 27 25h79z"/>
<glyph glyph-name="lslash" unicode="ł" horiz-adv-x="1187" d="M1122 316q26 0 26 -26v-264q0 -26 -26 -26h-1047q-26 0 -26 26v52q0 26 26 26h102q30 0 45 11t15 49v98q0 29 -29 23l-128 -29q-29 -6 -29 23v37q0 23 23 28l140 31q23 5 23 28v133q0 38 -15 49t-45 11h-102q-26 0 -26 26v52q0 26 26 26h564q26 0 26 -26v-52 q0 -26 -26 -26h-102q-30 0 -45 -11t-15 -49v-75q0 -29 29 -23l130 29q29 6 29 -23v-37q0 -23 -23 -28l-142 -31q-23 -5 -23 -28v-190q0 -26 26 -26h323q53 0 87.5 10.5t56 33.5t31.5 58t15 85q3 25 27 25h79z"/>
<glyph glyph-name="Nacute" unicode="Ń" horiz-adv-x="1455" d="M918 960q19 0 22 -10.5t-12 -21.5l-189 -132q-16 -10 -33 -10h-44q-16 0 -21 8.5t3 22.5l72 125q10 18 31 18h171zM1403 701q26 0 26 -26v-52q0 -26 -26 -26h-98q-30 0 -45 -11t-15 -49v-511q0 -26 -26 -26h-204q-19 0 -32 12l-564 491q-13 11 -22.5 7t-9.5 -21v-325 q0 -38 15 -49t45 -11h102q26 0 26 -26v-52q0 -26 -26 -26h-474q-26 0 -26 26v52q0 26 26 26h102q30 0 45 11t15 49v372q0 38 -15 49t-45 11h-102q-26 0 -26 26v52q0 26 26 26h444q19 0 32 -12l512 -446q13 -11 22.5 -7t9.5 21v281q0 38 -15 49t-45 11h-102q-26 0 -26 26v52 q0 26 26 26h470z"/>
<glyph glyph-name="nacute" unicode="ń" horiz-adv-x="1455" d="M918 960q19 0 22 -10.5t-12 -21.5l-189 -132q-16 -10 -33 -10h-44q-16 0 -21 8.5t3 22.5l72 125q10 18 31 18h171zM1403 701q26 0 26 -26v-52q0 -26 -26 -26h-98q-30 0 -45 -11t-15 -49v-511q0 -26 -26 -26h-204q-19 0 -32 12l-564 491q-13 11 -22.5 7t-9.5 -21v-325 q0 -38 15 -49t45 -11h102q26 0 26 -26v-52q0 -26 -26 -26h-474q-26 0 -26 26v52q0 26 26 26h102q30 0 45 11t15 49v372q0 38 -15 49t-45 11h-102q-26 0 -26 26v52q0 26 26 26h444q19 0 32 -12l512 -446q13 -11 22.5 -7t9.5 21v281q0 38 -15 49t-45 11h-102q-26 0 -26 26v52 q0 26 26 26h470z"/>
<glyph glyph-name="uni0145" unicode="Ņ" horiz-adv-x="1455" d="M1403 701q26 0 26 -26v-52q0 -26 -26 -26h-98q-30 0 -45 -11t-15 -49v-511q0 -26 -26 -26h-204q-19 0 -32 12l-564 491q-13 11 -22.5 7t-9.5 -21v-325q0 -38 15 -49t45 -11h102q26 0 26 -26v-52q0 -26 -26 -26h-474q-26 0 -26 26v52q0 26 26 26h102q30 0 45 11t15 49v372 q0 38 -15 49t-45 11h-102q-26 0 -26 26v52q0 26 26 26h444q19 0 32 -12l512 -446q13 -11 22.5 -7t9.5 21v281q0 38 -15 49t-45 11h-102q-26 0 -26 26v52q0 26 26 26h470zM742 -300q-47 0 -74 32t-27 79q0 27 9.5 50t27 39.5t41 26t52.5 9.5q61 0 101 -43.5t40 -129.5 q0 -53 -16 -92.5t-42 -68t-60 -46t-70 -25.5q-24 -6 -32 18l-8 23q-8 26 19 32q49 13 79.5 39.5t36.5 78.5q1 6 -2.5 7.5t-8.5 -4.5q-13 -13 -30 -19t-36 -6z"/>
<glyph glyph-name="uni0146" unicode="ņ" horiz-adv-x="1455" d="M1403 701q26 0 26 -26v-52q0 -26 -26 -26h-98q-30 0 -45 -11t-15 -49v-511q0 -26 -26 -26h-204q-19 0 -32 12l-564 491q-13 11 -22.5 7t-9.5 -21v-325q0 -38 15 -49t45 -11h102q26 0 26 -26v-52q0 -26 -26 -26h-474q-26 0 -26 26v52q0 26 26 26h102q30 0 45 11t15 49v372 q0 38 -15 49t-45 11h-102q-26 0 -26 26v52q0 26 26 26h444q19 0 32 -12l512 -446q13 -11 22.5 -7t9.5 21v281q0 38 -15 49t-45 11h-102q-26 0 -26 26v52q0 26 26 26h470zM742 -300q-47 0 -74 32t-27 79q0 27 9.5 50t27 39.5t41 26t52.5 9.5q61 0 101 -43.5t40 -129.5 q0 -53 -16 -92.5t-42 -68t-60 -46t-70 -25.5q-24 -6 -32 18l-8 23q-8 26 19 32q49 13 79.5 39.5t36.5 78.5q1 6 -2.5 7.5t-8.5 -4.5q-13 -13 -30 -19t-36 -6z"/>
<glyph glyph-name="Ncaron" unicode="Ň" horiz-adv-x="1455" d="M531 974q17 0 32 -7l151 -74q18 -8 36 0l151 74q15 7 32 7h26q17 0 20 -10t-9 -22l-139 -139q-13 -13 -32 -13h-134q-19 0 -32 13l-139 139q-12 12 -9 22t20 10h26zM933 701q-26 0 -26 -26v-52q0 -26 26 -26h102q30 0 45 -11t15 -49v-281q0 -17 -9.5 -21t-22.5 7 l-512 446q-13 12 -32 12h-444q-26 0 -26 -26v-52q0 -26 26 -26h102q30 0 45 -11t15 -49v-372q0 -38 -15 -49t-45 -11h-102q-26 0 -26 -26v-52q0 -26 26 -26h474q26 0 26 26v52q0 26 -26 26h-102q-30 0 -45 11t-15 49v325q0 17 9.5 21t22.5 -7l564 -491q13 -12 32 -12h204 q26 0 26 26v511q0 38 15 49t45 11h98q26 0 26 26v52q0 26 -26 26h-470z"/>
<glyph glyph-name="ncaron" unicode="ň" horiz-adv-x="1455" d="M531 974q17 0 32 -7l151 -74q18 -8 36 0l151 74q15 7 32 7h26q17 0 20 -10t-9 -22l-139 -139q-13 -13 -32 -13h-134q-19 0 -32 13l-139 139q-12 12 -9 22t20 10h26zM933 701q-26 0 -26 -26v-52q0 -26 26 -26h102q30 0 45 -11t15 -49v-281q0 -17 -9.5 -21t-22.5 7 l-512 446q-13 12 -32 12h-444q-26 0 -26 -26v-52q0 -26 26 -26h102q30 0 45 -11t15 -49v-372q0 -38 -15 -49t-45 -11h-102q-26 0 -26 -26v-52q0 -26 26 -26h474q26 0 26 26v52q0 26 -26 26h-102q-30 0 -45 11t-15 49v325q0 17 9.5 21t22.5 -7l564 -491q13 -12 32 -12h204 q26 0 26 26v511q0 38 15 49t45 11h98q26 0 26 26v52q0 26 -26 26h-470z"/>
<glyph glyph-name="Eng" unicode="Ŋ" horiz-adv-x="1465" d="M1439 623q0 -26 -26 -26h-102q-32 0 -45 -11.5t-13 -50.5v-498q0 -80 -27 -138t-70.5 -95t-99 -54.5t-113.5 -17.5q-57 0 -111 16t-96 45.5t-67.5 72t-25.5 95.5q0 38 12.5 66t32.5 46t45.5 27t51.5 9q24 0 46 -7t39 -21t27.5 -34.5t10.5 -46.5q0 -33 -15 -54 t-38.5 -31.5t-52 -10t-54.5 11.5q-28 13 -14 -12q26 -44 74 -68.5t102 -24.5q50 0 95 24t68 78q9 21 -8 35l-638 557q-13 11 -22.5 7t-9.5 -21v-325q0 -39 13 -50.5t45 -11.5h102q26 0 26 -26v-52q0 -26 -26 -26h-480q-26 0 -26 26v52q0 26 26 26h102q32 0 45 11.5t13 50.5 v368q0 39 -13 50.5t-45 11.5h-102q-26 0 -26 26v52q0 26 26 26h440q19 0 32 -12l514 -452q13 -11 22.5 -6.5t9.5 21.5v284q0 39 -13 50.5t-45 11.5h-102q-26 0 -26 26v52q0 26 26 26h480q26 0 26 -26v-52z"/>
<glyph glyph-name="eng" unicode="ŋ" horiz-adv-x="1465" d="M1439 623q0 -26 -26 -26h-102q-32 0 -45 -11.5t-13 -50.5v-498q0 -80 -27 -138t-70.5 -95t-99 -54.5t-113.5 -17.5q-57 0 -111 16t-96 45.5t-67.5 72t-25.5 95.5q0 38 12.5 66t32.5 46t45.5 27t51.5 9q24 0 46 -7t39 -21t27.5 -34.5t10.5 -46.5q0 -33 -15 -54 t-38.5 -31.5t-52 -10t-54.5 11.5q-28 13 -14 -12q26 -44 74 -68.5t102 -24.5q50 0 95 24t68 78q9 21 -8 35l-638 557q-13 11 -22.5 7t-9.5 -21v-325q0 -39 13 -50.5t45 -11.5h102q26 0 26 -26v-52q0 -26 -26 -26h-480q-26 0 -26 26v52q0 26 26 26h102q32 0 45 11.5t13 50.5 v368q0 39 -13 50.5t-45 11.5h-102q-26 0 -26 26v52q0 26 26 26h440q19 0 32 -12l514 -452q13 -11 22.5 -6.5t9.5 21.5v284q0 39 -13 50.5t-45 11.5h-102q-26 0 -26 26v52q0 26 26 26h480q26 0 26 -26v-52z"/>
<glyph glyph-name="Omacron" unicode="Ō" horiz-adv-x="1314" d="M415 876q0 26 26 26h424q26 0 26 -26v-58q0 -26 -26 -26h-424q-26 0 -26 26v58zM657 -28q-146 0 -260.5 22.5t-193.5 69t-120 117.5t-41 169q0 97 41 168.5t120 118t193.5 69t260.5 22.5t260.5 -22.5t193 -69t120 -118t41.5 -168.5q0 -98 -41.5 -169t-120 -117.5 t-193 -69t-260.5 -22.5zM308 350q0 -64 18 -114.5t59 -86t107.5 -54.5t164.5 -19q97 0 164 19t108 54.5t59 86t18 114.5t-16.5 114.5t-56.5 86t-107.5 54.5t-168.5 19q-98 0 -164.5 -19t-107.5 -54.5t-59 -86t-18 -114.5z"/>
<glyph glyph-name="omacron" unicode="ō" horiz-adv-x="1314" d="M415 876q0 26 26 26h424q26 0 26 -26v-58q0 -26 -26 -26h-424q-26 0 -26 26v58zM657 -28q-146 0 -260.5 22.5t-193.5 69t-120 117.5t-41 169q0 97 41 168.5t120 118t193.5 69t260.5 22.5t260.5 -22.5t193 -69t120 -118t41.5 -168.5q0 -98 -41.5 -169t-120 -117.5 t-193 -69t-260.5 -22.5zM308 350q0 -64 18 -114.5t59 -86t107.5 -54.5t164.5 -19q97 0 164 19t108 54.5t59 86t18 114.5t-16.5 114.5t-56.5 86t-107.5 54.5t-168.5 19q-98 0 -164.5 -19t-107.5 -54.5t-59 -86t-18 -114.5z"/>
<glyph glyph-name="Ohungarumlaut" unicode="Ő" horiz-adv-x="1314" d="M541 957q13 14 32 14h120q17 0 21.5 -9.5t-6.5 -22.5l-124 -139q-13 -14 -32 -14h-120q-17 0 -21.5 9.5t6.5 22.5zM794 957q13 14 32 14h120q17 0 21.5 -9.5t-6.5 -22.5l-124 -139q-13 -14 -32 -14h-120q-17 0 -21.5 9.5t6.5 22.5zM657 -28q-146 0 -260.5 22.5t-193.5 69 t-120 117.5t-41 169q0 97 41 168.5t120 118t193.5 69t260.5 22.5t260.5 -22.5t193 -69t120 -118t41.5 -168.5q0 -98 -41.5 -169t-120 -117.5t-193 -69t-260.5 -22.5zM308 350q0 -64 18 -114.5t59 -86t107.5 -54.5t164.5 -19q97 0 164 19t108 54.5t59 86t18 114.5 t-16.5 114.5t-56.5 86t-107.5 54.5t-168.5 19q-98 0 -164.5 -19t-107.5 -54.5t-59 -86t-18 -114.5z"/>
<glyph glyph-name="ohungarumlaut" unicode="ő" horiz-adv-x="1314" d="M541 957q13 14 32 14h120q17 0 21.5 -9.5t-6.5 -22.5l-124 -139q-13 -14 -32 -14h-120q-17 0 -21.5 9.5t6.5 22.5zM794 957q13 14 32 14h120q17 0 21.5 -9.5t-6.5 -22.5l-124 -139q-13 -14 -32 -14h-120q-17 0 -21.5 9.5t6.5 22.5zM657 -28q-146 0 -260.5 22.5t-193.5 69 t-120 117.5t-41 169q0 97 41 168.5t120 118t193.5 69t260.5 22.5t260.5 -22.5t193 -69t120 -118t41.5 -168.5q0 -98 -41.5 -169t-120 -117.5t-193 -69t-260.5 -22.5zM308 350q0 -64 18 -114.5t59 -86t107.5 -54.5t164.5 -19q97 0 164 19t108 54.5t59 86t18 114.5 t-16.5 114.5t-56.5 86t-107.5 54.5t-168.5 19q-98 0 -164.5 -19t-107.5 -54.5t-59 -86t-18 -114.5z"/>
<glyph glyph-name="OE" unicode="Œ" horiz-adv-x="1999" d="M1903 296q26 0 26 -26v-244q0 -26 -26 -26h-941q-9 0 -16 -0.5t-15 -2.5q-55 -9 -116 -13t-130 -4q-150 0 -269 21t-202.5 66t-127.5 115t-44 168q0 97 44 167t127.5 115t202.5 66.5t269 21.5q69 0 130 -4t116 -13q8 -2 15 -2.5t16 -0.5h931q26 0 26 -26v-214 q0 -26 -26 -26h-79q-25 0 -27 25q-5 38 -13.5 64t-26 42.5t-46.5 23.5t-74 7h-429q-26 0 -26 -26v-137q0 -26 26 -26h184q34 0 55.5 5t33.5 15.5t16.5 28t4.5 41.5q0 23 26 23h68q26 0 26 -26v-278q0 -26 -26 -26h-68q-26 0 -26 23q0 24 -4.5 41.5t-16.5 28t-33.5 15.5 t-55.5 5h-184q-26 0 -26 -26v-147q0 -26 26 -26h439q45 0 74.5 10t47 31t26 52.5t12.5 73.5q2 25 27 25h79zM932 556q0 23 -20 30q-45 17 -101.5 23.5t-125.5 6.5q-181 0 -279 -69t-98 -197t98 -197t279 -69q69 0 125.5 6.5t101.5 23.5q20 7 20 30v412z"/>
<glyph glyph-name="oe" unicode="œ" horiz-adv-x="1999" d="M1903 296q26 0 26 -26v-244q0 -26 -26 -26h-941q-9 0 -16 -0.5t-15 -2.5q-55 -9 -116 -13t-130 -4q-150 0 -269 21t-202.5 66t-127.5 115t-44 168q0 97 44 167t127.5 115t202.5 66.5t269 21.5q69 0 130 -4t116 -13q8 -2 15 -2.5t16 -0.5h931q26 0 26 -26v-214 q0 -26 -26 -26h-79q-25 0 -27 25q-5 38 -13.5 64t-26 42.5t-46.5 23.5t-74 7h-429q-26 0 -26 -26v-137q0 -26 26 -26h184q34 0 55.5 5t33.5 15.5t16.5 28t4.5 41.5q0 23 26 23h68q26 0 26 -26v-278q0 -26 -26 -26h-68q-26 0 -26 23q0 24 -4.5 41.5t-16.5 28t-33.5 15.5 t-55.5 5h-184q-26 0 -26 -26v-147q0 -26 26 -26h439q45 0 74.5 10t47 31t26 52.5t12.5 73.5q2 25 27 25h79zM932 556q0 23 -20 30q-45 17 -101.5 23.5t-125.5 6.5q-181 0 -279 -69t-98 -197t98 -197t279 -69q69 0 125.5 6.5t101.5 23.5q20 7 20 30v412z"/>
<glyph glyph-name="Racute" unicode="Ŕ" horiz-adv-x="1337" d="M884 960q19 0 22 -10.5t-12 -21.5l-189 -132q-16 -10 -33 -10h-44q-16 0 -21 8.5t3 22.5l72 125q10 18 31 18h171zM1268 104q26 0 26 -26v-52q0 -26 -26 -26h-320q-20 0 -32 16l-184 244q-12 16 -31 16h-198q-26 0 -26 -26v-86q0 -38 15 -49t45 -11h102q26 0 26 -26v-52 q0 -26 -26 -26h-564q-26 0 -26 26v52q0 26 26 26h102q30 0 45 11t15 49v372q0 38 -15 49t-45 11h-102q-26 0 -26 26v52q0 26 26 26h799q103 0 179 -15t126.5 -42.5t75.5 -66.5t25 -88q0 -79 -65.5 -132t-199.5 -71q-16 -2 -20.5 -11.5t5.5 -21.5l64 -84q25 -32 59 -48 t91 -16h54zM477 406q0 -26 26 -26h311q100 0 152 24t52 84t-52 84t-152 24h-311q-26 0 -26 -26v-164z"/>
<glyph glyph-name="racute" unicode="ŕ" horiz-adv-x="1337" d="M884 960q19 0 22 -10.5t-12 -21.5l-189 -132q-16 -10 -33 -10h-44q-16 0 -21 8.5t3 22.5l72 125q10 18 31 18h171zM1268 104q26 0 26 -26v-52q0 -26 -26 -26h-320q-20 0 -32 16l-184 244q-12 16 -31 16h-198q-26 0 -26 -26v-86q0 -38 15 -49t45 -11h102q26 0 26 -26v-52 q0 -26 -26 -26h-564q-26 0 -26 26v52q0 26 26 26h102q30 0 45 11t15 49v372q0 38 -15 49t-45 11h-102q-26 0 -26 26v52q0 26 26 26h799q103 0 179 -15t126.5 -42.5t75.5 -66.5t25 -88q0 -79 -65.5 -132t-199.5 -71q-16 -2 -20.5 -11.5t5.5 -21.5l64 -84q25 -32 59 -48 t91 -16h54zM477 406q0 -26 26 -26h311q100 0 152 24t52 84t-52 84t-152 24h-311q-26 0 -26 -26v-164z"/>
<glyph glyph-name="uni0156" unicode="Ŗ" horiz-adv-x="1337" d="M1268 104q26 0 26 -26v-52q0 -26 -26 -26h-320q-20 0 -32 16l-184 244q-12 16 -31 16h-198q-26 0 -26 -26v-86q0 -38 15 -49t45 -11h102q26 0 26 -26v-52q0 -26 -26 -26h-564q-26 0 -26 26v52q0 26 26 26h102q30 0 45 11t15 49v372q0 38 -15 49t-45 11h-102q-26 0 -26 26 v52q0 26 26 26h799q103 0 179 -15t126.5 -42.5t75.5 -66.5t25 -88q0 -79 -65.5 -132t-199.5 -71q-16 -2 -20.5 -11.5t5.5 -21.5l64 -84q25 -32 59 -48t91 -16h54zM477 406q0 -26 26 -26h311q100 0 152 24t52 84t-52 84t-152 24h-311q-26 0 -26 -26v-164zM678 -300 q-47 0 -74 32t-27 79q0 27 9.5 50t27 39.5t41 26t52.5 9.5q61 0 101 -43.5t40 -129.5q0 -53 -16 -92.5t-42 -68t-60 -46t-70 -25.5q-24 -6 -32 18l-8 23q-8 26 19 32q49 13 79.5 39.5t36.5 78.5q1 6 -2.5 7.5t-8.5 -4.5q-13 -13 -30 -19t-36 -6z"/>
<glyph glyph-name="uni0157" unicode="ŗ" horiz-adv-x="1337" d="M1268 104q26 0 26 -26v-52q0 -26 -26 -26h-320q-20 0 -32 16l-184 244q-12 16 -31 16h-198q-26 0 -26 -26v-86q0 -38 15 -49t45 -11h102q26 0 26 -26v-52q0 -26 -26 -26h-564q-26 0 -26 26v52q0 26 26 26h102q30 0 45 11t15 49v372q0 38 -15 49t-45 11h-102q-26 0 -26 26 v52q0 26 26 26h799q103 0 179 -15t126.5 -42.5t75.5 -66.5t25 -88q0 -79 -65.5 -132t-199.5 -71q-16 -2 -20.5 -11.5t5.5 -21.5l64 -84q25 -32 59 -48t91 -16h54zM477 406q0 -26 26 -26h311q100 0 152 24t52 84t-52 84t-152 24h-311q-26 0 -26 -26v-164zM678 -300 q-47 0 -74 32t-27 79q0 27 9.5 50t27 39.5t41 26t52.5 9.5q61 0 101 -43.5t40 -129.5q0 -53 -16 -92.5t-42 -68t-60 -46t-70 -25.5q-24 -6 -32 18l-8 23q-8 26 19 32q49 13 79.5 39.5t36.5 78.5q1 6 -2.5 7.5t-8.5 -4.5q-13 -13 -30 -19t-36 -6z"/>
<glyph glyph-name="Rcaron" unicode="Ř" horiz-adv-x="1337" d="M497 974q17 0 32 -7l151 -74q18 -8 36 0l151 74q15 7 32 7h26q17 0 20 -10t-9 -22l-139 -139q-13 -13 -32 -13h-134q-19 0 -32 13l-139 139q-12 12 -9 22t20 10h26zM1214 104q-57 0 -91 16t-59 48l-64 84q-10 12 -5.5 21.5t20.5 11.5q134 18 199.5 71t65.5 132 q0 49 -25 88t-75.5 66.5t-126.5 42.5t-179 15h-799q-26 0 -26 -26v-52q0 -26 26 -26h102q30 0 45 -11t15 -49v-372q0 -38 -15 -49t-45 -11h-102q-26 0 -26 -26v-52q0 -26 26 -26h564q26 0 26 26v52q0 26 -26 26h-102q-30 0 -45 11t-15 49v86q0 26 26 26h198q19 0 31 -16 l184 -244q12 -16 32 -16h320q26 0 26 26v52q0 26 -26 26h-54zM477 570q0 26 26 26h311q100 0 152 -24t52 -84t-52 -84t-152 -24h-311q-26 0 -26 26v164z"/>
<glyph glyph-name="rcaron" unicode="ř" horiz-adv-x="1337" d="M497 974q17 0 32 -7l151 -74q18 -8 36 0l151 74q15 7 32 7h26q17 0 20 -10t-9 -22l-139 -139q-13 -13 -32 -13h-134q-19 0 -32 13l-139 139q-12 12 -9 22t20 10h26zM1214 104q-57 0 -91 16t-59 48l-64 84q-10 12 -5.5 21.5t20.5 11.5q134 18 199.5 71t65.5 132 q0 49 -25 88t-75.5 66.5t-126.5 42.5t-179 15h-799q-26 0 -26 -26v-52q0 -26 26 -26h102q30 0 45 -11t15 -49v-372q0 -38 -15 -49t-45 -11h-102q-26 0 -26 -26v-52q0 -26 26 -26h564q26 0 26 26v52q0 26 -26 26h-102q-30 0 -45 11t-15 49v86q0 26 26 26h198q19 0 31 -16 l184 -244q12 -16 32 -16h320q26 0 26 26v52q0 26 -26 26h-54zM477 570q0 26 26 26h311q100 0 152 -24t52 -84t-52 -84t-152 -24h-311q-26 0 -26 26v164z"/>
<glyph glyph-name="Sacute" unicode="Ś" horiz-adv-x="1162" d="M771 960q19 0 22 -10.5t-12 -21.5l-189 -132q-16 -10 -33 -10h-44q-16 0 -21 8.5t3 22.5l72 125q10 18 31 18h171zM944 482q-20 0 -30 19q-19 33 -56 55.5t-85 36.5t-104 20t-112 6q-57 0 -108 -4.5t-89.5 -15.5t-60.5 -28.5t-22 -42.5q0 -31 34.5 -47t101.5 -21l370 -29 q60 -5 120 -13.5t107 -29t76.5 -57.5t29.5 -98q0 -68 -36.5 -117t-100 -81t-150.5 -47.5t-188 -15.5q-44 0 -95 3t-103 11.5t-102 22.5t-90 35q-22 13 -35 -10l-8 -15q-9 -19 -30 -19h-85q-26 0 -26 26v181q0 26 26 26h105q20 0 30 -19q23 -39 64.5 -65t94 -41.5t112 -22 t119.5 -6.5q55 0 104.5 5t86.5 16.5t58.5 28.5t21.5 41q0 58 -124 69l-369 30q-62 5 -122.5 16t-109.5 34.5t-79 61.5t-30 96q0 49 21 87t57 65.5t83.5 46t100 30t106.5 16t104 4.5q58 0 112.5 -5t101.5 -14t86 -22t65 -28q24 -13 34 10l7 14q10 19 31 19h85q26 0 26 -26 v-166q0 -26 -26 -26h-105z"/>
<glyph glyph-name="sacute" unicode="ś" horiz-adv-x="1162" d="M771 960q19 0 22 -10.5t-12 -21.5l-189 -132q-16 -10 -33 -10h-44q-16 0 -21 8.5t3 22.5l72 125q10 18 31 18h171zM944 482q-20 0 -30 19q-19 33 -56 55.5t-85 36.5t-104 20t-112 6q-57 0 -108 -4.5t-89.5 -15.5t-60.5 -28.5t-22 -42.5q0 -31 34.5 -47t101.5 -21l370 -29 q60 -5 120 -13.5t107 -29t76.5 -57.5t29.5 -98q0 -68 -36.5 -117t-100 -81t-150.5 -47.5t-188 -15.5q-44 0 -95 3t-103 11.5t-102 22.5t-90 35q-22 13 -35 -10l-8 -15q-9 -19 -30 -19h-85q-26 0 -26 26v181q0 26 26 26h105q20 0 30 -19q23 -39 64.5 -65t94 -41.5t112 -22 t119.5 -6.5q55 0 104.5 5t86.5 16.5t58.5 28.5t21.5 41q0 58 -124 69l-369 30q-62 5 -122.5 16t-109.5 34.5t-79 61.5t-30 96q0 49 21 87t57 65.5t83.5 46t100 30t106.5 16t104 4.5q58 0 112.5 -5t101.5 -14t86 -22t65 -28q24 -13 34 10l7 14q10 19 31 19h85q26 0 26 -26 v-166q0 -26 -26 -26h-105z"/>
<glyph glyph-name="Scedilla" unicode="Ş" horiz-adv-x="1162" d="M1116 233q0 -65 -33 -112.5t-91 -79.5t-137.5 -48.5t-173.5 -19.5q-21 -1 -31 -19q-16 -32 19 -19q12 4 27 6.5t34 2.5q33 0 62.5 -9t51 -25.5t34 -39t12.5 -50.5q0 -32 -16.5 -55.5t-44 -38.5t-63.5 -22.5t-76 -7.5q-30 0 -60.5 3.5t-58 9.5t-52 13.5t-42.5 15.5 q-12 5 -14.5 14.5t5.5 20.5l4 7q13 18 34 12q32 -8 67 -13t74 -5q47 0 68 9.5t21 36.5q0 46 -60 46q-21 0 -40 -5t-35 -10q-16 -7 -34 -1l-20 7q-25 10 -13 35l26 52q7 14 2 22t-20 9q-37 3 -76 8t-76.5 13.5t-73 20t-65.5 27.5q-22 13 -35 -10l-8 -15q-9 -19 -30 -19h-85 q-26 0 -26 26v181q0 26 26 26h105q20 0 30 -19q23 -39 64.5 -65t94 -41.5t112 -22t119.5 -6.5q55 0 104.5 5t86.5 16.5t58.5 28.5t21.5 41q0 58 -124 69l-369 30q-62 5 -122.5 16t-109.5 34.5t-79 61.5t-30 96q0 49 21 87t57 65.5t83.5 46t100 30t106.5 16t104 4.5 q58 0 112.5 -5t101.5 -14t86 -22t65 -28q24 -13 34 10l7 14q10 19 31 19h85q26 0 26 -26v-166q0 -26 -26 -26h-105q-20 0 -30 19q-19 33 -56 55.5t-85 36.5t-104 20t-112 6q-57 0 -108 -4.5t-89.5 -15.5t-60.5 -28.5t-22 -42.5q0 -31 34.5 -47t101.5 -21l370 -29 q60 -5 120 -13.5t107 -29t76.5 -57.5t29.5 -98z"/>
<glyph glyph-name="scedilla" unicode="ş" horiz-adv-x="1162" d="M1116 233q0 -65 -33 -112.5t-91 -79.5t-137.5 -48.5t-173.5 -19.5q-21 -1 -31 -19q-16 -32 19 -19q12 4 27 6.5t34 2.5q33 0 62.5 -9t51 -25.5t34 -39t12.5 -50.5q0 -32 -16.5 -55.5t-44 -38.5t-63.5 -22.5t-76 -7.5q-30 0 -60.5 3.5t-58 9.5t-52 13.5t-42.5 15.5 q-12 5 -14.5 14.5t5.5 20.5l4 7q13 18 34 12q32 -8 67 -13t74 -5q47 0 68 9.5t21 36.5q0 46 -60 46q-21 0 -40 -5t-35 -10q-16 -7 -34 -1l-20 7q-25 10 -13 35l26 52q7 14 2 22t-20 9q-37 3 -76 8t-76.5 13.5t-73 20t-65.5 27.5q-22 13 -35 -10l-8 -15q-9 -19 -30 -19h-85 q-26 0 -26 26v181q0 26 26 26h105q20 0 30 -19q23 -39 64.5 -65t94 -41.5t112 -22t119.5 -6.5q55 0 104.5 5t86.5 16.5t58.5 28.5t21.5 41q0 58 -124 69l-369 30q-62 5 -122.5 16t-109.5 34.5t-79 61.5t-30 96q0 49 21 87t57 65.5t83.5 46t100 30t106.5 16t104 4.5 q58 0 112.5 -5t101.5 -14t86 -22t65 -28q24 -13 34 10l7 14q10 19 31 19h85q26 0 26 -26v-166q0 -26 -26 -26h-105q-20 0 -30 19q-19 33 -56 55.5t-85 36.5t-104 20t-112 6q-57 0 -108 -4.5t-89.5 -15.5t-60.5 -28.5t-22 -42.5q0 -31 34.5 -47t101.5 -21l370 -29 q60 -5 120 -13.5t107 -29t76.5 -57.5t29.5 -98z"/>
<glyph glyph-name="Scaron" unicode="Š" horiz-adv-x="1162" d="M384 974q17 0 32 -7l151 -74q18 -8 36 0l151 74q15 7 32 7h26q17 0 20 -10t-9 -22l-139 -139q-13 -13 -32 -13h-134q-19 0 -32 13l-139 139q-12 12 -9 22t20 10h26zM1049 482q26 0 26 26v166q0 26 -26 26h-85q-21 0 -31 -19l-7 -14q-10 -23 -34 -10q-26 15 -65 28t-86 22 t-101.5 14t-112.5 5q-50 0 -104 -4.5t-106.5 -16t-100 -30t-83.5 -46t-57 -65.5t-21 -87q0 -58 30 -96t79 -61.5t109.5 -34.5t122.5 -16l369 -30q124 -11 124 -69q0 -24 -21.5 -41t-58.5 -28.5t-86.5 -16.5t-104.5 -5q-60 0 -119.5 6.5t-112 22t-94 41.5t-64.5 65 q-10 19 -30 19h-105q-26 0 -26 -26v-181q0 -26 26 -26h85q21 0 30 19l8 15q13 23 35 10q40 -21 90 -35t102 -22.5t103 -11.5t95 -3q101 0 188 15.5t150.5 47.5t100 81t36.5 117q0 61 -29.5 98t-76.5 57.5t-107 29t-120 13.5l-370 29q-67 5 -101.5 21t-34.5 47q0 25 22 42.5 t60.5 28.5t89.5 15.5t108 4.5q56 0 112 -6t104 -20t85 -36.5t56 -55.5q10 -19 30 -19h105z"/>
<glyph glyph-name="scaron" unicode="š" horiz-adv-x="1162" d="M384 974q17 0 32 -7l151 -74q18 -8 36 0l151 74q15 7 32 7h26q17 0 20 -10t-9 -22l-139 -139q-13 -13 -32 -13h-134q-19 0 -32 13l-139 139q-12 12 -9 22t20 10h26zM1049 482q26 0 26 26v166q0 26 -26 26h-85q-21 0 -31 -19l-7 -14q-10 -23 -34 -10q-26 15 -65 28t-86 22 t-101.5 14t-112.5 5q-50 0 -104 -4.5t-106.5 -16t-100 -30t-83.5 -46t-57 -65.5t-21 -87q0 -58 30 -96t79 -61.5t109.5 -34.5t122.5 -16l369 -30q124 -11 124 -69q0 -24 -21.5 -41t-58.5 -28.5t-86.5 -16.5t-104.5 -5q-60 0 -119.5 6.5t-112 22t-94 41.5t-64.5 65 q-10 19 -30 19h-105q-26 0 -26 -26v-181q0 -26 26 -26h85q21 0 30 19l8 15q13 23 35 10q40 -21 90 -35t102 -22.5t103 -11.5t95 -3q101 0 188 15.5t150.5 47.5t100 81t36.5 117q0 61 -29.5 98t-76.5 57.5t-107 29t-120 13.5l-370 29q-67 5 -101.5 21t-34.5 47q0 25 22 42.5 t60.5 28.5t89.5 15.5t108 4.5q56 0 112 -6t104 -20t85 -36.5t56 -55.5q10 -19 30 -19h105z"/>
<glyph glyph-name="uni0162" unicode="Ţ" horiz-adv-x="1254" d="M1194 700q26 0 26 -26v-234q0 -26 -26 -26h-79q-25 0 -27 26q-4 42 -10.5 72t-20.5 48.5t-37.5 27t-61.5 8.5h-185q-26 0 -26 -26v-406q0 -38 15 -49t45 -11h102q26 0 26 -26v-52q0 -26 -26 -26h-214q-21 0 -31 -19l-14 -27q-15 -30 19 -19q12 4 27 6.5t34 2.5 q33 0 62.5 -9t51 -25.5t34 -39t12.5 -50.5q0 -32 -16.5 -55.5t-44 -38.5t-63.5 -22.5t-76 -7.5q-30 0 -60.5 3.5t-58 9.5t-52 13.5t-42.5 15.5q-12 5 -14.5 14.5t5.5 20.5l4 7q13 18 34 12q32 -8 67 -13t74 -5q47 0 68 9.5t21 36.5q0 46 -60 46q-21 0 -40 -5t-35 -10 q-16 -7 -34 -1l-20 7q-25 10 -13 35l39 77q8 14 2.5 22.5t-21.5 8.5h-209q-26 0 -26 26v52q0 26 26 26h102q30 0 45 11t15 49v406q0 26 -26 26h-185q-38 0 -61.5 -8.5t-37.5 -27t-20.5 -48.5t-10.5 -72q-2 -26 -27 -26h-79q-26 0 -26 26v234q0 26 26 26h1134z"/>
<glyph glyph-name="uni0163" unicode="ţ" horiz-adv-x="1254" d="M1194 700q26 0 26 -26v-234q0 -26 -26 -26h-79q-25 0 -27 26q-4 42 -10.5 72t-20.5 48.5t-37.5 27t-61.5 8.5h-185q-26 0 -26 -26v-406q0 -38 15 -49t45 -11h102q26 0 26 -26v-52q0 -26 -26 -26h-214q-21 0 -31 -19l-14 -27q-15 -30 19 -19q12 4 27 6.5t34 2.5 q33 0 62.5 -9t51 -25.5t34 -39t12.5 -50.5q0 -32 -16.5 -55.5t-44 -38.5t-63.5 -22.5t-76 -7.5q-30 0 -60.5 3.5t-58 9.5t-52 13.5t-42.5 15.5q-12 5 -14.5 14.5t5.5 20.5l4 7q13 18 34 12q32 -8 67 -13t74 -5q47 0 68 9.5t21 36.5q0 46 -60 46q-21 0 -40 -5t-35 -10 q-16 -7 -34 -1l-20 7q-25 10 -13 35l39 77q8 14 2.5 22.5t-21.5 8.5h-209q-26 0 -26 26v52q0 26 26 26h102q30 0 45 11t15 49v406q0 26 -26 26h-185q-38 0 -61.5 -8.5t-37.5 -27t-20.5 -48.5t-10.5 -72q-2 -26 -27 -26h-79q-26 0 -26 26v234q0 26 26 26h1134z"/>
<glyph glyph-name="Tcaron" unicode="Ť" horiz-adv-x="1254" d="M426 974q17 0 32 -7l151 -74q18 -8 36 0l151 74q15 7 32 7h26q17 0 20 -10t-9 -22l-139 -139q-13 -13 -32 -13h-134q-19 0 -32 13l-139 139q-12 12 -9 22t20 10h26zM60 700q-26 0 -26 -26v-234q0 -26 26 -26h79q25 0 27 26q4 42 10.5 72t20.5 48.5t37.5 27t61.5 8.5h185 q26 0 26 -26v-406q0 -38 -15 -49t-45 -11h-102q-26 0 -26 -26v-52q0 -26 26 -26h564q26 0 26 26v52q0 26 -26 26h-102q-30 0 -45 11t-15 49v406q0 26 26 26h185q38 0 61.5 -8.5t37.5 -27t20.5 -48.5t10.5 -72q2 -26 27 -26h79q26 0 26 26v234q0 26 -26 26h-1134z"/>
<glyph glyph-name="tcaron" unicode="ť" horiz-adv-x="1254" d="M426 974q17 0 32 -7l151 -74q18 -8 36 0l151 74q15 7 32 7h26q17 0 20 -10t-9 -22l-139 -139q-13 -13 -32 -13h-134q-19 0 -32 13l-139 139q-12 12 -9 22t20 10h26zM60 700q-26 0 -26 -26v-234q0 -26 26 -26h79q25 0 27 26q4 42 10.5 72t20.5 48.5t37.5 27t61.5 8.5h185 q26 0 26 -26v-406q0 -38 -15 -49t-45 -11h-102q-26 0 -26 -26v-52q0 -26 26 -26h564q26 0 26 26v52q0 26 -26 26h-102q-30 0 -45 11t-15 49v406q0 26 26 26h185q38 0 61.5 -8.5t37.5 -27t20.5 -48.5t10.5 -72q2 -26 27 -26h79q26 0 26 26v234q0 26 -26 26h-1134z"/>
<glyph glyph-name="Tbar" unicode="Ŧ" horiz-adv-x="1254" d="M385 876q0 26 26 26h424q26 0 26 -26v-58q0 -26 -26 -26h-424q-26 0 -26 26v58zM1194 700q26 0 26 -26v-234q0 -26 -26 -26h-79q-25 0 -27 26q-4 42 -10.5 72t-20.5 48.5t-37.5 27t-61.5 8.5h-185q-26 0 -26 -26v-406q0 -38 15 -49t45 -11h102q26 0 26 -26v-52 q0 -26 -26 -26h-564q-26 0 -26 26v52q0 26 26 26h102q30 0 45 11t15 49v406q0 26 -26 26h-185q-38 0 -61.5 -8.5t-37.5 -27t-20.5 -48.5t-10.5 -72q-2 -26 -27 -26h-79q-26 0 -26 26v234q0 26 26 26h1134z"/>
<glyph glyph-name="tbar" unicode="ŧ" horiz-adv-x="1254" d="M385 876q0 26 26 26h424q26 0 26 -26v-58q0 -26 -26 -26h-424q-26 0 -26 26v58zM1194 700q26 0 26 -26v-234q0 -26 -26 -26h-79q-25 0 -27 26q-4 42 -10.5 72t-20.5 48.5t-37.5 27t-61.5 8.5h-185q-26 0 -26 -26v-406q0 -38 15 -49t45 -11h102q26 0 26 -26v-52 q0 -26 -26 -26h-564q-26 0 -26 26v52q0 26 26 26h102q30 0 45 11t15 49v406q0 26 -26 26h-185q-38 0 -61.5 -8.5t-37.5 -27t-20.5 -48.5t-10.5 -72q-2 -26 -27 -26h-79q-26 0 -26 26v234q0 26 26 26h1134z"/>
<glyph glyph-name="Umacron" unicode="Ū" horiz-adv-x="1404" d="M512 876q0 26 26 26h424q26 0 26 -26v-58q0 -26 -26 -26h-424q-26 0 -26 26v58zM1254 596q-32 0 -45 -11.5t-13 -50.5v-192q0 -92 -26 -161t-83.5 -115.5t-151 -70t-228.5 -23.5t-230 23.5t-154.5 70t-87 115.5t-27.5 161v192q0 39 -13 50.5t-45 11.5h-98q-26 0 -26 26 v52q0 26 26 26h552q26 0 26 -26v-52q0 -26 -26 -26h-98q-32 0 -45 -11.5t-13 -50.5v-174q0 -68 14.5 -121t49 -89t92 -55t143.5 -19t143.5 20.5t92 57.5t49 89.5t14.5 116.5v174q0 39 -13 50.5t-45 11.5h-98q-26 0 -26 26v52q0 26 26 26h462q26 0 26 -26v-52q0 -26 -26 -26 h-98z"/>
<glyph glyph-name="umacron" unicode="ū" horiz-adv-x="1404" d="M512 876q0 26 26 26h424q26 0 26 -26v-58q0 -26 -26 -26h-424q-26 0 -26 26v58zM1254 596q-32 0 -45 -11.5t-13 -50.5v-192q0 -92 -26 -161t-83.5 -115.5t-151 -70t-228.5 -23.5t-230 23.5t-154.5 70t-87 115.5t-27.5 161v192q0 39 -13 50.5t-45 11.5h-98q-26 0 -26 26 v52q0 26 26 26h552q26 0 26 -26v-52q0 -26 -26 -26h-98q-32 0 -45 -11.5t-13 -50.5v-174q0 -68 14.5 -121t49 -89t92 -55t143.5 -19t143.5 20.5t92 57.5t49 89.5t14.5 116.5v174q0 39 -13 50.5t-45 11.5h-98q-26 0 -26 26v52q0 26 26 26h462q26 0 26 -26v-52q0 -26 -26 -26 h-98z"/>
<glyph glyph-name="Uring" unicode="Ů" horiz-adv-x="1404" d="M754 770q-44 0 -81.5 8t-64.5 23.5t-42.5 38.5t-15.5 53t15.5 53t42.5 38.5t64.5 23.5t81.5 8q45 0 82.5 -8t64.5 -23.5t42.5 -38.5t15.5 -53t-15.5 -53t-42.5 -38.5t-64.5 -23.5t-82.5 -8zM669 893q0 -29 23 -44t62 -15q40 0 63 15t23 44t-23 44t-63 15q-39 0 -62 -15 t-23 -44zM1254 596q-32 0 -45 -11.5t-13 -50.5v-192q0 -92 -26 -161t-83.5 -115.5t-151 -70t-228.5 -23.5t-230 23.5t-154.5 70t-87 115.5t-27.5 161v192q0 39 -13 50.5t-45 11.5h-98q-26 0 -26 26v52q0 26 26 26h552q26 0 26 -26v-52q0 -26 -26 -26h-98q-32 0 -45 -11.5 t-13 -50.5v-174q0 -68 14.5 -121t49 -89t92 -55t143.5 -19t143.5 20.5t92 57.5t49 89.5t14.5 116.5v174q0 39 -13 50.5t-45 11.5h-98q-26 0 -26 26v52q0 26 26 26h462q26 0 26 -26v-52q0 -26 -26 -26h-98z"/>
<glyph glyph-name="uring" unicode="ů" horiz-adv-x="1404" d="M754 770q-44 0 -81.5 8t-64.5 23.5t-42.5 38.5t-15.5 53t15.5 53t42.5 38.5t64.5 23.5t81.5 8q45 0 82.5 -8t64.5 -23.5t42.5 -38.5t15.5 -53t-15.5 -53t-42.5 -38.5t-64.5 -23.5t-82.5 -8zM669 893q0 -29 23 -44t62 -15q40 0 63 15t23 44t-23 44t-63 15q-39 0 -62 -15 t-23 -44zM1254 596q-32 0 -45 -11.5t-13 -50.5v-192q0 -92 -26 -161t-83.5 -115.5t-151 -70t-228.5 -23.5t-230 23.5t-154.5 70t-87 115.5t-27.5 161v192q0 39 -13 50.5t-45 11.5h-98q-26 0 -26 26v52q0 26 26 26h552q26 0 26 -26v-52q0 -26 -26 -26h-98q-32 0 -45 -11.5 t-13 -50.5v-174q0 -68 14.5 -121t49 -89t92 -55t143.5 -19t143.5 20.5t92 57.5t49 89.5t14.5 116.5v174q0 39 -13 50.5t-45 11.5h-98q-26 0 -26 26v52q0 26 26 26h462q26 0 26 -26v-52q0 -26 -26 -26h-98z"/>
<glyph glyph-name="Uhungarumlaut" unicode="Ű" horiz-adv-x="1404" d="M638 957q13 14 32 14h120q17 0 21.5 -9.5t-6.5 -22.5l-124 -139q-13 -14 -32 -14h-120q-17 0 -21.5 9.5t6.5 22.5zM891 957q13 14 32 14h120q17 0 21.5 -9.5t-6.5 -22.5l-124 -139q-13 -14 -32 -14h-120q-17 0 -21.5 9.5t6.5 22.5zM1254 596q-32 0 -45 -11.5t-13 -50.5 v-192q0 -92 -26 -161t-83.5 -115.5t-151 -70t-228.5 -23.5t-230 23.5t-154.5 70t-87 115.5t-27.5 161v192q0 39 -13 50.5t-45 11.5h-98q-26 0 -26 26v52q0 26 26 26h552q26 0 26 -26v-52q0 -26 -26 -26h-98q-32 0 -45 -11.5t-13 -50.5v-174q0 -68 14.5 -121t49 -89t92 -55 t143.5 -19t143.5 20.5t92 57.5t49 89.5t14.5 116.5v174q0 39 -13 50.5t-45 11.5h-98q-26 0 -26 26v52q0 26 26 26h462q26 0 26 -26v-52q0 -26 -26 -26h-98z"/>
<glyph glyph-name="uhungarumlaut" unicode="ű" horiz-adv-x="1404" d="M638 957q13 14 32 14h120q17 0 21.5 -9.5t-6.5 -22.5l-124 -139q-13 -14 -32 -14h-120q-17 0 -21.5 9.5t6.5 22.5zM891 957q13 14 32 14h120q17 0 21.5 -9.5t-6.5 -22.5l-124 -139q-13 -14 -32 -14h-120q-17 0 -21.5 9.5t6.5 22.5zM1254 596q-32 0 -45 -11.5t-13 -50.5 v-192q0 -92 -26 -161t-83.5 -115.5t-151 -70t-228.5 -23.5t-230 23.5t-154.5 70t-87 115.5t-27.5 161v192q0 39 -13 50.5t-45 11.5h-98q-26 0 -26 26v52q0 26 26 26h552q26 0 26 -26v-52q0 -26 -26 -26h-98q-32 0 -45 -11.5t-13 -50.5v-174q0 -68 14.5 -121t49 -89t92 -55 t143.5 -19t143.5 20.5t92 57.5t49 89.5t14.5 116.5v174q0 39 -13 50.5t-45 11.5h-98q-26 0 -26 26v52q0 26 26 26h462q26 0 26 -26v-52q0 -26 -26 -26h-98z"/>
<glyph glyph-name="Uogonek" unicode="Ų" horiz-adv-x="1404" d="M1352 700q26 0 26 -26v-52q0 -26 -26 -26h-98q-32 0 -45 -11.5t-13 -50.5v-192q0 -70 -15 -127t-47.5 -100.5t-84 -74t-125.5 -47.5q-9 -2 -15.5 -5t-14.5 -9q-26 -22 -40 -47t-14 -52q0 -18 6.5 -29t16.5 -17.5t23 -8.5t27 -2q33 0 56 12q24 13 30 1q10 -16 -3 -32 q-18 -22 -51.5 -41.5t-93.5 -19.5q-74 0 -106.5 31.5t-32.5 74.5q0 29 13.5 54.5t36.5 47.5t-8 22q-11 -1 -23 -1h-24q-135 0 -230 23.5t-154.5 70t-87 115.5t-27.5 161v192q0 39 -13 50.5t-45 11.5h-98q-26 0 -26 26v52q0 26 26 26h552q26 0 26 -26v-52q0 -26 -26 -26h-98 q-32 0 -45 -11.5t-13 -50.5v-174q0 -68 14.5 -121t49 -89t92 -55t143.5 -19t143.5 20.5t92 57.5t49 89.5t14.5 116.5v174q0 39 -13 50.5t-45 11.5h-98q-26 0 -26 26v52q0 26 26 26h462z"/>
<glyph glyph-name="uogonek" unicode="ų" horiz-adv-x="1404" d="M1352 700q26 0 26 -26v-52q0 -26 -26 -26h-98q-32 0 -45 -11.5t-13 -50.5v-192q0 -70 -15 -127t-47.5 -100.5t-84 -74t-125.5 -47.5q-9 -2 -15.5 -5t-14.5 -9q-26 -22 -40 -47t-14 -52q0 -18 6.5 -29t16.5 -17.5t23 -8.5t27 -2q33 0 56 12q24 13 30 1q10 -16 -3 -32 q-18 -22 -51.5 -41.5t-93.5 -19.5q-74 0 -106.5 31.5t-32.5 74.5q0 29 13.5 54.5t36.5 47.5t-8 22q-11 -1 -23 -1h-24q-135 0 -230 23.5t-154.5 70t-87 115.5t-27.5 161v192q0 39 -13 50.5t-45 11.5h-98q-26 0 -26 26v52q0 26 26 26h552q26 0 26 -26v-52q0 -26 -26 -26h-98 q-32 0 -45 -11.5t-13 -50.5v-174q0 -68 14.5 -121t49 -89t92 -55t143.5 -19t143.5 20.5t92 57.5t49 89.5t14.5 116.5v174q0 39 -13 50.5t-45 11.5h-98q-26 0 -26 26v52q0 26 26 26h462z"/>
<glyph glyph-name="Wcircumflex" unicode="Ŵ" horiz-adv-x="1834" d="M772 961q13 13 32 13h134q19 0 32 -13l139 -139q12 -12 8 -22t-21 -10h-24q-17 0 -32 7l-151 74q-18 8 -36 0l-151 -74q-15 -7 -32 -7h-26q-17 0 -20 10t9 22zM1395 700q-26 0 -26 -26v-52q0 -26 26 -26h75q30 0 36.5 -19t-5.5 -42l-179 -343q-8 -14 -18 -14t-18 14 l-183 343q-14 26 -7 43.5t37 17.5h69q26 0 26 26v52q0 26 -26 26h-476q-26 0 -26 -26v-52q0 -26 26 -26q64 0 101 -46q7 -9 7 -17.5t-5 -18.5l-169 -322q-8 -14 -18 -14t-18 14l-183 343q-14 26 -7 43.5t37 17.5h69q26 0 26 26v52q0 26 -26 26h-504q-26 0 -26 -26v-52 q0 -26 26 -26h8q26 0 46.5 -3t36 -10.5t28 -20t23.5 -32.5l285 -512q10 -18 31 -18h192q20 0 31 18l183 340q8 14 18 14t18 -14l189 -340q10 -18 31 -18h192q20 0 31 18l277 512q11 20 23.5 32.5t28 20t36 10.5t46.5 3h17q17 0 17 26v52q0 26 -26 26h-403z"/>
<glyph glyph-name="wcircumflex" unicode="ŵ" horiz-adv-x="1834" d="M772 961q13 13 32 13h134q19 0 32 -13l139 -139q12 -12 8 -22t-21 -10h-24q-17 0 -32 7l-151 74q-18 8 -36 0l-151 -74q-15 -7 -32 -7h-26q-17 0 -20 10t9 22zM1395 700q-26 0 -26 -26v-52q0 -26 26 -26h75q30 0 36.5 -19t-5.5 -42l-179 -343q-8 -14 -18 -14t-18 14 l-183 343q-14 26 -7 43.5t37 17.5h69q26 0 26 26v52q0 26 -26 26h-476q-26 0 -26 -26v-52q0 -26 26 -26q64 0 101 -46q7 -9 7 -17.5t-5 -18.5l-169 -322q-8 -14 -18 -14t-18 14l-183 343q-14 26 -7 43.5t37 17.5h69q26 0 26 26v52q0 26 -26 26h-504q-26 0 -26 -26v-52 q0 -26 26 -26h8q26 0 46.5 -3t36 -10.5t28 -20t23.5 -32.5l285 -512q10 -18 31 -18h192q20 0 31 18l183 340q8 14 18 14t18 -14l189 -340q10 -18 31 -18h192q20 0 31 18l277 512q11 20 23.5 32.5t28 20t36 10.5t46.5 3h17q17 0 17 26v52q0 26 -26 26h-403z"/>
<glyph glyph-name="Ycircumflex" unicode="Ŷ" horiz-adv-x="1260" d="M591 961q13 13 32 13h134q19 0 32 -13l139 -139q12 -12 8 -22t-21 -10h-24q-17 0 -32 7l-151 74q-18 8 -36 0l-151 -74q-15 -7 -32 -7h-26q-17 0 -20 10t9 22zM1079 545q17 16 33 26t33.5 15.5t37 7.5t43.5 2q14 0 19 5.5t5 20.5v52q0 26 -26 26h-404q-26 0 -26 -26v-52 q0 -26 26 -26h66q28 0 34 -16t-14 -33l-193 -174q-18 -16 -36 -1l-197 175q-20 17 -14 33t34 16h66q26 0 26 26v52q0 26 -26 26h-530q-26 0 -26 -26v-52q0 -26 24 -26q49 0 85.5 -10t71.5 -41l321 -290q14 -13 14 -32v-59q0 -38 -15 -49t-45 -11h-102q-26 0 -26 -26v-52 q0 -26 26 -26h564q26 0 26 26v52q0 26 -26 26h-102q-30 0 -45 11t-15 49v71q0 19 14 32z"/>
<glyph glyph-name="ycircumflex" unicode="ŷ" horiz-adv-x="1260" d="M591 961q13 13 32 13h134q19 0 32 -13l139 -139q12 -12 8 -22t-21 -10h-24q-17 0 -32 7l-151 74q-18 8 -36 0l-151 -74q-15 -7 -32 -7h-26q-17 0 -20 10t9 22zM1079 545q17 16 33 26t33.5 15.5t37 7.5t43.5 2q14 0 19 5.5t5 20.5v52q0 26 -26 26h-404q-26 0 -26 -26v-52 q0 -26 26 -26h66q28 0 34 -16t-14 -33l-193 -174q-18 -16 -36 -1l-197 175q-20 17 -14 33t34 16h66q26 0 26 26v52q0 26 -26 26h-530q-26 0 -26 -26v-52q0 -26 24 -26q49 0 85.5 -10t71.5 -41l321 -290q14 -13 14 -32v-59q0 -38 -15 -49t-45 -11h-102q-26 0 -26 -26v-52 q0 -26 26 -26h564q26 0 26 26v52q0 26 -26 26h-102q-30 0 -45 11t-15 49v71q0 19 14 32z"/>
<glyph glyph-name="Ydieresis" unicode="Ÿ" horiz-adv-x="1260" d="M561 780q-51 0 -79 21.5t-28 65.5q0 43 28 64.5t79 21.5t78.5 -21.5t27.5 -64.5q0 -44 -27.5 -65.5t-78.5 -21.5zM821 780q-51 0 -79 21.5t-28 65.5q0 43 28 64.5t79 21.5t78.5 -21.5t27.5 -64.5q0 -44 -27.5 -65.5t-78.5 -21.5zM780 267q-14 -13 -14 -32v-71 q0 -38 15 -49t45 -11h102q26 0 26 -26v-52q0 -26 -26 -26h-564q-26 0 -26 26v52q0 26 26 26h102q30 0 45 11t15 49v59q0 19 -14 32l-321 290q-35 31 -71.5 41t-85.5 10q-24 0 -24 26v52q0 26 26 26h530q26 0 26 -26v-52q0 -26 -26 -26h-66q-28 0 -34 -16t14 -33l197 -175 q18 -15 36 1l193 174q20 17 14 33t-34 16h-66q-26 0 -26 26v52q0 26 26 26h404q26 0 26 -26v-52q0 -15 -5 -20.5t-19 -5.5q-24 0 -43.5 -2t-37 -7.5t-33.5 -15.5t-33 -26z"/>
<glyph glyph-name="Zacute" unicode="Ź" horiz-adv-x="1190" d="M805 960q19 0 22 -10.5t-12 -21.5l-189 -132q-16 -10 -33 -10h-44q-16 0 -21 8.5t3 22.5l72 125q10 18 31 18h171zM443 136q-16 -11 -13 -21.5t23 -10.5h396q42 0 68 8t40.5 27.5t21 52.5t10.5 82q2 26 27 26h89q26 0 26 -26v-248q0 -26 -26 -26h-1031q-26 0 -26 26v48 q0 19 16 31l660 459q16 11 13 21.5t-23 10.5h-355q-42 0 -68 -8t-40.5 -27.5t-21 -52.5t-10.5 -82q-2 -26 -27 -26h-89q-26 0 -26 26v248q0 26 26 26h990q26 0 26 -26v-48q0 -19 -16 -31z"/>
<glyph glyph-name="zacute" unicode="ź" horiz-adv-x="1190" d="M805 960q19 0 22 -10.5t-12 -21.5l-189 -132q-16 -10 -33 -10h-44q-16 0 -21 8.5t3 22.5l72 125q10 18 31 18h171zM443 136q-16 -11 -13 -21.5t23 -10.5h396q42 0 68 8t40.5 27.5t21 52.5t10.5 82q2 26 27 26h89q26 0 26 -26v-248q0 -26 -26 -26h-1031q-26 0 -26 26v48 q0 19 16 31l660 459q16 11 13 21.5t-23 10.5h-355q-42 0 -68 -8t-40.5 -27.5t-21 -52.5t-10.5 -82q-2 -26 -27 -26h-89q-26 0 -26 26v248q0 26 26 26h990q26 0 26 -26v-48q0 -19 -16 -31z"/>
<glyph glyph-name="Zdotaccent" unicode="Ż" horiz-adv-x="1190" d="M619 780q-51 0 -79 21.5t-28 65.5q0 43 28 64.5t79 21.5t78.5 -21.5t27.5 -64.5q0 -44 -27.5 -65.5t-78.5 -21.5zM443 136q-16 -11 -13 -21.5t23 -10.5h396q42 0 68 8t40.5 27.5t21 52.5t10.5 82q2 26 27 26h89q26 0 26 -26v-248q0 -26 -26 -26h-1031q-26 0 -26 26v48 q0 19 16 31l660 459q16 11 13 21.5t-23 10.5h-355q-42 0 -68 -8t-40.5 -27.5t-21 -52.5t-10.5 -82q-2 -26 -27 -26h-89q-26 0 -26 26v248q0 26 26 26h990q26 0 26 -26v-48q0 -19 -16 -31z"/>
<glyph glyph-name="zdotaccent" unicode="ż" horiz-adv-x="1190" d="M619 780q-51 0 -79 21.5t-28 65.5q0 43 28 64.5t79 21.5t78.5 -21.5t27.5 -64.5q0 -44 -27.5 -65.5t-78.5 -21.5zM443 136q-16 -11 -13 -21.5t23 -10.5h396q42 0 68 8t40.5 27.5t21 52.5t10.5 82q2 26 27 26h89q26 0 26 -26v-248q0 -26 -26 -26h-1031q-26 0 -26 26v48 q0 19 16 31l660 459q16 11 13 21.5t-23 10.5h-355q-42 0 -68 -8t-40.5 -27.5t-21 -52.5t-10.5 -82q-2 -26 -27 -26h-89q-26 0 -26 26v248q0 26 26 26h990q26 0 26 -26v-48q0 -19 -16 -31z"/>
<glyph glyph-name="Zcaron" unicode="Ž" horiz-adv-x="1190" d="M418 974q17 0 32 -7l151 -74q18 -8 36 0l151 74q15 7 32 7h26q17 0 20 -10t-9 -22l-139 -139q-13 -13 -32 -13h-134q-19 0 -32 13l-139 139q-12 12 -9 22t20 10h26zM1103 595q16 12 16 31v48q0 26 -26 26h-990q-26 0 -26 -26v-248q0 -26 26 -26h89q25 0 27 26 q4 49 10.5 82t21 52.5t40.5 27.5t68 8h355q20 0 23 -10.5t-13 -21.5l-660 -459q-16 -12 -16 -31v-48q0 -26 26 -26h1031q26 0 26 26v248q0 26 -26 26h-89q-25 0 -27 -26q-4 -49 -10.5 -82t-21 -52.5t-40.5 -27.5t-68 -8h-396q-20 0 -23 10.5t13 21.5z"/>
<glyph glyph-name="zcaron" unicode="ž" horiz-adv-x="1190" d="M418 974q17 0 32 -7l151 -74q18 -8 36 0l151 74q15 7 32 7h26q17 0 20 -10t-9 -22l-139 -139q-13 -13 -32 -13h-134q-19 0 -32 13l-139 139q-12 12 -9 22t20 10h26zM1103 595q16 12 16 31v48q0 26 -26 26h-990q-26 0 -26 -26v-248q0 -26 26 -26h89q25 0 27 26 q4 49 10.5 82t21 52.5t40.5 27.5t68 8h355q20 0 23 -10.5t-13 -21.5l-660 -459q-16 -12 -16 -31v-48q0 -26 26 -26h1031q26 0 26 26v248q0 26 -26 26h-89q-25 0 -27 -26q-4 -49 -10.5 -82t-21 -52.5t-40.5 -27.5t-68 -8h-396q-20 0 -23 10.5t13 21.5z"/>
<glyph glyph-name="florin" unicode="ƒ" horiz-adv-x="989" d="M701 720q68 0 114.5 -16t74.5 -41.5t40 -56t12 -59.5q0 -54 -33 -82.5t-80 -28.5q-45 0 -75 26t-30 69q0 32 18.5 54.5t53.5 24.5q17 1 19 5t-15 9q-14 5 -26.5 6t-22.5 1q-49 0 -76 -29t-38 -91l-11 -62q-5 -28 24 -28h78q26 0 26 -26v-52q0 -26 -26 -26h-101 q-24 0 -28 -24l-19 -109q-11 -61 -41 -100.5t-71 -63t-88 -32.5t-92 -9q-68 0 -114.5 16t-74.5 41.5t-40 56t-12 59.5q0 54 33 82.5t80 28.5q45 0 75 -26t30 -69q0 -32 -18.5 -54.5t-53.5 -24.5q-17 -1 -19 -5t15 -9q14 -5 26.5 -6t22.5 -1q49 0 76 29t38 91l18 101 q5 28 -24 28h-77q-26 0 -26 26v52q0 26 26 26h100q23 0 28 24l12 70q10 61 40.5 100.5t71.5 63t88 32.5t92 9z"/>
<glyph glyph-name="circumflex" unicode="ˆ" horiz-adv-x="660" d="M231 961q13 13 32 13h134q19 0 32 -13l139 -139q12 -12 8 -22t-21 -10h-24q-17 0 -32 7l-151 74q-18 8 -36 0l-151 -74q-15 -7 -32 -7h-26q-17 0 -20 10t9 22z"/>
<glyph glyph-name="caron" unicode="ˇ" horiz-adv-x="660" d="M129 974q17 0 32 -7l151 -74q18 -8 36 0l151 74q15 7 32 7h26q17 0 20 -10t-9 -22l-139 -139q-13 -13 -32 -13h-134q-19 0 -32 13l-139 139q-12 12 -9 22t20 10h26z"/>
<glyph glyph-name="breve" unicode="˘" horiz-adv-x="600" d="M473 950q28 0 25 -26q-3 -22 -12.5 -47.5t-31.5 -48t-59.5 -37.5t-94.5 -15t-94.5 15t-59.5 37.5t-31.5 48t-12.5 47.5q-3 26 25 26h21q11 0 17.5 -5t11.5 -15q11 -20 40 -37t83 -17t83 17t40 37q5 10 11.5 15t17.5 5h21z"/>
<glyph glyph-name="dotaccent" unicode="˙" horiz-adv-x="413" d="M207 780q-51 0 -79 21.5t-28 65.5q0 43 28 64.5t79 21.5t78.5 -21.5t27.5 -64.5q0 -44 -27.5 -65.5t-78.5 -21.5z"/>
<glyph glyph-name="ring" unicode="˚" horiz-adv-x="609" d="M304 770q-44 0 -81.5 8t-64.5 23.5t-42.5 38.5t-15.5 53t15.5 53t42.5 38.5t64.5 23.5t81.5 8q45 0 82.5 -8t64.5 -23.5t42.5 -38.5t15.5 -53t-15.5 -53t-42.5 -38.5t-64.5 -23.5t-82.5 -8zM219 893q0 -29 23 -44t62 -15q40 0 63 15t23 44t-23 44t-63 15q-39 0 -62 -15 t-23 -44z"/>
<glyph glyph-name="ogonek" unicode="˛" horiz-adv-x="496" d="M228 -120q0 -18 6.5 -29t16.5 -17.5t23 -8.5t27 -2q33 0 56 12q23 13 31 0q9 -15 -4 -31q-17 -22 -51 -41.5t-94 -19.5q-74 0 -106.5 31.5t-32.5 74.5q0 49 35.5 87t89.5 64h86q-38 -25 -60.5 -55.5t-22.5 -64.5z"/>
<glyph glyph-name="tilde" unicode="˜" horiz-adv-x="772" d="M126 779q-26 0 -26 26v11q0 36 12 60.5t33 39.5t49 21.5t60 6.5q49 0 84 -10.5t63.5 -23.5t55.5 -23.5t59 -10.5q25 0 38.5 8.5t18.5 25.5q4 12 9.5 18t17.5 6h46q26 0 26 -26v-11q0 -36 -12 -60.5t-33 -39.5t-49 -21.5t-60 -6.5q-49 0 -83 10.5t-62 23.5t-55 23.5 t-62 10.5q-26 0 -39 -8.5t-18 -25.5q-4 -12 -9.5 -18t-17.5 -6h-46z"/>
<glyph glyph-name="hungarumlaut" unicode="˝" horiz-adv-x="800" d="M252 957q13 14 32 14h120q17 0 21.5 -9.5t-6.5 -22.5l-124 -139q-13 -14 -32 -14h-120q-17 0 -21.5 9.5t6.5 22.5zM505 957q13 14 32 14h120q17 0 21.5 -9.5t-6.5 -22.5l-124 -139q-13 -14 -32 -14h-120q-17 0 -21.5 9.5t6.5 22.5z"/>
<glyph glyph-name="uni0326" unicode="̦" horiz-adv-x="0" d="M197 -300q-47 0 -74 32t-27 79q0 27 9.5 50t27 39.5t41 26t52.5 9.5q61 0 101 -43.5t40 -129.5q0 -53 -16 -92.5t-42 -68t-60 -46t-70 -25.5q-24 -6 -32 18l-8 23q-8 26 19 32q49 13 79.5 39.5t36.5 78.5q1 6 -2.5 7.5t-8.5 -4.5q-13 -13 -30 -19t-36 -6z"/>
<glyph glyph-name="Wgrave" unicode="Ẁ" horiz-adv-x="1834" d="M859 960q21 0 31 -18l72 -125q8 -14 3 -22.5t-21 -8.5h-44q-17 0 -33 10l-189 132q-15 11 -12 21.5t22 10.5h171zM1798 700q26 0 26 -26v-52q0 -26 -17 -26h-17q-26 0 -46.5 -3t-36 -10.5t-28 -20t-23.5 -32.5l-277 -512q-11 -18 -31 -18h-192q-21 0 -31 18l-189 340 q-8 14 -18 14t-18 -14l-183 -340q-11 -18 -31 -18h-192q-21 0 -31 18l-285 512q-11 20 -23.5 32.5t-28 20t-36 10.5t-46.5 3h-8q-26 0 -26 26v52q0 26 26 26h504q26 0 26 -26v-52q0 -26 -26 -26h-69q-30 0 -37 -17.5t7 -43.5l183 -343q8 -14 18 -14t18 14l169 322 q5 10 5 18.5t-7 17.5q-37 46 -101 46q-26 0 -26 26v52q0 26 26 26h476q26 0 26 -26v-52q0 -26 -26 -26h-69q-30 0 -37 -17.5t7 -43.5l183 -343q8 -14 18 -14t18 14l179 343q12 23 5.5 42t-36.5 19h-75q-26 0 -26 26v52q0 26 26 26h403z"/>
<glyph glyph-name="wgrave" unicode="ẁ" horiz-adv-x="1834" d="M859 960q21 0 31 -18l72 -125q8 -14 3 -22.5t-21 -8.5h-44q-17 0 -33 10l-189 132q-15 11 -12 21.5t22 10.5h171zM1798 700q26 0 26 -26v-52q0 -26 -17 -26h-17q-26 0 -46.5 -3t-36 -10.5t-28 -20t-23.5 -32.5l-277 -512q-11 -18 -31 -18h-192q-21 0 -31 18l-189 340 q-8 14 -18 14t-18 -14l-183 -340q-11 -18 -31 -18h-192q-21 0 -31 18l-285 512q-11 20 -23.5 32.5t-28 20t-36 10.5t-46.5 3h-8q-26 0 -26 26v52q0 26 26 26h504q26 0 26 -26v-52q0 -26 -26 -26h-69q-30 0 -37 -17.5t7 -43.5l183 -343q8 -14 18 -14t18 14l169 322 q5 10 5 18.5t-7 17.5q-37 46 -101 46q-26 0 -26 26v52q0 26 26 26h476q26 0 26 -26v-52q0 -26 -26 -26h-69q-30 0 -37 -17.5t7 -43.5l183 -343q8 -14 18 -14t18 14l179 343q12 23 5.5 42t-36.5 19h-75q-26 0 -26 26v52q0 26 26 26h403z"/>
<glyph glyph-name="Wacute" unicode="Ẃ" horiz-adv-x="1834" d="M1057 960q19 0 22 -10.5t-12 -21.5l-189 -132q-16 -10 -33 -10h-44q-16 0 -21 8.5t3 22.5l72 125q10 18 31 18h171zM1798 700q26 0 26 -26v-52q0 -26 -17 -26h-17q-26 0 -46.5 -3t-36 -10.5t-28 -20t-23.5 -32.5l-277 -512q-11 -18 -31 -18h-192q-21 0 -31 18l-189 340 q-8 14 -18 14t-18 -14l-183 -340q-11 -18 -31 -18h-192q-21 0 -31 18l-285 512q-11 20 -23.5 32.5t-28 20t-36 10.5t-46.5 3h-8q-26 0 -26 26v52q0 26 26 26h504q26 0 26 -26v-52q0 -26 -26 -26h-69q-30 0 -37 -17.5t7 -43.5l183 -343q8 -14 18 -14t18 14l169 322 q5 10 5 18.5t-7 17.5q-37 46 -101 46q-26 0 -26 26v52q0 26 26 26h476q26 0 26 -26v-52q0 -26 -26 -26h-69q-30 0 -37 -17.5t7 -43.5l183 -343q8 -14 18 -14t18 14l179 343q12 23 5.5 42t-36.5 19h-75q-26 0 -26 26v52q0 26 26 26h403z"/>
<glyph glyph-name="wacute" unicode="ẃ" horiz-adv-x="1834" d="M1057 960q19 0 22 -10.5t-12 -21.5l-189 -132q-16 -10 -33 -10h-44q-16 0 -21 8.5t3 22.5l72 125q10 18 31 18h171zM1798 700q26 0 26 -26v-52q0 -26 -17 -26h-17q-26 0 -46.5 -3t-36 -10.5t-28 -20t-23.5 -32.5l-277 -512q-11 -18 -31 -18h-192q-21 0 -31 18l-189 340 q-8 14 -18 14t-18 -14l-183 -340q-11 -18 -31 -18h-192q-21 0 -31 18l-285 512q-11 20 -23.5 32.5t-28 20t-36 10.5t-46.5 3h-8q-26 0 -26 26v52q0 26 26 26h504q26 0 26 -26v-52q0 -26 -26 -26h-69q-30 0 -37 -17.5t7 -43.5l183 -343q8 -14 18 -14t18 14l169 322 q5 10 5 18.5t-7 17.5q-37 46 -101 46q-26 0 -26 26v52q0 26 26 26h476q26 0 26 -26v-52q0 -26 -26 -26h-69q-30 0 -37 -17.5t7 -43.5l183 -343q8 -14 18 -14t18 14l179 343q12 23 5.5 42t-36.5 19h-75q-26 0 -26 26v52q0 26 26 26h403z"/>
<glyph glyph-name="Wdieresis" unicode="Ẅ" horiz-adv-x="1834" d="M742 780q-51 0 -79 21.5t-28 65.5q0 43 28 64.5t79 21.5t78.5 -21.5t27.5 -64.5q0 -44 -27.5 -65.5t-78.5 -21.5zM1002 780q-51 0 -79 21.5t-28 65.5q0 43 28 64.5t79 21.5t78.5 -21.5t27.5 -64.5q0 -44 -27.5 -65.5t-78.5 -21.5zM1798 700q26 0 26 -26v-52 q0 -26 -17 -26h-17q-26 0 -46.5 -3t-36 -10.5t-28 -20t-23.5 -32.5l-277 -512q-11 -18 -31 -18h-192q-21 0 -31 18l-189 340q-8 14 -18 14t-18 -14l-183 -340q-11 -18 -31 -18h-192q-21 0 -31 18l-285 512q-11 20 -23.5 32.5t-28 20t-36 10.5t-46.5 3h-8q-26 0 -26 26v52 q0 26 26 26h504q26 0 26 -26v-52q0 -26 -26 -26h-69q-30 0 -37 -17.5t7 -43.5l183 -343q8 -14 18 -14t18 14l169 322q5 10 5 18.5t-7 17.5q-37 46 -101 46q-26 0 -26 26v52q0 26 26 26h476q26 0 26 -26v-52q0 -26 -26 -26h-69q-30 0 -37 -17.5t7 -43.5l183 -343 q8 -14 18 -14t18 14l179 343q12 23 5.5 42t-36.5 19h-75q-26 0 -26 26v52q0 26 26 26h403z"/>
<glyph glyph-name="wdieresis" unicode="ẅ" horiz-adv-x="1834" d="M742 780q-51 0 -79 21.5t-28 65.5q0 43 28 64.5t79 21.5t78.5 -21.5t27.5 -64.5q0 -44 -27.5 -65.5t-78.5 -21.5zM1002 780q-51 0 -79 21.5t-28 65.5q0 43 28 64.5t79 21.5t78.5 -21.5t27.5 -64.5q0 -44 -27.5 -65.5t-78.5 -21.5zM1798 700q26 0 26 -26v-52 q0 -26 -17 -26h-17q-26 0 -46.5 -3t-36 -10.5t-28 -20t-23.5 -32.5l-277 -512q-11 -18 -31 -18h-192q-21 0 -31 18l-189 340q-8 14 -18 14t-18 -14l-183 -340q-11 -18 -31 -18h-192q-21 0 -31 18l-285 512q-11 20 -23.5 32.5t-28 20t-36 10.5t-46.5 3h-8q-26 0 -26 26v52 q0 26 26 26h504q26 0 26 -26v-52q0 -26 -26 -26h-69q-30 0 -37 -17.5t7 -43.5l183 -343q8 -14 18 -14t18 14l169 322q5 10 5 18.5t-7 17.5q-37 46 -101 46q-26 0 -26 26v52q0 26 26 26h476q26 0 26 -26v-52q0 -26 -26 -26h-69q-30 0 -37 -17.5t7 -43.5l183 -343 q8 -14 18 -14t18 14l179 343q12 23 5.5 42t-36.5 19h-75q-26 0 -26 26v52q0 26 26 26h403z"/>
<glyph glyph-name="Ygrave" unicode="Ỳ" horiz-adv-x="1260" d="M678 960q21 0 31 -18l72 -125q8 -14 3 -22.5t-21 -8.5h-44q-17 0 -33 10l-189 132q-15 11 -12 21.5t22 10.5h171zM780 267q-14 -13 -14 -32v-71q0 -38 15 -49t45 -11h102q26 0 26 -26v-52q0 -26 -26 -26h-564q-26 0 -26 26v52q0 26 26 26h102q30 0 45 11t15 49v59 q0 19 -14 32l-321 290q-35 31 -71.5 41t-85.5 10q-24 0 -24 26v52q0 26 26 26h530q26 0 26 -26v-52q0 -26 -26 -26h-66q-28 0 -34 -16t14 -33l197 -175q18 -15 36 1l193 174q20 17 14 33t-34 16h-66q-26 0 -26 26v52q0 26 26 26h404q26 0 26 -26v-52q0 -15 -5 -20.5 t-19 -5.5q-24 0 -43.5 -2t-37 -7.5t-33.5 -15.5t-33 -26z"/>
<glyph glyph-name="ygrave" unicode="ỳ" horiz-adv-x="1260" d="M678 960q21 0 31 -18l72 -125q8 -14 3 -22.5t-21 -8.5h-44q-17 0 -33 10l-189 132q-15 11 -12 21.5t22 10.5h171zM780 267q-14 -13 -14 -32v-71q0 -38 15 -49t45 -11h102q26 0 26 -26v-52q0 -26 -26 -26h-564q-26 0 -26 26v52q0 26 26 26h102q30 0 45 11t15 49v59 q0 19 -14 32l-321 290q-35 31 -71.5 41t-85.5 10q-24 0 -24 26v52q0 26 26 26h530q26 0 26 -26v-52q0 -26 -26 -26h-66q-28 0 -34 -16t14 -33l197 -175q18 -15 36 1l193 174q20 17 14 33t-34 16h-66q-26 0 -26 26v52q0 26 26 26h404q26 0 26 -26v-52q0 -15 -5 -20.5 t-19 -5.5q-24 0 -43.5 -2t-37 -7.5t-33.5 -15.5t-33 -26z"/>
<glyph glyph-name="endash" unicode="–" horiz-adv-x="967" d="M80 397q0 26 26 26h755q26 0 26 -26v-74q0 -26 -26 -26h-755q-26 0 -26 26v74z"/>
<glyph glyph-name="emdash" unicode="—" horiz-adv-x="1258" d="M80 397q0 26 26 26h1046q26 0 26 -26v-74q0 -26 -26 -26h-1046q-26 0 -26 26v74z"/>
<glyph glyph-name="quoteleft" unicode="‘" horiz-adv-x="363" d="M216 546q47 0 74 -32t27 -79q0 -27 -9.5 -50t-27 -39.5t-41.5 -26t-52 -9.5q-61 0 -101 43.5t-40 129.5q0 53 16 92.5t42 68t60 46t70 25.5q24 6 32 -18l8 -23q8 -26 -19 -32q-49 -13 -79.5 -39.5t-36.5 -78.5q-1 -6 2.5 -7.5t8.5 4.5q13 13 30 19t36 6z"/>
<glyph glyph-name="quoteright" unicode="’" horiz-adv-x="363" d="M147 480q-47 0 -74 32t-27 79q0 27 9.5 50t27 39.5t41 26t52.5 9.5q61 0 101 -43.5t40 -129.5q0 -53 -16 -92.5t-42 -68t-60 -46t-70 -25.5q-24 -6 -32 18l-8 23q-8 26 19 32q49 13 79.5 39.5t36.5 78.5q1 6 -2.5 7.5t-8.5 -4.5q-13 -13 -30 -19t-36 -6z"/>
<glyph glyph-name="quotesinglbase" unicode="‚" horiz-adv-x="359" d="M145 -11q-47 0 -74 32t-27 79q0 27 9.5 50t27 39.5t41 26t52.5 9.5q61 0 101 -43.5t40 -129.5q0 -53 -16 -92.5t-42 -68t-60 -46t-70 -25.5q-24 -6 -32 18l-8 23q-8 26 19 32q49 13 79.5 39.5t36.5 78.5q1 6 -2.5 7.5t-8.5 -4.5q-13 -13 -30 -19t-36 -6z"/>
<glyph glyph-name="quotedblleft" unicode="“" horiz-adv-x="686" d="M539 548q47 0 74 -32t27 -79q0 -27 -9.5 -50t-27 -39.5t-41.5 -26t-52 -9.5q-61 0 -101 43.5t-40 129.5q0 53 16 92.5t42 68t60 46t70 25.5q24 6 32 -18l8 -23q8 -26 -19 -32q-49 -13 -79.5 -39.5t-36.5 -78.5q-1 -6 2.5 -7.5t8.5 4.5q13 13 30 19t36 6zM216 546 q47 0 74 -32t27 -79q0 -27 -9.5 -50t-27 -39.5t-41.5 -26t-52 -9.5q-61 0 -101 43.5t-40 129.5q0 53 16 92.5t42 68t60 46t70 25.5q24 6 32 -18l8 -23q8 -26 -19 -32q-49 -13 -79.5 -39.5t-36.5 -78.5q-1 -6 2.5 -7.5t8.5 4.5q13 13 30 19t36 6z"/>
<glyph glyph-name="quotedblright" unicode="”" horiz-adv-x="686" d="M147 480q-47 0 -74 32t-27 79q0 27 9.5 50t27 39.5t41 26t52.5 9.5q61 0 101 -43.5t40 -129.5q0 -53 -16 -92.5t-42 -68t-60 -46t-70 -25.5q-24 -6 -32 18l-8 23q-8 26 19 32q49 13 79.5 39.5t36.5 78.5q1 6 -2.5 7.5t-8.5 -4.5q-13 -13 -30 -19t-36 -6zM470 480 q-47 0 -74 32t-27 79q0 27 9.5 50t27 39.5t41 26t52.5 9.5q61 0 101 -43.5t40 -129.5q0 -53 -16 -92.5t-42 -68t-60 -46t-70 -25.5q-24 -6 -32 18l-8 23q-8 26 19 32q49 13 79.5 39.5t36.5 78.5q1 6 -2.5 7.5t-8.5 -4.5q-13 -13 -30 -19t-36 -6z"/>
<glyph glyph-name="quotedblbase" unicode="„" horiz-adv-x="681" d="M145 -11q-47 0 -74 32t-27 79q0 27 9.5 50t27 39.5t41 26t52.5 9.5q61 0 101 -43.5t40 -129.5q0 -53 -16 -92.5t-42 -68t-60 -46t-70 -25.5q-24 -6 -32 18l-8 23q-8 26 19 32q49 13 79.5 39.5t36.5 78.5q1 6 -2.5 7.5t-8.5 -4.5q-13 -13 -30 -19t-36 -6zM467 -11 q-47 0 -74 32t-27 79q0 27 9.5 50t27 39.5t41 26t52.5 9.5q61 0 101 -43.5t40 -129.5q0 -53 -16 -92.5t-42 -68t-60 -46t-70 -25.5q-24 -6 -32 18l-8 23q-8 26 19 32q49 13 79.5 39.5t36.5 78.5q1 6 -2.5 7.5t-8.5 -4.5q-13 -13 -30 -19t-36 -6z"/>
<glyph glyph-name="dagger" unicode="†" horiz-adv-x="598" d="M548 475q0 -17 -7 -29.5t-17.5 -20.5t-23 -11.5t-23.5 -3.5q-24 0 -49.5 9.5t-61.5 21.5q-15 5 -24 -2.5t-3 -22.5q8 -20 22.5 -40t31.5 -40q8 -8 9 -16.5t-4 -19.5q-9 -22 -18.5 -57t-18 -74t-16 -77.5t-11.5 -67.5q-3 -24 -27 -24h-16q-24 0 -27 24q-5 29 -12 67.5 t-15.5 77.5t-18 74t-18.5 57q-5 11 -4 19.5t9 16.5q17 19 31.5 39t22.5 40q6 15 -3.5 22.5t-24.5 2.5q-35 -12 -60.5 -21t-49.5 -9q-11 0 -23.5 3.5t-23 11.5t-17.5 20.5t-7 29.5t7 29.5t17.5 20.5t23 11.5t23.5 3.5q24 0 49 -9t60 -21q16 -5 23.5 2.5t2.5 23.5 q-11 31 -20 57.5t-9 46.5q0 36 20 55t52 19t52 -18.5t20 -55.5q0 -20 -9 -47t-20 -57q-5 -16 2.5 -23.5t23.5 -2.5q35 12 60 21t49 9q11 0 23.5 -3.5t23 -11.5t17.5 -20.5t7 -29.5z"/>
<glyph glyph-name="daggerdbl" unicode="‡" horiz-adv-x="598" d="M477 290q11 0 23.5 -3.5t23 -11.5t17.5 -20.5t7 -29.5t-7 -29.5t-17.5 -20.5t-23 -11.5t-23.5 -3.5q-24 0 -49 9t-60 21q-16 5 -23.5 -2.5t-2.5 -23.5q11 -30 20 -57t9 -47q0 -37 -20 -55.5t-52 -18.5t-52 19t-20 55q0 20 9 46.5t20 57.5q5 16 -2.5 23.5t-23.5 2.5 q-35 -12 -60 -21t-49 -9q-11 0 -23.5 3.5t-23 11.5t-17.5 20.5t-7 29.5t7 29.5t17.5 20.5t23 11.5t23.5 3.5q23 0 47.5 -9t58.5 -20q17 -6 25.5 2.5t-0.5 22.5q-9 13 -20.5 25t-21.5 21q-20 18 0 36q10 9 20.5 20t19.5 24q10 14 0.5 23t-26.5 3q-32 -11 -56 -19.5t-47 -8.5 q-11 0 -23.5 3.5t-23 11.5t-17.5 20.5t-7 29.5t7 29.5t17.5 20.5t23 11.5t23.5 3.5q24 0 49 -9t60 -21q16 -5 23.5 2.5t2.5 23.5q-11 31 -20 57.5t-9 46.5q0 36 20 55t52 19t52 -18.5t20 -55.5q0 -20 -9 -47t-20 -57q-5 -16 2.5 -23.5t23.5 -2.5q35 12 60 21t49 9 q11 0 23.5 -3.5t23 -11.5t17.5 -20.5t7 -29.5t-7 -29.5t-17.5 -20.5t-23 -11.5t-23.5 -3.5q-23 0 -47.5 9t-58.5 20q-17 6 -25.5 -2.5t0.5 -22.5q9 -13 20.5 -25t21.5 -21q19 -18 0 -36q-10 -9 -20.5 -20t-19.5 -24q-5 -7 -3 -12.5t8.5 -8.5t17.5 -3t23 5q25 9 44 15t39 6z "/>
<glyph glyph-name="bullet" unicode="•" horiz-adv-x="513" d="M257 203q-41 0 -72 12t-52 33.5t-32 50t-11 61.5t11 61.5t32 49.5t52 33t72 12q40 0 71 -12t52 -33t32 -49.5t11 -61.5t-11 -61.5t-32 -50t-52 -33.5t-71 -12z"/>
<glyph glyph-name="ellipsis" unicode="…" horiz-adv-x="1035" d="M175 -16q-29 0 -53.5 9.5t-41.5 25.5t-26.5 38t-9.5 48q0 25 9.5 47t26.5 38t41.5 25.5t53.5 9.5t53 -9.5t41 -25.5t26.5 -38t9.5 -47q0 -26 -9.5 -48t-26.5 -38t-41 -25.5t-53 -9.5zM518 -16q-29 0 -53.5 9.5t-41.5 25.5t-26.5 38t-9.5 48q0 25 9.5 47t26.5 38 t41.5 25.5t53.5 9.5t53 -9.5t41 -25.5t26.5 -38t9.5 -47q0 -26 -9.5 -48t-26.5 -38t-41 -25.5t-53 -9.5zM861 -16q-29 0 -53.5 9.5t-41.5 25.5t-26.5 38t-9.5 48q0 25 9.5 47t26.5 38t41.5 25.5t53.5 9.5t53 -9.5t41 -25.5t26.5 -38t9.5 -47q0 -26 -9.5 -48t-26.5 -38 t-41 -25.5t-53 -9.5z"/>
<glyph glyph-name="perthousand" unicode="‰" horiz-adv-x="1731" d="M303 334q-119 0 -187 46t-68 137t68 142t187 51q120 0 188 -51t68 -142t-68 -137t-188 -46zM834 686q13 14 32 14h74q17 0 21.5 -9.5t-7.5 -22.5l-583 -654q-13 -14 -32 -14h-74q-17 0 -21.5 9.5t6.5 22.5zM198 517q0 -57 27.5 -83t77.5 -26t78 26t28 83t-28 88t-78 31 t-77.5 -31t-27.5 -88zM897 -10q-119 0 -187 46t-68 137t68 142t187 51q120 0 188 -51t68 -142t-68 -137t-188 -46zM1431 -10q-119 0 -187 46t-68 137t68 142t187 51q120 0 188 -51t68 -142t-68 -137t-188 -46zM792 173q0 -57 27.5 -83t77.5 -26t78 26t28 83t-28 88t-78 31 t-77.5 -31t-27.5 -88zM1326 173q0 -57 27.5 -83t77.5 -26t78 26t28 83t-28 88t-78 31t-77.5 -31t-27.5 -88z"/>
<glyph glyph-name="guilsinglleft" unicode="‹" horiz-adv-x="525" d="M380 575q21 12 36 -6l11 -13q16 -19 -2 -37l-154 -152q-18 -18 0 -36l154 -151q18 -18 2 -37l-11 -13q-15 -18 -36 -6l-309 184q-18 11 -18 32v18q0 21 18 32z"/>
<glyph glyph-name="guilsinglright" unicode="›" horiz-adv-x="525" d="M454 390q18 -11 18 -32v-18q0 -21 -18 -32l-309 -184q-21 -12 -36 6l-11 13q-16 19 2 37l154 151q18 18 0 36l-154 152q-18 18 -2 37l11 13q15 18 36 6z"/>
<glyph glyph-name="fraction" unicode="⁄" horiz-adv-x="716" d="M587 686q13 14 32 14h74q17 0 21.5 -9.5t-7.5 -22.5l-583 -654q-13 -14 -32 -14h-74q-17 0 -21.5 9.5t6.5 22.5z"/>
<glyph glyph-name="uni2070" unicode="⁰" horiz-adv-x="633" d="M316 308q-67 0 -118 14.5t-85.5 41.5t-52.5 64t-18 82t18 82t52.5 64t85.5 41.5t118 14.5t118.5 -14.5t86 -41.5t52.5 -64t18 -82t-18 -82t-52.5 -64t-86 -41.5t-118.5 -14.5zM184 510q0 -64 35 -100t97 -36q63 0 98 36t35 100q0 66 -35 101t-98 35q-62 0 -97 -35 t-35 -101z"/>
<glyph glyph-name="uni2074" unicode="⁴" horiz-adv-x="673" d="M512 432q-12 0 -12 -8v-9q0 -20 5.5 -25.5t16.5 -5.5h79q12 0 12 -12v-40q0 -12 -12 -12h-340q-12 0 -12 12v40q0 12 12 12h81q11 0 16.5 5.5t5.5 25.5v5q0 12 -12 12h-314q-12 0 -12 12v44q0 9 8 15l357 193q7 4 15 4h82q12 0 12 -12v-180q0 -12 12 -12h89q12 0 12 -12 v-40q0 -12 -12 -12h-89zM352 496q12 0 12 12v91q0 7 -4 9.5t-10 -1.5l-177 -97q-8 -4 -6.5 -9t10.5 -5h175z"/>
<glyph glyph-name="Euro" unicode="€" horiz-adv-x="1383" d="M806 624q-112 0 -184.5 -26.5t-113.5 -75.5q-11 -12 -5.5 -21.5t22.5 -9.5h459q26 0 26 -26v-48q0 -26 -26 -26h-504q-13 0 -20 -8.5t-7 -28.5t7 -28.5t20 -8.5h504q26 0 26 -26v-48q0 -26 -26 -26h-465q-16 0 -21.5 -9t4.5 -22q39 -53 113.5 -81.5t190.5 -28.5 q127 0 206.5 39.5t124.5 119.5q10 19 31 19h113q26 0 26 -26v-202q0 -26 -26 -26h-93q-21 0 -31 19l-14 27q-12 24 -35 10q-61 -37 -144 -59.5t-198 -22.5q-102 0 -189 13.5t-157 41t-121 70t-79 99.5q-9 19 -30 19h-113q-26 0 -26 26v48q0 26 26 26h85q13 0 19 8.5t6 28.5 t-6 28.5t-19 8.5h-85q-26 0 -26 26v48q0 26 26 26h116q21 0 31 19q29 55 80 96t120 67.5t155.5 39.5t186.5 13q115 0 198 -22.5t144 -59.5q23 -14 35 9l14 28q10 19 31 19h93q26 0 26 -26v-202q0 -26 -26 -26h-113q-21 0 -28 14q-46 83 -125.5 123.5t-208.5 40.5z"/>
<glyph glyph-name="trademark" unicode="™" horiz-adv-x="1529" d="M602 700q12 0 12 -12v-108q0 -12 -12 -12h-41q-11 0 -13 11q-8 34 -25.5 50.5t-52.5 16.5h-62q-12 0 -12 -12v-167q0 -21 4 -27t19 -6h45q12 0 12 -12v-30q0 -12 -12 -12h-258q-12 0 -12 12v30q0 12 12 12h45q15 0 18.5 6t3.5 27v167q0 12 -12 12h-62q-34 0 -52 -16.5 t-26 -50.5q-2 -11 -13 -11h-42q-12 0 -12 12v108q0 12 12 12h536zM1372 468q0 -22 4 -28t18 -6h45q12 0 12 -12v-30q0 -12 -12 -12h-258q-12 0 -12 12v30q0 12 12 12h45q14 0 18 6t4 28v149q0 8 -5 10t-10 -6l-156 -233q-4 -8 -14 -8h-54q-10 0 -14 8l-157 233q-5 8 -10 6.5 t-5 -10.5v-150q0 -21 3.5 -27t18.5 -6h45q12 0 12 -12v-30q0 -12 -12 -12h-222q-12 0 -12 12v30q0 12 12 12h46q14 0 17.5 6t3.5 27v145q0 23 -3.5 28.5t-17.5 5.5h-46q-12 0 -12 12v30q0 12 12 12h225q10 0 14 -8l139 -206q8 -11 16 0l139 206q4 8 14 8h224q12 0 12 -12 v-30q0 -12 -12 -12h-45q-14 0 -18 -5.5t-4 -26.5v-146z"/>
<glyph glyph-name="minus" unicode="−" horiz-adv-x="833" d="M80 397q0 26 26 26h621q26 0 26 -26v-74q0 -26 -26 -26h-621q-26 0 -26 26v74z"/>
<glyph glyph-name="notequal" unicode="≠" horiz-adv-x="836" d="M533 397q-20 0 -31 -17l-25 -38q-20 -31 18 -31h235q26 0 26 -26v-68q0 -26 -26 -26h-331q-20 0 -31 -17l-63 -96q-11 -17 -31 -17h-76q-17 0 -21.5 9t4.5 22l44 68q21 31 -17 31h-102q-26 0 -26 26v68q0 26 26 26h197q20 0 31 17l25 38q20 31 -18 31h-235q-26 0 -26 26 v68q0 26 26 26h331q20 0 31 17l63 96q11 17 31 17h76q17 0 21.5 -9t-4.5 -22l-44 -68q-20 -31 17 -31h102q26 0 26 -26v-68q0 -26 -26 -26h-197z"/>
</font>
</defs>
</svg>
